<svg width="40" height="40" viewBox="0 0 40 40" fill="none" xmlns="http://www.w3.org/2000/svg" xmlns:xlink="http://www.w3.org/1999/xlink">
<path d="M13.333,9.583C12.65,9.583 12.083,9.016 12.083,8.333L12.083,3.333C12.083,2.65 12.65,2.083 13.333,2.083C14.017,2.083 14.583,2.65 14.583,3.333L14.583,8.333C14.583,9.016 14.017,9.583 13.333,9.583Z" fill="#E73C34"/>
<path d="M26.667,9.583C25.983,9.583 25.417,9.016 25.417,8.333L25.417,3.333C25.417,2.65 25.983,2.083 26.667,2.083C27.35,2.083 27.917,2.65 27.917,3.333L27.917,8.333C27.917,9.016 27.35,9.583 26.667,9.583Z" fill="#E73C34"/>
<path d="M14.167,24.167C13.95,24.167 13.733,24.117 13.533,24.034C13.317,23.95 13.15,23.834 12.983,23.684C12.683,23.367 12.5,22.95 12.5,22.5C12.5,22.284 12.55,22.067 12.633,21.867C12.717,21.667 12.833,21.484 12.983,21.317C13.15,21.167 13.317,21.05 13.533,20.967C14.133,20.717 14.883,20.85 15.35,21.317C15.65,21.634 15.833,22.067 15.833,22.5C15.833,22.6 15.817,22.717 15.8,22.834C15.783,22.934 15.75,23.034 15.7,23.134C15.667,23.234 15.617,23.334 15.55,23.434C15.5,23.517 15.417,23.6 15.35,23.684C15.033,23.984 14.6,24.167 14.167,24.167Z" fill="#E73C34"/>
<path d="M20,24.166C19.783,24.166 19.567,24.116 19.367,24.033C19.15,23.95 18.983,23.833 18.817,23.683C18.517,23.366 18.333,22.95 18.333,22.5C18.333,22.283 18.383,22.066 18.467,21.866C18.55,21.666 18.667,21.483 18.817,21.316C18.983,21.166 19.15,21.05 19.367,20.966C19.967,20.7 20.717,20.85 21.183,21.316C21.483,21.633 21.667,22.066 21.667,22.5C21.667,22.6 21.65,22.716 21.633,22.833C21.617,22.933 21.583,23.033 21.533,23.133C21.5,23.233 21.45,23.333 21.383,23.433C21.333,23.516 21.25,23.6 21.183,23.683C20.867,23.983 20.433,24.166 20,24.166Z" fill="#E73C34"/>
<path d="M25.833,24.166C25.617,24.166 25.4,24.116 25.2,24.033C24.983,23.95 24.817,23.833 24.65,23.683C24.583,23.6 24.517,23.516 24.45,23.433C24.383,23.333 24.333,23.233 24.3,23.133C24.25,23.033 24.217,22.933 24.2,22.833C24.183,22.716 24.167,22.6 24.167,22.5C24.167,22.066 24.35,21.633 24.65,21.316C24.817,21.166 24.983,21.05 25.2,20.966C25.817,20.7 26.55,20.85 27.017,21.316C27.317,21.633 27.5,22.066 27.5,22.5C27.5,22.6 27.483,22.716 27.467,22.833C27.45,22.933 27.417,23.033 27.367,23.133C27.333,23.233 27.283,23.333 27.217,23.433C27.167,23.516 27.083,23.6 27.017,23.683C26.7,23.983 26.267,24.166 25.833,24.166Z" fill="#E73C34"/>
<path d="M14.167,30C13.95,30 13.733,29.95 13.533,29.867C13.333,29.783 13.15,29.667 12.983,29.517C12.683,29.2 12.5,28.767 12.5,28.333C12.5,28.117 12.55,27.9 12.633,27.7C12.717,27.483 12.833,27.3 12.983,27.15C13.6,26.533 14.733,26.533 15.35,27.15C15.65,27.467 15.833,27.9 15.833,28.333C15.833,28.767 15.65,29.2 15.35,29.517C15.033,29.817 14.6,30 14.167,30Z" fill="#E73C34"/>
<path d="M20,30C19.567,30 19.133,29.817 18.817,29.517C18.517,29.2 18.333,28.767 18.333,28.333C18.333,28.117 18.383,27.9 18.467,27.7C18.55,27.483 18.667,27.3 18.817,27.15C19.433,26.533 20.567,26.533 21.183,27.15C21.333,27.3 21.45,27.483 21.533,27.7C21.617,27.9 21.667,28.117 21.667,28.333C21.667,28.767 21.483,29.2 21.183,29.517C20.867,29.817 20.433,30 20,30Z" fill="#E73C34"/>
<path d="M25.833,30C25.4,30 24.967,29.816 24.65,29.516C24.5,29.366 24.383,29.183 24.3,28.967C24.217,28.767 24.167,28.55 24.167,28.333C24.167,28.117 24.217,27.9 24.3,27.7C24.383,27.483 24.5,27.3 24.65,27.15C25.033,26.767 25.617,26.583 26.15,26.7C26.267,26.717 26.367,26.75 26.467,26.8C26.567,26.833 26.667,26.883 26.767,26.95C26.85,27 26.933,27.083 27.017,27.15C27.317,27.467 27.5,27.9 27.5,28.333C27.5,28.767 27.317,29.2 27.017,29.516C26.7,29.816 26.267,30 25.833,30Z" fill="#E73C34"/>
<path d="M34.167,16.4L5.833,16.4C5.15,16.4 4.583,15.834 4.583,15.15C4.583,14.467 5.15,13.9 5.833,13.9L34.167,13.9C34.85,13.9 35.417,14.467 35.417,15.15C35.417,15.834 34.85,16.4 34.167,16.4Z" fill="#E73C34"/>
<path d="M26.667,37.916L13.333,37.916C7.25,37.916 3.75,34.416 3.75,28.333L3.75,14.166C3.75,8.083 7.25,4.583 13.333,4.583L26.667,4.583C32.75,4.583 36.25,8.083 36.25,14.166L36.25,28.333C36.25,34.416 32.75,37.916 26.667,37.916ZM13.333,7.083C8.567,7.083 6.25,9.4 6.25,14.166L6.25,28.333C6.25,33.1 8.567,35.416 13.333,35.416L26.667,35.416C31.433,35.416 33.75,33.1 33.75,28.333L33.75,14.166C33.75,9.4 31.433,7.083 26.667,7.083L13.333,7.083Z" fill="#E73C34"/>
</svg>
