<svg width="778" height="144" viewBox="0 0 778 144" fill="none" xmlns="http://www.w3.org/2000/svg" xmlns:xlink="http://www.w3.org/1999/xlink">
<rect  x="0" y="0" width="778" height="144" rx="20" fill="#FFDBDB"/>
<path d="M73.583,103.5L85.167,92L81.667,88.5L73.583,96.417L70.333,93.167L66.833,96.75L73.583,103.5ZM36,66L76,66L76,59.333L36,59.333L36,66ZM76,112.667C71.389,112.667 67.459,111.041 64.21,107.79C60.961,104.539 59.336,100.609 59.333,96C59.331,91.391 60.957,87.461 64.21,84.21C67.463,80.959 71.393,79.333 76,79.333C80.607,79.333 84.538,80.959 87.793,84.21C91.049,87.461 92.673,91.391 92.667,96C92.66,100.609 91.034,104.54 87.79,107.793C84.546,111.047 80.616,112.671 76,112.667ZM26,109.333L26,52.667C26,50.833 26.653,49.264 27.96,47.96C29.267,46.656 30.836,46.002 32.667,46L79.333,46C81.167,46 82.737,46.653 84.043,47.96C85.35,49.267 86.002,50.836 86,52.667L86,74.917C84.444,74.139 82.819,73.569 81.123,73.207C79.428,72.844 77.72,72.664 76,72.667L36,72.667L36,79.333L59.667,79.333C58.722,80.278 57.848,81.306 57.043,82.417C56.239,83.528 55.53,84.722 54.917,86L36,86L36,92.667L52.917,92.667C52.806,93.222 52.737,93.764 52.71,94.293C52.683,94.822 52.669,95.391 52.667,96C52.667,98.333 52.987,100.57 53.627,102.71C54.267,104.85 55.224,106.891 56.5,108.833L56,109.333L51,104.333L46,109.333L41,104.333L36,109.333L31,104.333L26,109.333Z" fill="#E73C34"/>
</svg>
