<svg width="774" height="144" viewBox="0 0 774 144" fill="none" xmlns="http://www.w3.org/2000/svg" xmlns:xlink="http://www.w3.org/1999/xlink">
<rect  x="0" y="0" width="774" height="144" rx="20" fill="#FFDBDB"/>
<path d="M73.583,101.5L85.167,90L81.667,86.5L73.583,94.417L70.333,91.167L66.833,94.75L73.583,101.5ZM36,64L76,64L76,57.333L36,57.333L36,64ZM76,110.667C71.389,110.667 67.459,109.041 64.21,105.79C60.961,102.539 59.336,98.609 59.333,94C59.331,89.391 60.957,85.461 64.21,82.21C67.463,78.959 71.393,77.333 76,77.333C80.607,77.333 84.538,78.959 87.793,82.21C91.049,85.461 92.673,89.391 92.667,94C92.66,98.609 91.034,102.54 87.79,105.793C84.546,109.047 80.616,110.671 76,110.667ZM26,107.333L26,50.667C26,48.833 26.653,47.264 27.96,45.96C29.267,44.656 30.836,44.002 32.667,44L79.333,44C81.167,44 82.737,44.653 84.043,45.96C85.35,47.267 86.002,48.836 86,50.667L86,72.917C84.444,72.139 82.819,71.569 81.123,71.207C79.428,70.844 77.72,70.664 76,70.667L36,70.667L36,77.333L59.667,77.333C58.722,78.278 57.848,79.306 57.043,80.417C56.239,81.528 55.53,82.722 54.917,84L36,84L36,90.667L52.917,90.667C52.806,91.222 52.737,91.764 52.71,92.293C52.683,92.822 52.669,93.391 52.667,94C52.667,96.333 52.987,98.57 53.627,100.71C54.267,102.85 55.224,104.891 56.5,106.833L56,107.333L51,102.333L46,107.333L41,102.333L36,107.333L31,102.333L26,107.333Z" fill="#E73C34"/>
</svg>
