<svg width="774" height="144" viewBox="0 0 774 144" fill="none" xmlns="http://www.w3.org/2000/svg" xmlns:xlink="http://www.w3.org/1999/xlink">
<rect  x="0" y="0" width="774" height="144" rx="20" fill="#FFDBDB"/>
<path d="M83.333,107.333L83.333,109.333L85.333,109.333L85.333,107.333L83.333,107.333ZM83.333,71.766L82.648,69.887L81.333,70.366L81.333,71.766L83.333,71.766ZM76.4,52.999L74.44,53.397L74.905,55.695L77.101,54.872L76.4,52.999ZM43.6,52.999L42.907,54.875L45.096,55.684L45.56,53.397L43.6,52.999ZM36.666,71.766L38.666,71.766L38.666,70.373L37.36,69.89L36.666,71.766ZM36.666,107.333L34.666,107.333L34.666,109.333L36.666,109.333L36.666,107.333ZM83.333,91.999L36.666,91.999L36.666,95.999L83.333,95.999L83.333,91.999ZM62,93.999L62,73.999L58,73.999L58,93.999L62,93.999ZM72,93.999L72,80.666L68,80.666L68,93.999L72,93.999ZM52,93.999L52,80.666L48,80.666L48,93.999L52,93.999ZM85.333,107.333L85.333,71.766L81.333,71.766L81.333,107.333L85.333,107.333ZM84.018,73.645C85.503,73.104 86.867,72.275 88.031,71.205L85.324,68.26C84.548,68.973 83.639,69.526 82.648,69.887L84.018,73.645ZM88.031,71.205C89.194,70.135 90.136,68.846 90.8,67.412L87.17,65.731C86.727,66.687 86.1,67.547 85.324,68.26L88.031,71.205ZM90.8,67.412C91.464,65.977 91.839,64.426 91.902,62.846L87.905,62.687C87.863,63.74 87.613,64.774 87.17,65.731L90.8,67.412ZM91.902,62.846C91.965,61.267 91.715,59.69 91.167,58.208L87.415,59.594C87.78,60.582 87.947,61.634 87.905,62.687L91.902,62.846ZM91.167,58.208C90.62,56.725 89.784,55.365 88.709,54.206L85.776,56.925C86.493,57.698 87.05,58.605 87.415,59.594L91.167,58.208ZM88.709,54.206C87.635,53.047 86.341,52.111 84.904,51.453L83.239,55.09C84.197,55.529 85.06,56.153 85.776,56.925L88.709,54.206ZM84.904,51.453C83.467,50.795 81.914,50.428 80.334,50.372L80.192,54.369C81.245,54.406 82.281,54.652 83.239,55.09L84.904,51.453ZM80.334,50.372C78.754,50.315 77.179,50.572 75.698,51.126L77.101,54.872C78.088,54.503 79.138,54.332 80.192,54.369L80.334,50.372ZM78.36,52.602C77.631,49.003 75.264,45.535 72.057,42.985C68.83,40.419 64.609,38.666 60,38.666L60,42.666C63.59,42.666 66.953,44.036 69.567,46.116C72.202,48.211 73.935,50.909 74.44,53.397L78.36,52.602ZM60,38.666C55.39,38.666 51.169,40.419 47.943,42.985C44.736,45.535 42.369,49.003 41.64,52.602L45.56,53.397C46.064,50.909 47.797,48.211 50.432,46.116C53.047,44.036 56.409,42.666 60,42.666L60,38.666ZM44.293,51.123C41.307,50.02 38.005,50.148 35.113,51.48L36.786,55.113C38.714,54.225 40.916,54.14 42.907,54.875L44.293,51.123ZM35.113,51.48C32.221,52.811 29.977,55.237 28.874,58.223L32.626,59.609C33.361,57.618 34.858,56.001 36.786,55.113L35.113,51.48ZM28.874,58.223C27.77,61.209 27.899,64.511 29.23,67.403L32.863,65.73C31.976,63.802 31.89,61.6 32.626,59.609L28.874,58.223ZM29.23,67.403C30.562,70.295 32.987,72.539 35.973,73.642L37.36,69.89C35.369,69.154 33.751,67.658 32.863,65.73L29.23,67.403ZM34.666,71.766L34.666,107.333L38.666,107.333L38.666,71.766L34.666,71.766ZM36.666,109.333L83.333,109.333L83.333,105.333L36.666,105.333L36.666,109.333Z" fill="#E73C34"/>
</svg>
