<svg width="774" height="144" viewBox="0 0 774 144" fill="none" xmlns="http://www.w3.org/2000/svg" xmlns:xlink="http://www.w3.org/1999/xlink">
<rect  x="0" y="0" width="774" height="144" rx="20" fill="#FFDBDB"/>
<path d="M83.333,113.333L83.333,115.333L85.333,115.333L85.333,113.333L83.333,113.333ZM83.333,77.766L82.648,75.887L81.333,76.366L81.333,77.766L83.333,77.766ZM76.4,58.999L74.44,59.397L74.905,61.695L77.101,60.872L76.4,58.999ZM43.6,58.999L42.907,60.875L45.096,61.684L45.56,59.397L43.6,58.999ZM36.666,77.766L38.666,77.766L38.666,76.373L37.36,75.89L36.666,77.766ZM36.666,113.333L34.666,113.333L34.666,115.333L36.666,115.333L36.666,113.333ZM83.333,97.999L36.666,97.999L36.666,101.999L83.333,101.999L83.333,97.999ZM62,99.999L62,79.999L58,79.999L58,99.999L62,99.999ZM72,99.999L72,86.666L68,86.666L68,99.999L72,99.999ZM52,99.999L52,86.666L48,86.666L48,99.999L52,99.999ZM85.333,113.333L85.333,77.766L81.333,77.766L81.333,113.333L85.333,113.333ZM84.018,79.645C85.503,79.104 86.867,78.275 88.031,77.205L85.324,74.26C84.548,74.973 83.639,75.526 82.648,75.887L84.018,79.645ZM88.031,77.205C89.194,76.135 90.136,74.846 90.8,73.412L87.17,71.731C86.727,72.687 86.1,73.547 85.324,74.26L88.031,77.205ZM90.8,73.412C91.464,71.977 91.839,70.426 91.902,68.846L87.905,68.687C87.863,69.74 87.613,70.774 87.17,71.731L90.8,73.412ZM91.902,68.846C91.965,67.267 91.715,65.69 91.167,64.208L87.415,65.594C87.78,66.582 87.947,67.634 87.905,68.687L91.902,68.846ZM91.167,64.208C90.62,62.725 89.784,61.365 88.709,60.206L85.776,62.925C86.493,63.698 87.05,64.605 87.415,65.594L91.167,64.208ZM88.709,60.206C87.635,59.047 86.341,58.111 84.904,57.453L83.239,61.09C84.197,61.529 85.06,62.153 85.776,62.925L88.709,60.206ZM84.904,57.453C83.467,56.795 81.914,56.428 80.334,56.372L80.192,60.369C81.245,60.406 82.281,60.652 83.239,61.09L84.904,57.453ZM80.334,56.372C78.754,56.315 77.179,56.572 75.698,57.126L77.101,60.872C78.088,60.503 79.138,60.332 80.192,60.369L80.334,56.372ZM78.36,58.602C77.631,55.003 75.264,51.535 72.057,48.985C68.83,46.419 64.609,44.666 60,44.666L60,48.666C63.59,48.666 66.953,50.036 69.567,52.116C72.202,54.211 73.935,56.909 74.44,59.397L78.36,58.602ZM60,44.666C55.39,44.666 51.169,46.419 47.943,48.985C44.736,51.535 42.369,55.003 41.64,58.602L45.56,59.397C46.064,56.909 47.797,54.211 50.432,52.116C53.047,50.036 56.409,48.666 60,48.666L60,44.666ZM44.293,57.123C41.307,56.02 38.005,56.148 35.113,57.48L36.786,61.113C38.714,60.225 40.916,60.14 42.907,60.875L44.293,57.123ZM35.113,57.48C32.221,58.811 29.977,61.237 28.874,64.223L32.626,65.609C33.361,63.618 34.858,62.001 36.786,61.113L35.113,57.48ZM28.874,64.223C27.77,67.209 27.899,70.511 29.23,73.403L32.863,71.73C31.976,69.802 31.89,67.6 32.626,65.609L28.874,64.223ZM29.23,73.403C30.562,76.295 32.987,78.539 35.973,79.642L37.36,75.89C35.369,75.154 33.751,73.658 32.863,71.73L29.23,73.403ZM34.666,77.766L34.666,113.333L38.666,113.333L38.666,77.766L34.666,77.766ZM36.666,115.333L83.333,115.333L83.333,111.333L36.666,111.333L36.666,115.333Z" fill="#E73C34"/>
</svg>
