<svg width="776" height="144" viewBox="0 0 776 144" fill="none" xmlns="http://www.w3.org/2000/svg" xmlns:xlink="http://www.w3.org/1999/xlink">
<rect  x="0" y="0" width="776" height="144" rx="20" fill="#FFDBDB"/>
<path d="M73.583,97.5L85.167,86L81.667,82.5L73.583,90.417L70.333,87.167L66.833,90.75L73.583,97.5ZM36,60L76,60L76,53.333L36,53.333L36,60ZM76,106.667C71.389,106.667 67.459,105.041 64.21,101.79C60.961,98.539 59.336,94.609 59.333,90C59.331,85.391 60.957,81.461 64.21,78.21C67.463,74.959 71.393,73.333 76,73.333C80.607,73.333 84.538,74.959 87.793,78.21C91.049,81.461 92.673,85.391 92.667,90C92.66,94.609 91.034,98.54 87.79,101.793C84.546,105.047 80.616,106.671 76,106.667ZM26,103.333L26,46.667C26,44.833 26.653,43.264 27.96,41.96C29.267,40.656 30.836,40.002 32.667,40L79.333,40C81.167,40 82.737,40.653 84.043,41.96C85.35,43.267 86.002,44.836 86,46.667L86,68.917C84.444,68.139 82.819,67.569 81.123,67.207C79.428,66.844 77.72,66.664 76,66.667L36,66.667L36,73.333L59.667,73.333C58.722,74.278 57.848,75.306 57.043,76.417C56.239,77.528 55.53,78.722 54.917,80L36,80L36,86.667L52.917,86.667C52.806,87.222 52.737,87.764 52.71,88.293C52.683,88.822 52.669,89.391 52.667,90C52.667,92.333 52.987,94.57 53.627,96.71C54.267,98.85 55.224,100.891 56.5,102.833L56,103.333L51,98.333L46,103.333L41,98.333L36,103.333L31,98.333L26,103.333Z" fill="#E73C34"/>
</svg>
