<svg width="346" height="324" viewBox="0 0 346 324" fill="none" xmlns="http://www.w3.org/2000/svg" xmlns:xlink="http://www.w3.org/1999/xlink">
<path d="M168.383,291.96C160.101,291.768 153.231,298.326 153.038,306.608C152.845,314.89 159.402,321.76 167.684,321.952L168.383,291.96ZM-0.619,165.487C-0.375,173.767 6.535,180.283 14.816,180.039C23.096,179.796 29.612,172.886 29.368,164.605L-0.619,165.487ZM29.368,157.395C29.612,149.114 23.096,142.204 14.816,141.961C6.535,141.717 -0.375,148.233 -0.619,156.513L29.368,157.395ZM167.684,0.047C159.402,0.24 152.845,7.111 153.038,15.393C153.231,23.675 160.101,30.232 168.383,30.039L167.684,0.047ZM175.778,30.039C184.061,30.232 190.931,23.675 191.124,15.393C191.317,7.111 184.759,0.24 176.477,0.047L175.778,30.039ZM344.779,156.513C344.537,148.233 337.627,141.717 329.345,141.961C321.065,142.204 314.549,149.114 314.793,157.395L344.779,156.513ZM314.793,164.605C314.549,172.886 321.065,179.796 329.345,180.039C337.627,180.283 344.537,173.767 344.779,165.487L314.793,164.605ZM176.477,321.952C184.759,321.76 191.317,314.89 191.124,306.608C190.931,298.326 184.061,291.768 175.778,291.96L176.477,321.952ZM172.081,292.004C170.844,292.004 169.611,291.99 168.383,291.96L167.684,321.952C169.145,321.986 170.611,322.004 172.081,322.004L172.081,292.004ZM29.368,164.605C29.333,163.408 29.315,162.206 29.315,161L-0.685,161C-0.685,162.5 -0.663,163.996 -0.619,165.487L29.368,164.605ZM29.315,161C29.315,159.794 29.333,158.592 29.368,157.395L-0.619,156.513C-0.663,158.004 -0.685,159.5 -0.685,161L29.315,161ZM168.383,30.039C169.611,30.011 170.844,29.996 172.081,29.996L172.081,-0.004C170.611,-0.004 169.145,0.013 167.684,0.047L168.383,30.039ZM172.081,29.996C173.317,29.996 174.55,30.011 175.778,30.039L176.477,0.047C175.016,0.013 173.55,-0.004 172.081,-0.004L172.081,29.996ZM314.793,157.395C314.827,158.592 314.845,159.794 314.845,161L344.845,161C344.845,159.5 344.823,158.004 344.779,156.513L314.793,157.395ZM314.845,161C314.845,162.206 314.827,163.408 314.793,164.605L344.779,165.487C344.823,163.996 344.845,162.5 344.845,161L314.845,161ZM175.778,291.96C174.55,291.99 173.317,292.004 172.081,292.004L172.081,322.004C173.55,322.004 175.016,321.986 176.477,321.952L175.778,291.96Z" fill="#4880FF"/>
</svg>
