<svg width="36" height="32" viewBox="0 0 36 32" fill="none" xmlns="http://www.w3.org/2000/svg" xmlns:xlink="http://www.w3.org/1999/xlink">
<path d="M26.34,21.201C25.457,20.538 24.203,20.717 23.54,21.601C22.877,22.484 23.056,23.738 23.94,24.401L26.34,21.201ZM32.206,30.601C33.09,31.264 34.343,31.084 35.006,30.201C35.669,29.317 35.49,28.064 34.606,27.401L32.206,30.601ZM23.94,24.401L32.206,30.601L34.606,27.401L26.34,21.201L23.94,24.401Z" fill="#434B67"/>
<path d="M27.816,14C27.816,19.201 22.632,24 15.452,24L15.452,28C24.138,28 31.816,22.054 31.816,14L27.816,14ZM15.452,24C8.273,24 3.089,19.201 3.089,14L-0.911,14C-0.911,22.054 6.767,28 15.452,28L15.452,24ZM3.089,14C3.089,8.799 8.273,4 15.452,4L15.452,0C6.767,0 -0.911,5.946 -0.911,14L3.089,14ZM15.452,4C22.632,4 27.816,8.799 27.816,14L31.816,14C31.816,5.946 24.138,0 15.452,0L15.452,4Z" fill="#767F9D"/>
</svg>
