<svg width="292" height="276" viewBox="0 0 292 276" fill="none" xmlns="http://www.w3.org/2000/svg" xmlns:xlink="http://www.w3.org/1999/xlink">
<path d="M145.413,138L292,138C292,170.858 279.546,202.638 256.878,227.624C234.21,252.609 202.817,269.161 168.344,274.301C133.871,279.441 98.581,272.832 68.821,255.664C39.062,238.496 16.786,211.894 6,180.644L145.413,138Z" fill="#E7E3E3"/>
<path d="M145.735,137.508L7.133,180C-0.453,157.972 -2.018,134.493 2.581,111.741C7.181,88.99 17.797,67.703 33.444,49.857C49.091,32.011 69.263,18.183 92.086,9.656C114.91,1.13 139.646,-1.819 164,1.084L145.735,137.508Z" fill="#E73C34" fill-opacity="0.7" stroke="#E73C34" stroke-opacity="0.7" stroke-width="1" stroke-miterlimit="3.999327"/>
</svg>
