<svg width="60" height="60" viewBox="0 0 60 60" fill="none" xmlns="http://www.w3.org/2000/svg" xmlns:xlink="http://www.w3.org/1999/xlink">
<path d="M20.902,1.973C14.907,4.053 9.737,8 6.151,13.236C2.565,18.471 0.753,24.718 0.98,31.059C1.207,37.401 3.462,43.502 7.413,48.467C11.364,53.432 16.803,57 22.931,58.645C27.9,59.927 33.105,59.984 38.1,58.809C42.625,57.793 46.808,55.619 50.241,52.5C53.813,49.155 56.406,44.899 57.741,40.191C59.191,35.07 59.449,29.686 58.495,24.45L30.595,24.45L30.595,36.023L46.753,36.023C46.43,37.869 45.738,39.631 44.718,41.203C43.699,42.775 42.372,44.126 40.819,45.173C38.846,46.479 36.622,47.357 34.289,47.752C31.95,48.187 29.55,48.187 27.211,47.752C24.84,47.262 22.597,46.283 20.625,44.878C17.457,42.636 15.078,39.45 13.828,35.775C12.557,32.031 12.557,27.973 13.828,24.23C14.718,21.606 16.189,19.217 18.131,17.241C20.354,14.938 23.168,13.292 26.265,12.483C29.361,11.674 32.621,11.734 35.686,12.656C38.08,13.391 40.27,14.675 42.08,16.406C43.901,14.594 45.72,12.777 47.536,10.955C48.473,9.975 49.495,9.042 50.419,8.039C47.656,5.468 44.412,3.467 40.875,2.152C34.433,-0.188 27.384,-0.25 20.902,1.973Z" fill="#FFFFFF"/>
<path d="M20.902,1.973C27.384,-0.252 34.432,-0.191 40.875,2.147C44.413,3.472 47.655,5.482 50.414,8.062C49.477,9.066 48.487,10.003 47.531,10.978C45.712,12.794 43.895,14.603 42.08,16.406C40.27,14.675 38.08,13.391 35.686,12.656C32.622,11.731 29.363,11.668 26.265,12.473C23.168,13.279 20.352,14.922 18.127,17.222C16.184,19.198 14.713,21.587 13.823,24.211L4.106,16.687C7.584,9.79 13.607,4.514 20.902,1.973Z" fill="#E33629"/>
<path d="M1.528,24.141C2.05,21.552 2.917,19.045 4.106,16.688L13.823,24.23C12.553,27.973 12.553,32.031 13.823,35.775C10.586,38.275 7.347,40.788 4.106,43.313C1.13,37.389 0.223,30.64 1.528,24.141Z" fill="#F8BD00"/>
<path d="M30.595,24.445L58.495,24.445C59.449,29.681 59.191,35.066 57.741,40.186C56.406,44.895 53.813,49.15 50.241,52.495C47.105,50.049 43.955,47.62 40.819,45.174C42.374,44.125 43.701,42.773 44.72,41.199C45.74,39.625 46.431,37.862 46.753,36.014L30.595,36.014C30.591,32.161 30.595,28.303 30.595,24.445Z" fill="#587DBD"/>
<path d="M4.102,43.313C7.342,40.813 10.581,38.3 13.819,35.775C15.071,39.451 17.453,42.637 20.625,44.878C22.603,46.277 24.851,47.247 27.225,47.728C29.564,48.163 31.964,48.163 34.303,47.728C36.636,47.334 38.86,46.456 40.833,45.15C43.969,47.597 47.119,50.025 50.255,52.472C46.823,55.592 42.64,57.768 38.114,58.786C33.119,59.96 27.914,59.904 22.945,58.622C19.016,57.573 15.345,55.723 12.164,53.189C8.797,50.515 6.047,47.147 4.102,43.313Z" fill="#319F43"/>
</svg>
