<svg width="48" height="48" viewBox="0 0 48 48" fill="none" xmlns="http://www.w3.org/2000/svg" xmlns:xlink="http://www.w3.org/1999/xlink">
<path d="M26.52,7.2L25.431,6.169L25.43,6.17L26.52,7.2ZM10.1,24.58L9.01,23.55L9.007,23.553L10.1,24.58ZM8.76,27.44L7.273,27.242L7.27,27.27L8.76,27.44ZM8.02,33.92L6.53,33.75L6.529,33.754L8.02,33.92ZM11.76,37.46L11.507,35.981L11.505,35.982L11.76,37.46ZM18.2,36.36L18.453,37.839L18.462,37.837L18.2,36.36ZM20.98,34.86L19.889,33.83L19.872,33.849L20.98,34.86ZM37.4,17.48L36.311,16.449L36.31,16.45L37.4,17.48ZM37.1,6.88L38.131,5.79L38.128,5.787L37.1,6.88ZM25.43,6.17L9.01,23.55L11.19,25.61L27.61,8.23L25.43,6.17ZM9.007,23.553C8.551,24.038 8.165,24.68 7.883,25.286C7.6,25.894 7.359,26.594 7.273,27.242L10.247,27.638C10.28,27.386 10.4,26.986 10.602,26.554C10.804,26.119 11.029,25.782 11.193,25.607L9.007,23.553ZM7.27,27.27L6.53,33.75L9.51,34.09L10.25,27.61L7.27,27.27ZM6.529,33.754C6.355,35.323 6.825,36.796 7.89,37.806C8.957,38.817 10.454,39.207 12.015,38.938L11.505,35.982C10.746,36.113 10.243,35.903 9.955,35.629C9.665,35.354 9.425,34.857 9.511,34.086L6.529,33.754ZM12.013,38.939L18.453,37.839L17.947,34.881L11.507,35.981L12.013,38.939ZM18.462,37.837C19.112,37.721 19.804,37.448 20.402,37.128C20.997,36.81 21.625,36.379 22.088,35.871L19.872,33.849C19.715,34.021 19.403,34.26 18.988,34.482C18.576,34.702 18.188,34.839 17.937,34.883L18.462,37.837ZM22.07,35.89L38.49,18.51L36.31,16.45L19.89,33.83L22.07,35.89ZM38.489,18.511C39.992,16.924 41.31,15 41.469,12.727C41.633,10.375 40.537,8.066 38.131,5.79L36.069,7.97C38.082,9.874 38.557,11.365 38.476,12.518C38.39,13.75 37.648,15.036 36.311,16.449L38.489,18.511ZM38.128,5.787C35.729,3.53 33.368,2.576 31.035,2.875C28.78,3.163 26.934,4.581 25.431,6.169L27.609,8.231C28.946,6.819 30.19,6.007 31.415,5.85C32.562,5.704 34.071,6.089 36.072,7.972L38.128,5.787Z" fill="#0C0507"/>
<path d="M25.262,9.869C25.135,9.051 24.368,8.49 23.549,8.618C22.731,8.746 22.17,9.512 22.298,10.331L25.262,9.869ZM34.53,21.893C35.354,21.976 36.089,21.375 36.172,20.55C36.255,19.726 35.655,18.991 34.83,18.908L34.53,21.893ZM22.298,10.331C23.264,16.53 28.295,21.265 34.53,21.893L34.83,18.908C29.945,18.416 26.016,14.71 25.262,9.869L22.298,10.331Z" fill="#0C0507"/>
<line x1="6" y1="42.5" x2="42" y2="42.5" stroke="#0C0507" stroke-width="1.5" stroke-miterlimit="10" stroke-linecap="round" stroke-linejoin="round"/>
</svg>
