<svg width="696" height="322" viewBox="0 0 696 322" fill="none" xmlns="http://www.w3.org/2000/svg" xmlns:xlink="http://www.w3.org/1999/xlink">
<path d="M237.56,247.086L238.584,244.266L238.584,244.266L237.56,247.086ZM270.71,259.144L269.684,261.962L269.684,261.962L270.71,259.144ZM272.478,259L271.012,256.382L271.012,256.382L272.478,259ZM416.328,178.414L414.862,175.796L414.862,175.796L416.328,178.414ZM417.866,178.2L417.164,181.117L417.164,181.117L417.866,178.2ZM446.244,185.044L445.54,187.96L445.542,187.96L446.244,185.044ZM448.23,184.498L446.146,182.341L446.146,182.341L448.23,184.498ZM514.342,120.599L512.256,118.442L512.256,118.442L514.342,120.599ZM517.186,120.482L519.09,118.163L519.09,118.163L517.186,120.482ZM561.182,156.606L559.278,158.925L559.278,158.925L561.182,156.606ZM564.418,155.98L567.038,157.443L567.038,157.442L564.418,155.98ZM601.354,89.842L603.972,91.305L603.972,91.305L601.354,89.842ZM604.232,88.977L605.638,86.327L605.638,86.327L604.232,88.977ZM644.36,110.273L645.766,107.623L645.766,107.623L644.36,110.273ZM647.342,109.193L650.104,110.365L650.104,110.365L647.342,109.193ZM694.762,5.172C695.408,3.647 694.698,1.886 693.172,1.239C691.648,0.591 689.886,1.303 689.238,2.828L694.762,5.172ZM131.609,306.208L133.087,308.818L133.087,308.818L131.609,306.208ZM235.782,247.234L237.26,249.846L237.26,249.844L235.782,247.234ZM2,315C0.343,315 -1,316.344 -1,318C-1,319.656 0.343,321 2,321L2,315ZM27.413,318L27.413,321L27.58,321L27.745,320.982L27.413,318ZM130.794,306.472L130.462,303.49L130.462,303.49L130.794,306.472ZM236.534,249.904L269.684,261.962L271.736,256.324L238.584,244.266L236.534,249.904ZM273.944,261.616L417.794,181.031L414.862,175.796L271.012,256.382L273.944,261.616ZM417.164,181.117L445.54,187.96L446.948,182.128L418.57,175.284L417.164,181.117ZM450.316,186.655L516.426,122.756L512.256,118.442L446.146,182.341L450.316,186.655ZM515.282,122.801L559.278,158.925L563.086,154.288L519.09,118.163L515.282,122.801ZM567.038,157.442L603.972,91.305L598.734,88.379L561.8,154.517L567.038,157.442ZM602.826,91.627L642.952,112.923L645.766,107.623L605.638,86.327L602.826,91.627ZM650.104,110.365L694.762,5.172L689.238,2.828L644.582,108.021L650.104,110.365ZM133.087,308.818L237.26,249.846L234.304,244.624L130.131,303.598L133.087,308.818ZM2,321L27.413,321L27.413,315L2,315L2,321ZM27.745,320.982L131.127,309.454L130.462,303.49L27.081,315.018L27.745,320.982ZM130.131,303.598C130.231,303.542 130.343,303.504 130.462,303.49L131.127,309.454C131.818,309.376 132.484,309.16 133.087,308.818L130.131,303.598ZM642.952,112.923C645.654,114.357 648.934,113.123 650.104,110.365L644.582,108.021C644.754,107.612 645.29,107.371 645.766,107.623L642.952,112.923ZM603.972,91.305C603.766,91.674 603.26,91.858 602.826,91.627L605.638,86.327C603.14,85.001 600.09,85.949 598.734,88.379L603.972,91.305ZM559.278,158.925C561.782,160.98 565.48,160.233 567.038,157.443L561.8,154.517C562.038,154.088 562.658,153.937 563.086,154.288L559.278,158.925ZM516.426,122.756C516.12,123.053 515.62,123.077 515.282,122.801L519.09,118.163C517.066,116.502 514.136,116.626 512.256,118.442L516.426,122.756ZM445.542,187.96C447.258,188.375 449.054,187.874 450.316,186.655L446.146,182.341C446.346,182.146 446.65,182.056 446.948,182.128L445.542,187.96ZM417.794,181.031C417.606,181.136 417.38,181.169 417.164,181.117L418.57,175.284C417.31,174.98 415.988,175.165 414.862,175.796L417.794,181.031ZM269.684,261.962C271.09,262.474 272.644,262.346 273.944,261.616L271.012,256.382C271.23,256.26 271.496,256.238 271.736,256.324L269.684,261.962ZM238.584,244.266C237.172,243.752 235.61,243.884 234.304,244.624L237.26,249.844C237.042,249.968 236.776,249.992 236.534,249.904L238.584,244.266Z" fill="#E73C34"/>
</svg>
