<svg width="34" height="34" viewBox="0 0 34 34" fill="none" xmlns="http://www.w3.org/2000/svg" xmlns:xlink="http://www.w3.org/1999/xlink">
<path d="M17.57,4.482C17.57,3.93 17.122,3.482 16.57,3.482C16.017,3.482 15.57,3.93 15.57,4.482L17.57,4.482ZM15.57,28.198C15.57,28.751 16.017,29.198 16.57,29.198C17.122,29.198 17.57,28.751 17.57,28.198L15.57,28.198ZM15.57,4.482L15.57,28.198L17.57,28.198L17.57,4.482L15.57,4.482Z" transform="rotate(-90 16.57 16.34)" fill="#E73C34"/>
<path d="M4.714,15.341C4.162,15.341 3.714,15.788 3.714,16.341C3.714,16.893 4.162,17.341 4.714,17.341L4.714,15.341ZM28.431,17.341C28.983,17.341 29.431,16.893 29.431,16.341C29.431,15.788 28.983,15.341 28.431,15.341L28.431,17.341ZM4.714,17.341L28.431,17.341L28.431,15.341L4.714,15.341L4.714,17.341Z" transform="rotate(-90 16.572 16.341)" fill="#E73C34"/>
</svg>
