<svg width="50" height="54" viewBox="0 0 50 54" fill="none" xmlns="http://www.w3.org/2000/svg" xmlns:xlink="http://www.w3.org/1999/xlink">
<path d="M48.316,26.4C48.316,40.76 37.288,52.4 23.684,52.4C10.081,52.4 -0.947,40.76 -0.947,26.4C-0.947,12.041 10.081,0.4 23.684,0.4C37.288,0.4 48.316,12.041 48.316,26.4Z" fill="#FFFFFF"/>
<path d="M7.85,26.361C7.911,21.832 9.387,17.951 12.287,14.736C12.37,14.645 12.448,14.541 12.531,14.443C13.541,13.239 15.232,13.019 16.447,13.942C17.689,14.883 18.116,16.637 17.418,18.098C17.251,18.452 17.002,18.776 16.741,19.051C14.19,21.777 13.191,25.047 14.09,28.866C14.95,32.515 17.135,34.905 20.385,35.992C23.541,37.044 26.486,36.384 29.048,34.11C31.244,32.167 32.37,29.563 32.409,26.452C32.442,23.995 31.666,21.826 30.218,19.956C30.035,19.717 29.786,19.54 29.592,19.314C28.776,18.385 28.554,17.279 28.904,16.069C29.264,14.846 30.074,14.113 31.217,13.869C32.11,13.679 32.914,13.936 33.635,14.547C34.899,15.61 35.759,17.028 36.519,18.526C37.839,21.129 38.432,23.94 38.338,26.917C38.227,30.547 37.135,33.786 35.077,36.622C33.13,39.299 30.679,41.199 27.7,42.159C22.67,43.785 17.978,42.929 13.763,39.445C11.023,37.184 9.226,34.177 8.338,30.535C8,29.172 7.856,27.779 7.85,26.361Z" transform="rotate(360 23.099 28.162)" fill="#E73C34" stroke="#FFFFFF" stroke-width="0.8" stroke-miterlimit="3.999327"/>
<path d="M20.109,16.411C20.109,14.162 20.104,13.376 20.109,11.127C20.115,9.844 20.658,8.872 21.668,8.261C22.655,7.662 23.687,7.686 24.652,8.328C25.578,8.939 26.094,9.874 26.094,11.078C26.105,15.601 26.105,17.19 26.094,21.713C26.088,23.393 24.929,24.787 23.42,24.946C21.856,25.117 20.459,24.005 20.148,22.33C20.104,22.092 20.098,21.847 20.098,21.603C20.109,19.384 20.109,18.629 20.109,16.411Z" transform="rotate(360 23.1 16.396)" fill="#E73C34" stroke="#FFFFFF" stroke-width="0.8" stroke-miterlimit="3.999327"/>
</svg>
