<svg width="30" height="24" viewBox="0 0 30 24" fill="none" xmlns="http://www.w3.org/2000/svg" xmlns:xlink="http://www.w3.org/1999/xlink">
<path d="M10.346,11.992C10.359,10.646 10.741,9.326 11.454,8.161C12.167,6.996 13.187,6.027 14.415,5.348C14.659,5.165 14.949,5.046 15.257,5.001C15.564,4.955 15.879,4.987 16.17,5.091C16.461,5.196 16.719,5.37 16.918,5.597C17.117,5.823 17.251,6.095 17.306,6.386C17.606,7.221 17.97,8.036 18.261,8.874C18.339,9.126 18.485,9.354 18.686,9.534C18.886,9.715 19.133,9.842 19.403,9.903C20.295,10.147 21.187,10.387 22.075,10.64C22.191,10.661 22.302,10.704 22.401,10.766C22.5,10.828 22.585,10.908 22.651,11.002C22.717,11.095 22.763,11.2 22.785,11.311C22.807,11.421 22.806,11.535 22.782,11.645C22.768,11.764 22.728,11.878 22.664,11.981C22.6,12.084 22.513,12.172 22.409,12.241C22.306,12.309 22.188,12.355 22.064,12.377C21.94,12.398 21.812,12.394 21.69,12.365C20.796,12.247 19.906,12.115 19.02,11.952C18.355,11.858 17.725,11.611 17.184,11.234C16.643,10.856 16.208,10.359 15.917,9.785C15.766,9.501 15.583,9.229 15.386,8.904C14.696,9.542 14.232,10.368 14.059,11.266C13.949,11.679 14.059,11.875 14.491,12.016C15.777,12.433 17.053,12.879 18.324,13.337C18.577,13.395 18.811,13.512 19.004,13.677C19.196,13.843 19.342,14.052 19.427,14.285C19.512,14.518 19.534,14.768 19.49,15.011C19.446,15.254 19.339,15.483 19.177,15.676C18.54,16.672 17.859,17.643 17.184,18.618C16.707,19.308 16.698,19.302 17.184,20.002C17.214,20.045 17.267,20.089 17.267,20.132C17.267,20.361 17.34,20.663 17.217,20.799C17.127,20.884 17.017,20.947 16.896,20.985C16.775,21.022 16.646,21.033 16.52,21.015C15.872,20.841 15.238,20.625 14.622,20.367C14.502,20.329 14.393,20.267 14.301,20.185C14.21,20.102 14.14,20.001 14.096,19.89C14.051,19.778 14.034,19.658 14.045,19.539C14.056,19.42 14.095,19.305 14.159,19.203C14.631,18.128 15.104,17.053 15.579,15.978C15.618,15.888 15.646,15.796 15.687,15.693C14.682,15.409 13.7,15.133 12.728,14.84C12.3,14.727 11.888,14.567 11.501,14.361C11.092,14.11 10.767,13.754 10.562,13.335C10.358,12.916 10.283,12.45 10.346,11.992L10.346,11.992Z" fill="#E73C34"/>
<path d="M8.036,13.281C7.161,13.291 6.283,13.273 5.408,13.29C5.045,13.297 4.684,13.339 4.329,13.414C3.585,13.563 2.898,13.904 2.345,14.4C1.793,14.896 1.396,15.527 1.199,16.224L0.884,17.119L0.695,17.098C0.416,16.483 0.313,15.81 0.395,15.146C0.477,14.482 0.741,13.85 1.162,13.313C0.318,13.14 -0.101,12.763 -0.116,12.114C-0.157,10.436 -0.183,8.758 -0.198,7.078C-0.206,6.921 -0.181,6.763 -0.121,6.615C-0.062,6.467 0.029,6.332 0.146,6.22C0.263,6.107 0.403,6.019 0.558,5.96C0.713,5.902 0.879,5.875 1.046,5.88C2.892,5.864 4.739,5.864 6.585,5.88C6.948,5.88 7.299,6.004 7.572,6.23C7.846,6.456 8.024,6.768 8.074,7.108C8.41,8.767 8.742,10.427 9.069,12.089C9.114,12.235 9.12,12.389 9.088,12.537C9.055,12.686 8.985,12.825 8.884,12.942C8.782,13.06 8.652,13.152 8.504,13.211C8.356,13.27 8.196,13.294 8.036,13.281L8.036,13.281Z" fill="#E73C34"/>
<path d="M22.458,14.862C22.736,14.729 22.849,14.603 22.73,14.308C22.646,14.076 22.581,13.838 22.538,13.597C22.457,13.218 22.592,12.959 22.892,12.885C23.221,12.801 23.483,12.972 23.592,13.353C23.691,13.696 23.78,14.044 23.882,14.426C24.247,14.407 24.613,14.407 24.979,14.426C25.882,14.532 26.73,14.898 27.409,15.473C28.087,16.049 28.563,16.808 28.772,17.648C28.98,18.49 28.913,19.371 28.578,20.175C28.244,20.979 27.659,21.668 26.901,22.149C26.143,22.624 25.25,22.867 24.341,22.847C23.433,22.827 22.552,22.544 21.818,22.036C21.206,21.607 20.72,21.037 20.406,20.379C20.093,19.722 19.961,18.999 20.026,18.28C20.09,17.561 20.347,16.869 20.773,16.271C21.198,15.673 21.779,15.188 22.458,14.862L22.458,14.862ZM21.943,19.515C22.176,20.106 22.633,20.594 23.226,20.884C23.818,21.173 24.503,21.243 25.147,21.08C25.805,20.907 26.369,20.503 26.725,19.95C27.081,19.397 27.201,18.737 27.062,18.103C26.935,17.514 26.587,16.988 26.081,16.624C25.576,16.26 24.948,16.082 24.315,16.124C24.433,16.559 24.54,16.988 24.675,17.405C24.698,17.477 24.825,17.527 24.921,17.573C25.077,17.636 25.217,17.73 25.332,17.849C25.447,17.968 25.534,18.108 25.587,18.261C25.641,18.413 25.659,18.575 25.642,18.735C25.624,18.895 25.571,19.05 25.486,19.189C25.405,19.322 25.297,19.438 25.168,19.531C25.038,19.623 24.89,19.689 24.733,19.726C24.576,19.763 24.412,19.769 24.252,19.745C24.092,19.72 23.939,19.665 23.802,19.583C23.661,19.495 23.541,19.38 23.449,19.245C23.357,19.11 23.295,18.959 23.268,18.801C23.241,18.643 23.248,18.481 23.291,18.325C23.333,18.17 23.408,18.025 23.513,17.898C23.59,17.776 23.619,17.632 23.595,17.491C23.522,17.117 23.407,16.751 23.295,16.353C22.694,16.625 22.222,17.1 21.971,17.686C21.721,18.271 21.711,18.923 21.943,19.515L21.943,19.515Z" fill="#E73C34"/>
<path d="M6.393,14.414C6.978,14.407 7.559,14.511 8.102,14.719C8.645,14.927 9.138,15.236 9.553,15.627C9.969,16.018 10.297,16.483 10.52,16.996C10.743,17.509 10.856,18.059 10.852,18.614C10.857,19.168 10.747,19.718 10.526,20.232C10.306,20.745 9.981,21.213 9.57,21.607C9.158,22.001 8.668,22.314 8.129,22.528C7.589,22.742 7.01,22.853 6.424,22.854C5.839,22.855 5.259,22.746 4.719,22.534C4.178,22.321 3.687,22.01 3.274,21.617C2.86,21.224 2.533,20.758 2.311,20.245C2.089,19.732 1.976,19.182 1.979,18.628C1.976,17.515 2.439,16.446 3.266,15.657C4.094,14.867 5.218,14.42 6.393,14.414ZM6.426,21.171C7.135,21.163 7.812,20.892 8.312,20.416C8.812,19.94 9.095,19.297 9.099,18.625C9.094,17.952 8.81,17.308 8.307,16.832C7.805,16.356 7.126,16.087 6.415,16.082C6.064,16.083 5.717,16.151 5.393,16.28C5.069,16.409 4.776,16.598 4.53,16.836C4.284,17.073 4.09,17.354 3.959,17.663C3.829,17.972 3.764,18.302 3.769,18.635C3.764,18.967 3.829,19.297 3.961,19.605C4.092,19.914 4.287,20.194 4.534,20.43C4.781,20.666 5.075,20.853 5.399,20.98C5.723,21.108 6.071,21.172 6.421,21.171L6.426,21.171Z" fill="#E73C34"/>
<path d="M21.992,2.885C21.111,2.725 20.241,2.514 19.386,2.255C18.824,2.097 18.524,2.265 18.604,2.814C18.688,3.28 18.798,3.742 18.933,4.197C18.969,4.375 19.058,4.539 19.189,4.671C19.32,4.802 19.488,4.895 19.673,4.939C20.438,5.132 21.204,5.32 21.976,5.484C22.336,5.559 22.426,5.675 22.196,5.962C22.054,6.175 21.843,6.341 21.595,6.434C21.347,6.527 21.075,6.544 20.816,6.481C19.875,6.272 18.951,5.998 18.051,5.663C17.46,5.427 16.962,5.023 16.626,4.506C16.289,3.988 16.132,3.385 16.175,2.779C16.241,2.428 16.339,2.083 16.468,1.749C16.716,1.199 17.138,0.736 17.677,0.424C18.215,0.111 18.842,-0.034 19.472,0.007C20.149,0.041 20.801,0.264 21.346,0.648C21.89,1.031 22.304,1.558 22.534,2.163C22.758,2.743 22.622,2.981 21.992,2.885Z" fill="#E73C34"/>
<path d="M26.053,13.528C25.678,13.432 25.316,13.294 24.975,13.119C24.691,12.979 24.455,12.768 24.291,12.507C24.127,12.247 24.043,11.949 24.048,11.647C24.045,11.189 24.191,10.742 24.467,10.366C24.742,9.99 25.134,9.704 25.588,9.548C25.688,9.474 25.805,9.423 25.93,9.399C26.055,9.375 26.184,9.378 26.307,9.409C26.43,9.44 26.544,9.497 26.64,9.576C26.736,9.656 26.811,9.755 26.86,9.866C27.257,10.477 27.449,11.187 27.409,11.903C27.323,12.306 27.207,12.703 27.064,13.091C27.037,13.188 26.988,13.279 26.919,13.356C26.851,13.433 26.765,13.495 26.668,13.537C26.571,13.579 26.466,13.6 26.36,13.598C26.253,13.597 26.148,13.573 26.053,13.528L26.053,13.528Z" fill="#E73C34"/>
<path d="M19.224,2.508C19.287,2.49 19.476,2.651 19.487,2.746C19.497,2.841 19.379,2.975 19.255,3.201C19.086,2.992 18.924,2.878 18.934,2.774C18.945,2.67 19.102,2.537 19.224,2.508Z" fill="#E73C34"/>
<path d="M6.353,17.485C6.518,17.475 6.684,17.497 6.839,17.55C6.995,17.602 7.137,17.684 7.259,17.791C7.38,17.897 7.477,18.026 7.544,18.169C7.611,18.312 7.647,18.466 7.65,18.623C7.649,18.926 7.526,19.218 7.305,19.438C7.085,19.658 6.784,19.79 6.464,19.807C6.302,19.811 6.141,19.785 5.99,19.73C5.838,19.675 5.7,19.593 5.582,19.487C5.465,19.381 5.37,19.254 5.305,19.114C5.239,18.973 5.203,18.822 5.2,18.669C5.192,18.519 5.216,18.369 5.27,18.228C5.324,18.087 5.407,17.957 5.514,17.847C5.622,17.737 5.751,17.648 5.895,17.586C6.039,17.524 6.195,17.489 6.353,17.485L6.353,17.485Z" fill="#E73C34"/>
</svg>
