<svg width="46" height="56" viewBox="0 0 46 56" fill="none" xmlns="http://www.w3.org/2000/svg" xmlns:xlink="http://www.w3.org/1999/xlink">
<path d="M8,4.9L38,4.9L38,0.9L8,0.9L8,4.9ZM38,4.9C40.209,4.9 42,6.691 42,8.9L46,8.9C46,4.482 42.418,0.9 38,0.9L38,4.9ZM42,8.9L42,47.9L46,47.9L46,8.9L42,8.9ZM42,47.9C42,50.11 40.209,51.9 38,51.9L38,55.9C42.418,55.9 46,52.319 46,47.9L42,47.9ZM38,51.9L8,51.9L8,55.9L38,55.9L38,51.9ZM8,51.9C5.791,51.9 4,50.11 4,47.9L0,47.9C0,52.319 3.582,55.9 8,55.9L8,51.9ZM4,47.9L4,8.9L0,8.9L0,47.9L4,47.9ZM4,8.9C4,6.691 5.791,4.9 8,4.9L8,0.9C3.582,0.9 0,4.482 0,8.9L4,8.9Z" fill="#E73C34"/>
<path d="M13.999,15.901C12.894,15.901 11.999,16.796 11.999,17.901C11.999,19.005 12.894,19.901 13.999,19.901L13.999,15.901ZM31.999,19.901C33.104,19.901 33.999,19.005 33.999,17.901C33.999,16.796 33.104,15.901 31.999,15.901L31.999,19.901ZM13.999,27.901C12.894,27.901 11.999,28.796 11.999,29.901C11.999,31.005 12.894,31.901 13.999,31.901L13.999,27.901ZM31.999,31.901C33.104,31.901 33.999,31.005 33.999,29.901C33.999,28.796 33.104,27.901 31.999,27.901L31.999,31.901ZM13.999,39.901C12.894,39.901 11.999,40.796 11.999,41.901C11.999,43.005 12.894,43.901 13.999,43.901L13.999,39.901ZM25.999,43.901C27.104,43.901 27.999,43.005 27.999,41.901C27.999,40.796 27.104,39.901 25.999,39.901L25.999,43.901ZM13.999,19.901L31.999,19.901L31.999,15.901L13.999,15.901L13.999,19.901ZM13.999,31.901L31.999,31.901L31.999,27.901L13.999,27.901L13.999,31.901ZM13.999,43.901L25.999,43.901L25.999,39.901L13.999,39.901L13.999,43.901Z" fill="#E73C34"/>
</svg>
