<svg width="34" height="34" viewBox="0 0 34 34" fill="none" xmlns="http://www.w3.org/2000/svg" xmlns:xlink="http://www.w3.org/1999/xlink">
<path d="M17.569,4.482C17.569,3.93 17.121,3.482 16.569,3.482C16.017,3.482 15.569,3.93 15.569,4.482L17.569,4.482ZM15.569,28.198C15.569,28.75 16.017,29.198 16.569,29.198C17.121,29.198 17.569,28.75 17.569,28.198L15.569,28.198ZM15.569,4.482L15.569,28.198L17.569,28.198L17.569,4.482L15.569,4.482Z" transform="rotate(-90 16.569 16.34)" fill="#E73C34"/>
<path d="M4.714,15.341C4.162,15.341 3.714,15.788 3.714,16.341C3.714,16.893 4.162,17.341 4.714,17.341L4.714,15.341ZM28.43,17.341C28.982,17.341 29.43,16.893 29.43,16.341C29.43,15.788 28.982,15.341 28.43,15.341L28.43,17.341ZM4.714,17.341L28.43,17.341L28.43,15.341L4.714,15.341L4.714,17.341Z" transform="rotate(-90 16.572 16.341)" fill="#E73C34"/>
</svg>
