<svg width="58" height="58" viewBox="0 0 58 58" fill="none" xmlns="http://www.w3.org/2000/svg" xmlns:xlink="http://www.w3.org/1999/xlink">
<g filter="url(#filter234_6403)">
<path d="M28.411,56.71C44.02,56.71 56.673,44.057 56.673,28.448C56.673,12.84 44.02,0.187 28.411,0.187C12.803,0.187 0.149,12.84 0.149,28.448C0.149,44.057 12.803,56.71 28.411,56.71Z" fill="#E73C34"/>
</g>
<path d="M34.578,16.336C33.135,16.336 31.718,16.721 30.472,17.45C29.227,18.179 28.197,19.226 27.491,20.484C26.783,19.226 25.754,18.178 24.508,17.449C23.262,16.72 21.845,16.336 20.401,16.336C18.19,16.455 16.11,17.423 14.594,19.036C13.078,20.65 12.243,22.786 12.262,25C12.262,36.291 27.491,44.168 27.491,44.168C27.491,44.168 42.72,36.295 42.72,25C42.738,22.786 41.903,20.649 40.386,19.036C38.87,17.422 36.789,16.455 34.578,16.336L34.578,16.336Z" fill="#FFFFFF"/>
<defs>
<filter id="filter234_6403" x="-14.850586" y="-14.813477" width="58.261683" height="58.261683" filterUnits="userSpaceOnUse" color-interpolation-filters="sRGB">
<feFlood flood-opacity="0" result="BackgroundImageFix"/>
<feColorMatrix in="SourceAlpha" type="matrix" values="0 0 0 0 0 0 0 0 0 0 0 0 0 0 0 0 0 0 127 0" result="hardAlpha"/>
<feMorphology radius="0" operator="dilate" in="SourceAlpha" result="0dropshadow"/>
<feOffset dx="0" dy="7"/>
<feGaussianBlur stdDeviation="7.5"/>
<feComposite in2="hardAlpha" operator="out"/>
<feColorMatrix type="matrix" values="0 0 0 0 0.996078 0 0 0 0 0.447059 0 0 0 0 0.298039 0 0 0 0.4 0"/>
<feBlend mode="normal" in2="BackgroundImageFix" result="0dropshadow"/>
<feBlend mode="normal" in="SourceGraphic" in2="0dropshadow" result="shape"/>
</filter>
</defs>
</svg>
