<svg width="22" height="30" viewBox="0 0 22 30" fill="none" xmlns="http://www.w3.org/2000/svg" xmlns:xlink="http://www.w3.org/1999/xlink">
<path d="M9.24,28.176C8.614,28.176 7.99,28.113 7.378,27.988C6.196,27.746 5.073,27.274 4.074,26.598C2.589,25.595 1.426,24.183 0.726,22.532C0.49,21.974 0.31,21.393 0.188,20.798C-0.063,19.569 -0.063,18.303 0.188,17.074C0.43,15.892 0.902,14.77 1.578,13.77C2.581,12.285 3.993,11.122 5.643,10.423C6.202,10.187 6.783,10.006 7.378,9.884C8.606,9.634 9.873,9.634 11.102,9.884C12.284,10.126 13.406,10.599 14.405,11.274C15.891,12.277 17.054,13.689 17.753,15.34C17.989,15.899 18.17,16.48 18.292,17.074C18.538,18.283 18.542,19.529 18.303,20.74C18.098,21.781 17.714,22.779 17.166,23.688C16.346,25.058 15.184,26.191 13.795,26.978C12.406,27.764 10.836,28.177 9.24,28.176L9.24,28.176ZM12.422,14.608C12.273,14.608 12.124,14.637 11.986,14.694C11.848,14.752 11.722,14.836 11.616,14.942L8.387,18.167C8.173,18.381 8.053,18.672 8.053,18.975C8.053,19.278 8.174,19.568 8.388,19.782C8.603,19.996 8.893,20.116 9.196,20.116C9.499,20.115 9.789,19.995 10.003,19.781L11.616,18.167L13.23,16.555C13.391,16.396 13.501,16.193 13.546,15.971C13.591,15.749 13.569,15.519 13.483,15.31C13.396,15.101 13.249,14.922 13.06,14.797C12.872,14.672 12.65,14.606 12.424,14.608L12.422,14.608Z" fill="#E73C34"/>
<path d="M9.55,0.375C9.871,0.375 10.178,0.503 10.404,0.729C10.631,0.956 10.758,1.263 10.758,1.584L10.758,8.833C10.758,9.154 10.631,9.461 10.404,9.688C10.178,9.914 9.871,10.041 9.55,10.041C9.23,10.041 8.922,9.914 8.696,9.688C8.469,9.461 8.342,9.154 8.342,8.833L8.342,1.584C8.342,1.263 8.469,0.956 8.696,0.729C8.922,0.503 9.23,0.375 9.55,0.375L9.55,0.375Z" transform="rotate(-180 9.55 5.208)" fill="#E73C34"/>
<path d="M18.798,6.769C19.129,6.769 19.447,6.901 19.681,7.135C19.915,7.369 20.046,7.686 20.046,8.017L20.046,10.272C20.046,10.603 19.915,10.92 19.681,11.154C19.447,11.388 19.129,11.52 18.798,11.52C18.467,11.52 18.15,11.388 17.916,11.154C17.682,10.92 17.55,10.603 17.55,10.272L17.55,8.017C17.55,7.686 17.682,7.369 17.916,7.135C18.15,6.901 18.467,6.769 18.798,6.769L18.798,6.769Z" transform="rotate(-90 18.798 9.144)" fill="#E73C34"/>
</svg>
