<svg width="772" height="238" viewBox="0 0 772 238" fill="none" xmlns="http://www.w3.org/2000/svg" xmlns:xlink="http://www.w3.org/1999/xlink">
<line x1="0" y1="235" x2="772" y2="235" stroke="#CCCCCC" stroke-width="1" stroke-miterlimit="3.999327"/>
<line x1="0" y1="176" x2="772" y2="176" stroke="#CCCCCC" stroke-width="1" stroke-miterlimit="3.999327"/>
<line x1="0" y1="117" x2="772" y2="117" stroke="#CCCCCC" stroke-width="1" stroke-miterlimit="3.999327"/>
<line x1="0" y1="58" x2="772" y2="58" stroke="#CCCCCC" stroke-width="1" stroke-miterlimit="3.999327"/>
<line x1="0" y1="-1" x2="772" y2="-1" stroke="#CCCCCC" stroke-width="1" stroke-miterlimit="3.999327"/>
<line x1="37.6" y1="0" x2="37.6" y2="236" stroke="#CCCCCC" stroke-width="1" stroke-miterlimit="3.999327"/>
<line x1="114.8" y1="0" x2="114.8" y2="236" stroke="#CCCCCC" stroke-width="1" stroke-miterlimit="3.999327"/>
<line x1="192" y1="0" x2="192" y2="236" stroke="#CCCCCC" stroke-width="1" stroke-miterlimit="3.999327"/>
<line x1="269.2" y1="0" x2="269.2" y2="236" stroke="#CCCCCC" stroke-width="1" stroke-miterlimit="3.999327"/>
<line x1="346.4" y1="0" x2="346.4" y2="236" stroke="#CCCCCC" stroke-width="1" stroke-miterlimit="3.999327"/>
<line x1="423.6" y1="0" x2="423.6" y2="236" stroke="#CCCCCC" stroke-width="1" stroke-miterlimit="3.999327"/>
<line x1="500.8" y1="0" x2="500.8" y2="236" stroke="#CCCCCC" stroke-width="1" stroke-miterlimit="3.999327"/>
<line x1="578" y1="0" x2="578" y2="236" stroke="#CCCCCC" stroke-width="1" stroke-miterlimit="3.999327"/>
<line x1="655.2" y1="0" x2="655.2" y2="236" stroke="#CCCCCC" stroke-width="1" stroke-miterlimit="3.999327"/>
<line x1="732.4" y1="0" x2="732.4" y2="236" stroke="#CCCCCC" stroke-width="1" stroke-miterlimit="3.999327"/>
<line x1="-1" y1="0" x2="-1" y2="236" stroke="#CCCCCC" stroke-width="1" stroke-miterlimit="3.999327"/>
<rect  x="7.72" y="220.424" width="7.746" height="15.576" fill="#17F46F"/>
<rect  x="84.92" y="219.008" width="7.746" height="16.992" fill="#17F46F"/>
<rect  x="162.12" y="59.473" width="7.746" height="176.528" fill="#17F46F"/>
<rect  x="239.32" y="106.672" width="7.746" height="129.328" fill="#17F46F"/>
<rect  x="316.52" y="109.27" width="7.746" height="126.732" fill="#17F46F"/>
<rect  x="393.72" y="229.393" width="7.746" height="6.608" fill="#17F46F"/>
<rect  x="470.92" y="215.469" width="7.746" height="20.532" fill="#17F46F"/>
<rect  x="548.12" y="218.773" width="7.746" height="17.228" fill="#17F46F"/>
<rect  x="625.32" y="181.957" width="7.746" height="54.044" fill="#17F46F"/>
<rect  x="702.52" y="211.457" width="7.746" height="24.544" fill="#17F46F"/>
<rect  x="20.63" y="186.912" width="7.746" height="49.088" fill="#5A7776"/>
<rect  x="97.83" y="104.076" width="7.746" height="131.924" fill="#5A7776"/>
<rect  x="175.03" y="227.268" width="7.746" height="8.732" fill="#5A7776"/>
<rect  x="252.23" y="175.113" width="7.746" height="60.888" fill="#5A7776"/>
<rect  x="329.43" y="110.449" width="7.746" height="125.552" fill="#5A7776"/>
<rect  x="406.63" y="181.957" width="7.746" height="54.044" fill="#5A7776"/>
<rect  x="483.83" y="7.316" width="7.746" height="228.684" fill="#5A7776"/>
<rect  x="561.03" y="170.393" width="7.746" height="65.608" fill="#5A7776"/>
<rect  x="638.23" y="180.068" width="7.746" height="55.932" fill="#5A7776"/>
<rect  x="715.43" y="14.396" width="7.746" height="221.604" fill="#5A7776"/>
<rect  x="33.539" y="54.752" width="7.746" height="181.248" fill="#06A465"/>
<rect  x="110.739" y="180.775" width="7.746" height="55.224" fill="#06A465"/>
<rect  x="187.939" y="100.771" width="7.746" height="135.228" fill="#06A465"/>
<rect  x="265.139" y="139.711" width="7.746" height="96.288" fill="#06A465"/>
<rect  x="342.339" y="34.928" width="7.746" height="201.072" fill="#06A465"/>
<rect  x="419.539" y="199.184" width="7.746" height="36.816" fill="#06A465"/>
<rect  x="496.739" y="45.783" width="7.746" height="190.216" fill="#06A465"/>
<rect  x="573.939" y="161.66" width="7.746" height="74.34" fill="#06A465"/>
<rect  x="651.139" y="66.316" width="7.746" height="169.684" fill="#06A465"/>
<rect  x="728.339" y="130.98" width="7.746" height="105.02" fill="#06A465"/>
<rect  x="46.449" y="177.473" width="7.746" height="58.528" fill="#6F09A4"/>
<rect  x="123.649" y="24.309" width="7.746" height="211.692" fill="#6F09A4"/>
<rect  x="200.849" y="93.693" width="7.746" height="142.308" fill="#6F09A4"/>
<rect  x="278.049" y="106.672" width="7.746" height="129.328" fill="#6F09A4"/>
<rect  x="355.249" y="111.865" width="7.746" height="124.136" fill="#6F09A4"/>
<rect  x="432.449" y="152.457" width="7.746" height="83.544" fill="#6F09A4"/>
<rect  x="509.649" y="101.244" width="7.746" height="134.756" fill="#6F09A4"/>
<rect  x="586.849" y="54.752" width="7.746" height="181.248" fill="#6F09A4"/>
<rect  x="664.049" y="208.152" width="7.746" height="27.848" fill="#6F09A4"/>
<rect  x="741.249" y="144.668" width="7.746" height="91.332" fill="#6F09A4"/>
<rect  x="59.359" y="0" width="7.746" height="236" fill="#5AF2CF"/>
<rect  x="136.559" y="123.428" width="7.746" height="112.572" fill="#5AF2CF"/>
<rect  x="213.759" y="117.057" width="7.746" height="118.944" fill="#5AF2CF"/>
<rect  x="290.959" y="133.104" width="7.746" height="102.896" fill="#5AF2CF"/>
<rect  x="368.159" y="225.381" width="7.746" height="10.62" fill="#5AF2CF"/>
<rect  x="445.359" y="81.893" width="7.746" height="154.108" fill="#5AF2CF"/>
<rect  x="522.559" y="157.412" width="7.746" height="78.588" fill="#5AF2CF"/>
<rect  x="599.759" y="110.447" width="7.746" height="125.552" fill="#5AF2CF"/>
<rect  x="676.959" y="7.316" width="7.746" height="228.684" fill="#5AF2CF"/>
<rect  x="754.159" y="130.98" width="7.746" height="105.02" fill="#5AF2CF"/>
</svg>
