<svg width="50" height="54" viewBox="0 0 50 54" fill="none" xmlns="http://www.w3.org/2000/svg" xmlns:xlink="http://www.w3.org/1999/xlink">
<path d="M48.316,26.4C48.316,40.76 37.288,52.4 23.684,52.4C10.081,52.4 -0.947,40.76 -0.947,26.4C-0.947,12.041 10.081,0.4 23.684,0.4C37.288,0.4 48.316,12.041 48.316,26.4Z" fill="#FFFFFF"/>
<path d="M7.851,26.36C7.912,21.831 9.387,17.95 12.288,14.735C12.371,14.644 12.448,14.54 12.532,14.442C13.541,13.238 15.233,13.018 16.447,13.941C17.69,14.882 18.117,16.636 17.418,18.097C17.251,18.451 17.002,18.775 16.741,19.05C14.19,21.776 13.192,25.046 14.09,28.865C14.95,32.514 17.135,34.904 20.385,35.991C23.541,37.043 26.486,36.383 29.049,34.109C31.245,32.166 32.371,29.562 32.41,26.451C32.443,23.994 31.666,21.825 30.219,19.955C30.036,19.716 29.786,19.539 29.592,19.313C28.777,18.384 28.555,17.278 28.904,16.068C29.265,14.845 30.075,14.112 31.217,13.868C32.11,13.678 32.914,13.935 33.635,14.546C34.9,15.609 35.76,17.027 36.519,18.525C37.839,21.128 38.433,23.939 38.339,26.916C38.228,30.546 37.135,33.785 35.077,36.621C33.131,39.298 30.679,41.198 27.701,42.158C22.67,43.784 17.978,42.928 13.763,39.444C11.023,37.183 9.226,34.176 8.339,30.534C8,29.171 7.856,27.778 7.851,26.36Z" transform="rotate(360 23.099 28.161)" fill="#E73C34" stroke="#FFFFFF" stroke-width="0.8" stroke-miterlimit="3.999327"/>
<path d="M20.109,16.41C20.109,14.161 20.104,13.376 20.109,11.127C20.115,9.843 20.658,8.872 21.668,8.26C22.655,7.661 23.687,7.686 24.652,8.328C25.578,8.939 26.094,9.874 26.094,11.078C26.105,15.6 26.105,17.19 26.094,21.712C26.088,23.393 24.929,24.786 23.42,24.945C21.856,25.116 20.459,24.004 20.148,22.33C20.104,22.091 20.098,21.847 20.098,21.602C20.109,19.384 20.109,18.629 20.109,16.41Z" transform="rotate(360 23.1 16.395)" fill="#E73C34" stroke="#FFFFFF" stroke-width="0.8" stroke-miterlimit="3.999327"/>
</svg>
