<svg width="66" height="56" viewBox="0 0 66 56" fill="none" xmlns="http://www.w3.org/2000/svg" xmlns:xlink="http://www.w3.org/1999/xlink">
<g filter="url(#filter234_8392)">
<path d="M32.49,56C50.788,56 65.621,43.464 65.621,28C65.621,12.536 50.788,0 32.49,0C14.192,0 -0.642,12.536 -0.642,28C-0.642,43.464 14.192,56 32.49,56Z" fill="#E73C34"/>
</g>
<path d="M38.621,16C37.153,16 35.712,16.331 34.445,16.957C33.178,17.584 32.131,18.484 31.412,19.566C30.693,18.484 29.646,17.583 28.379,16.957C27.112,16.33 25.67,16 24.202,16C21.953,16.103 19.838,16.934 18.296,18.321C16.755,19.708 15.905,21.544 15.924,23.447C15.924,33.152 31.412,39.922 31.412,39.922C31.412,39.922 46.901,33.155 46.901,23.447C46.92,21.544 46.07,19.708 44.528,18.32C42.986,16.933 40.87,16.102 38.621,16L38.621,16Z" fill="#FFFFFF"/>
<defs>
<filter id="filter234_8392" x="-15.641602" y="-15" width="63.131268" height="58" filterUnits="userSpaceOnUse" color-interpolation-filters="sRGB">
<feFlood flood-opacity="0" result="BackgroundImageFix"/>
<feColorMatrix in="SourceAlpha" type="matrix" values="0 0 0 0 0 0 0 0 0 0 0 0 0 0 0 0 0 0 127 0" result="hardAlpha"/>
<feMorphology radius="0" operator="dilate" in="SourceAlpha" result="0dropshadow"/>
<feOffset dx="0" dy="7"/>
<feGaussianBlur stdDeviation="7.5"/>
<feComposite in2="hardAlpha" operator="out"/>
<feColorMatrix type="matrix" values="0 0 0 0 0.996078 0 0 0 0 0.447059 0 0 0 0 0.298039 0 0 0 0.4 0"/>
<feBlend mode="normal" in2="BackgroundImageFix" result="0dropshadow"/>
<feBlend mode="normal" in="SourceGraphic" in2="0dropshadow" result="shape"/>
</filter>
</defs>
</svg>
