<svg width="34" height="34" viewBox="0 0 34 34" fill="none" xmlns="http://www.w3.org/2000/svg" xmlns:xlink="http://www.w3.org/1999/xlink">
<path d="M12.356,8.261C12.942,8.846 13.892,8.846 14.477,8.261C15.063,7.675 15.063,6.725 14.477,6.139L12.356,8.261ZM7.217,1L8.277,-0.061C7.691,-0.646 6.742,-0.646 6.156,-0.061L7.217,1ZM-0.044,6.139C-0.63,6.725 -0.63,7.675 -0.044,8.261C0.542,8.846 1.491,8.846 2.077,8.261L-0.044,6.139ZM14.477,6.139L8.277,-0.061L6.156,2.061L12.356,8.261L14.477,6.139ZM6.156,-0.061L-0.044,6.139L2.077,8.261L8.277,2.061L6.156,-0.061Z" fill="#FFFFFF"/>
<line x1="5.717" y1="1" x2="5.717" y2="31" stroke="#FFFFFF" stroke-width="1.5" stroke-miterlimit="3.999327" stroke-linecap="round" stroke-linejoin="round"/>
<path d="M19.644,23.739C19.058,23.153 18.108,23.153 17.523,23.739C16.937,24.325 16.937,25.275 17.523,25.86L19.644,23.739ZM24.783,31L23.723,32.06C24.308,32.646 25.258,32.646 25.844,32.06L24.783,31ZM32.044,25.86C32.63,25.275 32.63,24.325 32.044,23.739C31.458,23.153 30.508,23.153 29.923,23.739L32.044,25.86ZM17.523,25.86L23.723,32.06L25.844,29.939L19.644,23.739L17.523,25.86ZM25.844,32.06L32.044,25.86L29.923,23.739L23.723,29.939L25.844,32.06Z" fill="#FFFFFF"/>
<line x1="23.283" y1="1" x2="23.283" y2="31" stroke="#FFFFFF" stroke-width="1.5" stroke-miterlimit="3.999327" stroke-linecap="round" stroke-linejoin="round"/>
</svg>
