<svg width="28" height="24" viewBox="0 0 28 24" fill="none" xmlns="http://www.w3.org/2000/svg" xmlns:xlink="http://www.w3.org/1999/xlink">
<path d="M9.99,11.992C10.002,10.646 10.364,9.326 11.04,8.161C11.716,6.997 12.682,6.027 13.845,5.349C14.076,5.166 14.351,5.046 14.643,5.001C14.934,4.956 15.233,4.987 15.508,5.091C15.784,5.196 16.028,5.37 16.217,5.597C16.405,5.824 16.532,6.096 16.584,6.386C16.869,7.221 17.213,8.037 17.489,8.875C17.563,9.126 17.702,9.354 17.892,9.535C18.081,9.715 18.316,9.843 18.571,9.903C19.416,10.147 20.261,10.387 21.102,10.641C21.213,10.661 21.318,10.704 21.412,10.766C21.506,10.828 21.586,10.909 21.648,11.002C21.711,11.096 21.754,11.201 21.775,11.311C21.797,11.422 21.796,11.535 21.772,11.645C21.76,11.764 21.721,11.879 21.661,11.981C21.6,12.084 21.517,12.173 21.419,12.241C21.321,12.309 21.21,12.356 21.092,12.377C20.975,12.398 20.854,12.394 20.738,12.365C19.891,12.247 19.047,12.115 18.208,11.953C17.578,11.858 16.981,11.611 16.469,11.234C15.957,10.856 15.544,10.359 15.268,9.785C15.126,9.501 14.952,9.229 14.766,8.905C14.111,9.542 13.672,10.368 13.508,11.267C13.404,11.679 13.508,11.876 13.918,12.017C15.136,12.434 16.345,12.879 17.549,13.337C17.789,13.395 18.01,13.512 18.193,13.678C18.375,13.843 18.513,14.052 18.594,14.286C18.674,14.519 18.695,14.768 18.654,15.011C18.612,15.254 18.51,15.483 18.357,15.677C17.754,16.673 17.108,17.643 16.469,18.618C16.017,19.308 16.008,19.302 16.469,20.002C16.497,20.045 16.547,20.089 16.547,20.132C16.547,20.361 16.617,20.663 16.5,20.799C16.414,20.884 16.31,20.948 16.196,20.985C16.081,21.023 15.959,21.033 15.84,21.016C15.226,20.842 14.625,20.625 14.041,20.367C13.928,20.33 13.824,20.268 13.738,20.185C13.652,20.103 13.585,20.002 13.543,19.89C13.501,19.778 13.484,19.658 13.495,19.539C13.505,19.421 13.542,19.305 13.603,19.203C14.05,18.128 14.498,17.053 14.948,15.978C14.985,15.889 15.012,15.796 15.05,15.694C14.098,15.409 13.168,15.133 12.247,14.84C11.842,14.727 11.452,14.567 11.084,14.362C10.697,14.11 10.389,13.754 10.195,13.335C10.002,12.916 9.931,12.45 9.99,11.992L9.99,11.992Z" fill="#E73C34"/>
<path d="M7.802,13.281C6.973,13.291 6.142,13.273 5.312,13.29C4.968,13.297 4.626,13.339 4.29,13.414C3.585,13.563 2.934,13.904 2.411,14.4C1.887,14.896 1.512,15.528 1.325,16.224L1.026,17.119L0.847,17.098C0.583,16.483 0.485,15.81 0.563,15.146C0.64,14.482 0.891,13.85 1.289,13.313C0.49,13.141 0.093,12.764 0.078,12.115C0.04,10.436 0.015,8.758 0.002,7.079C-0.007,6.921 0.018,6.763 0.074,6.615C0.13,6.467 0.216,6.333 0.327,6.22C0.437,6.107 0.571,6.019 0.717,5.96C0.864,5.902 1.022,5.875 1.18,5.881C2.929,5.864 4.678,5.864 6.428,5.881C6.772,5.88 7.104,6.005 7.363,6.23C7.622,6.456 7.791,6.768 7.838,7.109C8.157,8.767 8.471,10.427 8.781,12.089C8.823,12.235 8.829,12.389 8.799,12.538C8.768,12.686 8.702,12.825 8.605,12.943C8.509,13.06 8.386,13.152 8.246,13.211C8.106,13.27 7.954,13.294 7.802,13.281L7.802,13.281Z" fill="#E73C34"/>
<path d="M21.466,14.862C21.73,14.73 21.836,14.603 21.724,14.308C21.644,14.077 21.583,13.839 21.542,13.597C21.465,13.218 21.593,12.959 21.878,12.885C22.189,12.802 22.437,12.972 22.541,13.354C22.635,13.697 22.718,14.044 22.815,14.427C23.161,14.407 23.508,14.407 23.854,14.427C24.71,14.532 25.514,14.898 26.156,15.474C26.799,16.05 27.25,16.809 27.449,17.648C27.645,18.49 27.581,19.371 27.265,20.175C26.948,20.98 26.393,21.668 25.675,22.149C24.957,22.624 24.111,22.868 23.25,22.848C22.389,22.828 21.555,22.545 20.86,22.037C20.28,21.607 19.82,21.037 19.522,20.379C19.225,19.722 19.101,18.999 19.162,18.28C19.222,17.561 19.466,16.87 19.869,16.271C20.273,15.673 20.822,15.188 21.466,14.862L21.466,14.862ZM20.978,19.515C21.199,20.107 21.632,20.595 22.193,20.884C22.755,21.173 23.403,21.243 24.013,21.08C24.637,20.907 25.172,20.503 25.509,19.95C25.846,19.398 25.96,18.737 25.828,18.104C25.708,17.514 25.378,16.988 24.899,16.624C24.42,16.26 23.825,16.082 23.225,16.124C23.338,16.56 23.439,16.988 23.567,17.405C23.588,17.477 23.709,17.527 23.8,17.573C23.948,17.636 24.08,17.731 24.189,17.849C24.298,17.968 24.38,18.108 24.431,18.261C24.481,18.414 24.499,18.575 24.482,18.735C24.466,18.895 24.416,19.05 24.335,19.189C24.258,19.322 24.156,19.439 24.033,19.531C23.911,19.623 23.771,19.69 23.622,19.727C23.472,19.763 23.318,19.77 23.166,19.745C23.015,19.721 22.87,19.666 22.74,19.583C22.606,19.495 22.492,19.38 22.405,19.245C22.318,19.111 22.259,18.96 22.234,18.801C22.208,18.643 22.215,18.481 22.255,18.326C22.295,18.17 22.366,18.025 22.465,17.899C22.539,17.777 22.566,17.632 22.543,17.492C22.474,17.117 22.366,16.752 22.259,16.353C21.689,16.625 21.242,17.101 21.005,17.686C20.768,18.271 20.759,18.923 20.978,19.515L20.978,19.515Z" fill="#E73C34"/>
<path d="M6.245,14.415C6.8,14.408 7.35,14.511 7.864,14.719C8.378,14.927 8.846,15.236 9.239,15.627C9.633,16.018 9.944,16.484 10.156,16.997C10.367,17.509 10.474,18.059 10.47,18.614C10.475,19.168 10.37,19.718 10.161,20.232C9.953,20.746 9.645,21.213 9.255,21.607C8.865,22.001 8.401,22.315 7.889,22.529C7.378,22.743 6.829,22.853 6.275,22.855C5.72,22.855 5.171,22.746 4.659,22.534C4.147,22.322 3.681,22.01 3.29,21.618C2.898,21.225 2.588,20.758 2.378,20.245C2.167,19.732 2.06,19.183 2.063,18.628C2.06,17.515 2.499,16.447 3.283,15.657C4.067,14.867 5.132,14.42 6.245,14.415ZM6.276,21.171C6.948,21.164 7.59,20.893 8.064,20.417C8.537,19.94 8.805,19.297 8.809,18.625C8.804,17.952 8.535,17.309 8.059,16.833C7.583,16.357 6.939,16.087 6.266,16.083C5.934,16.084 5.604,16.151 5.298,16.28C4.991,16.41 4.713,16.598 4.48,16.836C4.247,17.073 4.063,17.355 3.939,17.663C3.816,17.972 3.754,18.303 3.759,18.635C3.755,18.968 3.816,19.298 3.941,19.606C4.065,19.914 4.25,20.194 4.484,20.43C4.718,20.667 4.996,20.854 5.303,20.981C5.61,21.108 5.94,21.173 6.272,21.171L6.276,21.171Z" fill="#E73C34"/>
<path d="M21.024,2.885C20.19,2.725 19.365,2.514 18.555,2.255C18.023,2.097 17.739,2.265 17.814,2.814C17.894,3.28 17.998,3.742 18.126,4.197C18.16,4.375 18.244,4.539 18.368,4.67C18.493,4.802 18.652,4.895 18.827,4.939C19.552,5.132 20.277,5.32 21.009,5.484C21.35,5.559 21.436,5.675 21.218,5.962C21.083,6.175 20.883,6.341 20.648,6.434C20.413,6.527 20.155,6.544 19.91,6.481C19.019,6.272 18.143,5.998 17.29,5.663C16.731,5.427 16.259,5.023 15.94,4.506C15.621,3.988 15.472,3.385 15.513,2.779C15.575,2.428 15.668,2.083 15.791,1.749C16.025,1.199 16.426,0.736 16.936,0.424C17.446,0.111 18.04,-0.034 18.637,0.007C19.278,0.041 19.896,0.264 20.412,0.648C20.928,1.031 21.32,1.558 21.538,2.163C21.75,2.743 21.621,2.981 21.024,2.885Z" fill="#E73C34"/>
<path d="M24.872,13.528C24.517,13.432 24.174,13.295 23.85,13.12C23.582,12.98 23.358,12.768 23.203,12.508C23.047,12.248 22.968,11.95 22.972,11.647C22.969,11.19 23.108,10.742 23.369,10.367C23.63,9.991 24.001,9.705 24.431,9.548C24.526,9.474 24.637,9.423 24.755,9.399C24.874,9.375 24.996,9.379 25.112,9.409C25.229,9.44 25.337,9.498 25.428,9.577C25.519,9.656 25.59,9.756 25.636,9.867C26.012,10.477 26.194,11.187 26.157,11.903C26.075,12.306 25.966,12.703 25.83,13.091C25.804,13.189 25.757,13.28 25.692,13.357C25.628,13.434 25.546,13.496 25.455,13.537C25.363,13.579 25.263,13.6 25.162,13.599C25.061,13.597 24.962,13.573 24.872,13.528L24.872,13.528Z" fill="#E73C34"/>
<path d="M18.401,2.509C18.461,2.49 18.64,2.651 18.65,2.746C18.66,2.842 18.548,2.975 18.431,3.202C18.27,2.992 18.117,2.879 18.127,2.775C18.137,2.671 18.286,2.537 18.401,2.509Z" fill="#E73C34"/>
<path d="M6.208,17.485C6.364,17.475 6.521,17.498 6.668,17.55C6.815,17.603 6.951,17.685 7.065,17.791C7.18,17.898 7.272,18.026 7.336,18.169C7.4,18.312 7.434,18.467 7.436,18.623C7.435,18.927 7.318,19.218 7.11,19.439C6.901,19.659 6.616,19.791 6.313,19.807C6.159,19.812 6.006,19.786 5.863,19.731C5.72,19.676 5.589,19.593 5.477,19.487C5.366,19.381 5.276,19.255 5.214,19.114C5.152,18.974 5.118,18.822 5.115,18.669C5.107,18.519 5.13,18.369 5.181,18.228C5.232,18.087 5.311,17.958 5.413,17.848C5.514,17.737 5.637,17.648 5.774,17.586C5.91,17.524 6.058,17.49 6.208,17.485L6.208,17.485Z" fill="#E73C34"/>
</svg>
