<svg width="56" height="56" viewBox="0 0 56 56" fill="none" xmlns="http://www.w3.org/2000/svg" xmlns:xlink="http://www.w3.org/1999/xlink">
<g filter="url(#filter239_739)">
<path d="M28,56C43.464,56 56,43.464 56,28C56,12.536 43.464,0 28,0C12.536,0 0,12.536 0,28C0,43.464 12.536,56 28,56Z" fill="#E73C34"/>
</g>
<path d="M34.11,16C32.68,16 31.276,16.381 30.042,17.103C28.808,17.826 27.788,18.863 27.088,20.11C26.387,18.863 25.367,17.825 24.133,17.103C22.899,16.381 21.494,16 20.064,16C17.873,16.118 15.813,17.077 14.311,18.675C12.809,20.274 11.981,22.39 12,24.584C12,35.77 27.088,43.574 27.088,43.574C27.088,43.574 42.176,35.774 42.176,24.584C42.195,22.39 41.366,20.274 39.864,18.675C38.362,17.076 36.301,16.118 34.11,16L34.11,16Z" fill="#FFFFFF"/>
<defs>
<filter id="filter239_739" x="-15" y="-15" width="58" height="58" filterUnits="userSpaceOnUse" color-interpolation-filters="sRGB">
<feFlood flood-opacity="0" result="BackgroundImageFix"/>
<feColorMatrix in="SourceAlpha" type="matrix" values="0 0 0 0 0 0 0 0 0 0 0 0 0 0 0 0 0 0 127 0" result="hardAlpha"/>
<feMorphology radius="0" operator="dilate" in="SourceAlpha" result="0dropshadow"/>
<feOffset dx="0" dy="7"/>
<feGaussianBlur stdDeviation="7.5"/>
<feComposite in2="hardAlpha" operator="out"/>
<feColorMatrix type="matrix" values="0 0 0 0 0.996078 0 0 0 0 0.447059 0 0 0 0 0.298039 0 0 0 0.4 0"/>
<feBlend mode="normal" in2="BackgroundImageFix" result="0dropshadow"/>
<feBlend mode="normal" in="SourceGraphic" in2="0dropshadow" result="shape"/>
</filter>
</defs>
</svg>
