<svg width="64" height="76" viewBox="0 0 64 76" fill="none" xmlns="http://www.w3.org/2000/svg" xmlns:xlink="http://www.w3.org/1999/xlink">
<g filter="url(#filter234_9014)">
<circle cx="32" cy="32" r="32" fill="#332C45"/>
<path d="M31.273,56.727L40.72,70.908L21.825,70.908L31.273,56.727Z" transform="rotate(-360 31.273 66.181)" fill="#332C45"/>
<path d="M27.832,44.76L27.832,40.312C27.832,39.177 28.759,38.257 29.903,38.257L34.083,38.257C34.633,38.257 35.159,38.473 35.548,38.859C35.936,39.244 36.154,39.767 36.154,40.312L36.154,44.76C36.151,45.232 36.337,45.686 36.672,46.021C37.007,46.356 37.463,46.544 37.938,46.544L40.791,46.544C42.123,46.548 43.401,46.025 44.345,45.091C45.288,44.157 45.818,42.889 45.818,41.566L45.818,28.896C45.818,27.828 45.341,26.814 44.515,26.129L34.813,18.436C33.125,17.087 30.707,17.131 29.069,18.54L19.588,26.129C18.724,26.794 18.207,27.81 18.181,28.896L18.181,41.553C18.181,44.31 20.432,46.544 23.209,46.544L25.996,46.544C26.983,46.544 27.786,45.753 27.793,44.773L27.832,44.76Z" fill="#FFFFFF"/>
</g>
<defs>
<filter id="filter234_9014" x="-6" y="-6" width="44" height="49.818184" filterUnits="userSpaceOnUse" color-interpolation-filters="sRGB">
<feFlood flood-opacity="0" result="BackgroundImageFix"/>
<feColorMatrix in="SourceAlpha" type="matrix" values="0 0 0 0 0 0 0 0 0 0 0 0 0 0 0 0 0 0 127 0" result="hardAlpha"/>
<feMorphology radius="0" operator="dilate" in="SourceAlpha" result="0dropshadow"/>
<feOffset dx="2" dy="5"/>
<feGaussianBlur stdDeviation="3"/>
<feComposite in2="hardAlpha" operator="out"/>
<feColorMatrix type="matrix" values="0 0 0 0 0 0 0 0 0 0 0 0 0 0 0 0 0 0 0.39 0"/>
<feBlend mode="normal" in2="BackgroundImageFix" result="0dropshadow"/>
<feBlend mode="normal" in="SourceGraphic" in2="0dropshadow" result="shape"/>
</filter>
</defs>
</svg>
