<svg width="120" height="120" viewBox="0 0 120 120" fill="none" xmlns="http://www.w3.org/2000/svg" xmlns:xlink="http://www.w3.org/1999/xlink">
<g opacity="0.21" style="isolation:isolate">
<path d="M0,60L0,74C0,99.405 20.595,120 46,120L60,120L74,120C99.405,120 120,99.405 120,74L120,60L120,46C120,20.595 99.405,0 74,0L60,0L46,0C20.595,0 0,20.595 0,46L0,60Z" clip-rule="evenodd" fill-rule="evenodd" fill="#FEC53D"/>
</g>
<path d="M30,48.633L55.801,63.529C56.079,63.689 56.37,63.805 56.667,63.879L56.667,92.769L31.84,78.077C30.7,77.402 30,76.175 30,74.85L30,48.633ZM90,48.237L90,74.85C90,76.175 89.3,77.402 88.16,78.077L63.333,92.769L63.333,63.626C63.394,63.596 63.454,63.563 63.513,63.529L90,48.237L90,48.237Z" clip-rule="evenodd" fill-rule="evenodd" fill="#FEC53D"/>
<g opacity="0.499" style="isolation:isolate">
<path d="M30.811,41.403C31.126,41.005 31.523,40.669 31.987,40.422L58.237,26.44C59.339,25.853 60.661,25.853 61.763,26.44L88.013,40.422C88.371,40.612 88.689,40.855 88.96,41.139L60.18,57.756C59.991,57.865 59.816,57.99 59.657,58.128C59.498,57.99 59.324,57.865 59.134,57.756L30.811,41.403Z" clip-rule="evenodd" fill-rule="evenodd" fill="#FEC53D"/>
</g>
</svg>
