<svg width="120" height="120" viewBox="0 0 120 120" fill="none" xmlns="http://www.w3.org/2000/svg" xmlns:xlink="http://www.w3.org/1999/xlink">
<g opacity="0.3" style="isolation:isolate">
<path d="M0,60L0,74C0,99.405 20.595,120 46,120L60,120L74,120C99.405,120 120,99.405 120,74L120,60L120,46C120,20.595 99.405,0 74,0L60,0L46,0C20.595,0 0,20.595 0,46L0,60Z" clip-rule="evenodd" fill-rule="evenodd" fill="#FF9066"/>
</g>
<g opacity="0.78" style="isolation:isolate">
<path d="M57.262,47.619C57.302,47.098 57.737,46.695 58.259,46.695L59.095,46.695C59.609,46.695 60.039,47.085 60.09,47.596L61.333,60.029L70.163,65.074C70.474,65.252 70.667,65.583 70.667,65.942L70.667,66.719C70.667,67.379 70.04,67.858 69.404,67.684L56.797,64.246C56.335,64.12 56.027,63.683 56.063,63.205L57.262,47.619Z" clip-rule="evenodd" fill-rule="evenodd" fill="#FF9066"/>
</g>
<g opacity="0.901" style="isolation:isolate">
<path d="M45.444,29.969C44.915,29.34 43.895,29.581 43.705,30.38L40.438,44.076C40.282,44.728 40.799,45.345 41.467,45.307L55.557,44.508C56.378,44.462 56.795,43.498 56.266,42.867L52.663,38.573C54.993,37.777 57.463,37.361 60,37.361C72.518,37.361 82.667,47.51 82.667,60.028C82.667,72.547 72.518,82.695 60,82.695C47.482,82.695 37.333,72.547 37.333,60.028C37.333,57.927 37.618,55.868 38.173,53.89L33.038,52.45C32.362,54.86 32,57.402 32,60.028C32,75.492 44.536,88.028 60,88.028C75.464,88.028 88,75.492 88,60.028C88,44.564 75.464,32.028 60,32.028C56.11,32.028 52.406,32.821 49.039,34.255L45.444,29.969Z" clip-rule="evenodd" fill-rule="evenodd" fill="#FF9066"/>
</g>
</svg>
