<svg width="48" height="48" viewBox="0 0 48 48" fill="none" xmlns="http://www.w3.org/2000/svg" xmlns:xlink="http://www.w3.org/1999/xlink">
<path d="M28.24,20.62C28.24,22.962 26.341,24.86 24,24.86L24,28.86C28.551,28.86 32.24,25.171 32.24,20.62L28.24,20.62ZM24,24.86C21.658,24.86 19.76,22.962 19.76,20.62L15.76,20.62C15.76,25.171 19.449,28.86 24,28.86L24,24.86ZM19.76,20.62C19.76,18.278 21.658,16.38 24,16.38L24,12.38C19.449,12.38 15.76,16.069 15.76,20.62L19.76,20.62ZM24,16.38C26.341,16.38 28.24,18.278 28.24,20.62L32.24,20.62C32.24,16.069 28.551,12.38 24,12.38L24,16.38Z" fill="#E73C34"/>
<path d="M7.24,16.98L5.29,16.536L5.289,16.538L7.24,16.98ZM40.76,17L38.809,17.442L38.809,17.442L40.76,17ZM31.2,41.08L29.815,39.637L29.811,39.641L31.2,41.08ZM16.78,41.08L15.392,42.52L15.395,42.522L16.78,41.08ZM9.19,17.424C10.915,9.841 17.36,5.996 24.006,6C30.652,6.004 37.093,9.859 38.809,17.442L42.711,16.559C40.507,6.821 32.158,2.006 24.009,2C15.86,1.995 7.505,6.799 5.29,16.536L9.19,17.424ZM38.809,17.442C40.862,26.508 35.253,34.415 29.815,39.637L32.585,42.523C38.227,37.105 45.258,27.812 42.711,16.558L38.809,17.442ZM29.811,39.641C26.568,42.771 21.433,42.776 18.165,39.638L15.395,42.522C20.207,47.144 27.792,47.149 32.589,42.519L29.811,39.641ZM18.168,39.64C12.748,34.417 7.138,26.49 9.191,17.422L5.289,16.538C2.742,27.79 9.771,37.103 15.392,42.52L18.168,39.64Z" fill="#E73C34"/>
</svg>
