<svg width="46" height="50" viewBox="0 0 46 50" fill="none" xmlns="http://www.w3.org/2000/svg" xmlns:xlink="http://www.w3.org/1999/xlink">
<path d="M43.367,20.145C43.147,18.214 42.238,16.422 40.801,15.089C39.365,13.756 37.495,12.967 35.523,12.863L35.523,12.296C35.525,10.681 35.202,9.082 34.574,7.59C33.946,6.098 33.024,4.743 31.862,3.602C30.702,2.459 29.324,1.552 27.807,0.934C26.29,0.315 24.664,-0.002 23.022,0C19.708,0.001 16.53,1.297 14.186,3.603C11.843,5.909 10.525,9.037 10.524,12.298L10.524,12.872C8.579,13.008 6.743,13.811 5.336,15.14C3.929,16.469 3.041,18.242 2.824,20.149L0.74,38.837C0.75,41.343 1.77,43.742 3.577,45.508C5.384,47.274 7.829,48.262 10.376,48.255L35.82,48.255C38.367,48.262 40.812,47.274 42.619,45.508C44.425,43.742 45.446,41.343 45.456,38.837L43.367,20.145ZM14.195,12.318C14.194,11.178 14.422,10.048 14.865,8.994C15.309,7.94 15.959,6.983 16.779,6.176C17.598,5.369 18.571,4.729 19.642,4.293C20.713,3.856 21.861,3.632 23.02,3.632C24.18,3.631 25.328,3.855 26.399,4.292C27.47,4.728 28.443,5.368 29.262,6.176C30.083,6.982 30.734,7.939 31.179,8.993C31.623,10.047 31.851,11.177 31.85,12.318L31.85,12.845L14.195,12.845L14.195,12.318ZM15.936,25.094C15.645,25.094 15.356,25.038 15.087,24.928C14.818,24.819 14.573,24.658 14.367,24.455C14.161,24.253 13.998,24.012 13.887,23.747C13.775,23.482 13.718,23.199 13.719,22.912C13.718,22.625 13.775,22.342 13.887,22.077C13.998,21.812 14.161,21.571 14.367,21.368C14.573,21.166 14.818,21.005 15.087,20.896C15.356,20.786 15.645,20.73 15.936,20.73C16.227,20.73 16.516,20.785 16.786,20.895C17.056,21.004 17.301,21.165 17.507,21.367C17.714,21.57 17.878,21.811 17.99,22.076C18.102,22.341 18.159,22.625 18.16,22.912C18.159,23.199 18.102,23.483 17.99,23.748C17.878,24.013 17.714,24.254 17.507,24.456C17.301,24.659 17.056,24.819 16.786,24.929C16.516,25.038 16.227,25.094 15.936,25.094L15.936,25.094ZM30.265,25.094C29.973,25.094 29.684,25.038 29.414,24.929C29.145,24.819 28.9,24.659 28.693,24.456C28.487,24.254 28.322,24.013 28.21,23.748C28.099,23.483 28.041,23.199 28.041,22.912C28.041,22.625 28.099,22.341 28.21,22.076C28.322,21.811 28.487,21.57 28.693,21.367C28.9,21.165 29.145,21.004 29.414,20.895C29.684,20.785 29.973,20.73 30.265,20.73C30.556,20.73 30.844,20.786 31.113,20.896C31.382,21.005 31.627,21.166 31.833,21.368C32.039,21.571 32.202,21.812 32.314,22.077C32.425,22.342 32.482,22.625 32.482,22.912C32.482,23.199 32.425,23.482 32.314,23.747C32.202,24.012 32.039,24.253 31.833,24.455C31.627,24.658 31.382,24.819 31.113,24.928C30.844,25.038 30.556,25.094 30.265,25.094L30.265,25.094Z" fill="#D3D1D8"/>
</svg>
