<svg width="44" height="40" viewBox="0 0 44 40" fill="none" xmlns="http://www.w3.org/2000/svg" xmlns:xlink="http://www.w3.org/1999/xlink">
<path d="M31.733,0C29.68,0 27.665,0.547 25.894,1.584C24.123,2.62 22.66,4.11 21.655,5.899C20.649,4.109 19.185,2.619 17.414,1.583C15.642,0.546 13.626,0 11.574,0C8.43,0.17 5.473,1.545 3.317,3.84C1.162,6.134 -0.026,9.171 0,12.32C0,28.374 21.655,39.574 21.655,39.574C21.655,39.574 43.309,28.379 43.309,12.32C43.336,9.171 42.147,6.133 39.991,3.839C37.835,1.544 34.877,0.169 31.733,0L31.733,0Z" fill="#D3D1D8"/>
</svg>
