<svg width="30" height="30" viewBox="0 0 30 30" fill="none" xmlns="http://www.w3.org/2000/svg" xmlns:xlink="http://www.w3.org/1999/xlink">
<path d="M28.298,8.525C28.01,6.469 27.035,4.566 25.526,3.115C24.017,1.664 22.061,0.749 19.965,0.513C16.009,-0.184 11.958,-0.171 8.007,0.553C2.842,1.591 0.594,4.331 -0.28,9.593C-0.551,11.224 -0.683,12.874 -0.674,14.525L-0.674,14.525C-0.656,16.54 -0.445,18.549 -0.046,20.526C0.242,22.582 1.218,24.485 2.726,25.936C4.235,27.386 6.192,28.302 8.288,28.538C12.243,29.235 16.294,29.222 20.245,28.498C25.41,27.46 27.658,24.72 28.532,19.458C28.799,17.83 28.927,16.182 28.914,14.533L28.914,14.533C28.9,12.516 28.694,10.505 28.298,8.525L28.298,8.525Z" fill="#F88D10"/>
</svg>
