<svg width="30" height="30" viewBox="0 0 30 30" fill="none" xmlns="http://www.w3.org/2000/svg" xmlns:xlink="http://www.w3.org/1999/xlink">
<path d="M28.243,8.513C27.953,6.459 26.976,4.558 25.468,3.109C23.959,1.661 22.004,0.748 19.909,0.513C15.955,-0.184 11.905,-0.171 7.956,0.553C2.793,1.591 0.545,4.329 -0.327,9.589C-0.598,11.217 -0.73,12.864 -0.721,14.513L-0.721,14.513C-0.703,16.528 -0.493,18.537 -0.093,20.513C0.197,22.567 1.173,24.469 2.682,25.917C4.191,27.365 6.146,28.279 8.24,28.513C12.195,29.21 16.244,29.197 20.194,28.473C25.356,27.435 27.605,24.697 28.476,19.435C28.744,17.808 28.871,16.161 28.859,14.513L28.859,14.513C28.844,12.499 28.638,10.49 28.243,8.513L28.243,8.513Z" fill="#F88D10"/>
</svg>
