<svg width="44" height="40" viewBox="0 0 44 40" fill="none" xmlns="http://www.w3.org/2000/svg" xmlns:xlink="http://www.w3.org/1999/xlink">
<path d="M31.659,0C29.573,0 27.525,0.547 25.726,1.584C23.926,2.62 22.439,4.11 21.417,5.899C20.395,4.109 18.908,2.619 17.107,1.583C15.307,0.546 13.258,0 11.172,0C7.977,0.17 4.972,1.545 2.781,3.84C0.59,6.134 -0.617,9.171 -0.59,12.32C-0.59,28.374 21.417,39.574 21.417,39.574C21.417,39.574 43.424,28.379 43.424,12.32C43.451,9.171 42.243,6.133 40.052,3.839C37.86,1.544 34.854,0.169 31.659,0L31.659,0Z" fill="#D3D1D8"/>
</svg>
