<svg width="40" height="40" viewBox="0 0 40 40" fill="none" xmlns="http://www.w3.org/2000/svg" xmlns:xlink="http://www.w3.org/1999/xlink">
<path d="M30,13.183C29.95,13.183 29.917,13.183 29.867,13.183L29.783,13.183C26.633,13.083 24.283,10.65 24.283,7.65C24.283,4.583 26.783,2.1 29.833,2.1C32.883,2.1 35.383,4.6 35.383,7.65C35.367,10.666 33.017,13.1 30.017,13.2C30.017,13.183 30.017,13.183 30,13.183ZM29.833,4.583C28.15,4.583 26.783,5.95 26.783,7.633C26.783,9.283 28.067,10.616 29.717,10.683C29.733,10.666 29.867,10.666 30.017,10.683C31.633,10.6 32.883,9.266 32.9,7.633C32.9,5.95 31.533,4.583 29.833,4.583Z" fill="#292D32"/>
<path d="M30.017,25.467C29.367,25.467 28.717,25.417 28.067,25.3C27.383,25.183 26.933,24.533 27.05,23.85C27.167,23.167 27.817,22.717 28.5,22.833C30.55,23.183 32.717,22.8 34.167,21.833C34.95,21.317 35.367,20.667 35.367,20.017C35.367,19.367 34.933,18.733 34.167,18.217C32.717,17.25 30.517,16.867 28.45,17.233C27.767,17.367 27.117,16.9 27,16.217C26.883,15.533 27.333,14.883 28.017,14.767C30.733,14.283 33.55,14.8 35.55,16.133C37.017,17.117 37.867,18.517 37.867,20.017C37.867,21.5 37.033,22.917 35.55,23.917C34.033,24.917 32.067,25.467 30.017,25.467Z" fill="#292D32"/>
<path d="M9.95,13.183C9.933,13.183 9.916,13.183 9.916,13.183C6.916,13.083 4.566,10.65 4.55,7.65C4.55,4.583 7.05,2.083 10.1,2.083C13.15,2.083 15.65,4.583 15.65,7.633C15.65,10.65 13.3,13.083 10.3,13.183L9.95,11.933L10.066,13.183C10.033,13.183 9.983,13.183 9.95,13.183ZM10.116,10.683C10.216,10.683 10.3,10.683 10.4,10.7C11.883,10.633 13.183,9.3 13.183,7.65C13.183,5.966 11.816,4.6 10.133,4.6C8.45,4.6 7.083,5.966 7.083,7.65C7.083,9.283 8.35,10.6 9.966,10.7C9.983,10.683 10.05,10.683 10.116,10.683Z" fill="#292D32"/>
<path d="M9.933,25.467C7.883,25.467 5.917,24.917 4.4,23.917C2.933,22.933 2.083,21.517 2.083,20.017C2.083,18.533 2.933,17.117 4.4,16.133C6.4,14.8 9.217,14.283 11.933,14.767C12.617,14.883 13.067,15.533 12.95,16.217C12.833,16.9 12.183,17.367 11.5,17.233C9.433,16.867 7.25,17.25 5.783,18.217C5,18.733 4.583,19.367 4.583,20.017C4.583,20.667 5.017,21.317 5.783,21.833C7.233,22.8 9.4,23.183 11.45,22.833C12.133,22.717 12.783,23.183 12.9,23.85C13.017,24.533 12.567,25.183 11.883,25.3C11.233,25.417 10.583,25.467 9.933,25.467Z" fill="#292D32"/>
<path d="M20,25.633C19.95,25.633 19.917,25.633 19.867,25.633L19.783,25.633C16.633,25.533 14.283,23.1 14.283,20.1C14.283,17.033 16.783,14.55 19.833,14.55C22.883,14.55 25.383,17.05 25.383,20.1C25.367,23.116 23.017,25.55 20.017,25.65C20.017,25.633 20.017,25.633 20,25.633ZM19.833,17.033C18.15,17.033 16.783,18.4 16.783,20.083C16.783,21.733 18.067,23.066 19.717,23.133C19.733,23.116 19.867,23.116 20.017,23.133C21.633,23.05 22.883,21.716 22.9,20.083C22.9,18.416 21.533,17.033 19.833,17.033Z" fill="#292D32"/>
<path d="M19.999,37.933C17.999,37.933 15.999,37.417 14.449,36.367C12.983,35.383 12.133,33.983 12.133,32.483C12.133,31 12.966,29.567 14.449,28.583C17.566,26.517 22.449,26.517 25.549,28.583C27.016,29.567 27.866,30.967 27.866,32.467C27.866,33.95 27.033,35.383 25.549,36.367C23.999,37.4 21.999,37.933 19.999,37.933ZM15.833,30.683C15.049,31.2 14.633,31.85 14.633,32.5C14.633,33.15 15.066,33.783 15.833,34.3C18.083,35.817 21.899,35.817 24.149,34.3C24.933,33.783 25.349,33.133 25.349,32.483C25.349,31.833 24.916,31.2 24.149,30.683C21.916,29.167 18.099,29.183 15.833,30.683Z" fill="#292D32"/>
</svg>
