<svg width="44" height="40" viewBox="0 0 44 40" fill="none" xmlns="http://www.w3.org/2000/svg" xmlns:xlink="http://www.w3.org/1999/xlink">
<path d="M12.569,3.414C13.35,2.633 13.35,1.367 12.569,0.586C11.788,-0.195 10.522,-0.195 9.74,0.586C8.405,1.921 7.809,3.404 8.053,4.992C8.247,6.253 8.97,7.333 9.418,8L9.491,8.109C10.054,8.954 10.258,9.324 10.303,9.617L10.304,9.624C10.316,9.681 10.373,9.953 9.74,10.586C8.959,11.367 8.959,12.633 9.74,13.414C10.522,14.195 11.788,14.195 12.569,13.414C13.904,12.079 14.501,10.596 14.256,9.008C14.062,7.747 13.339,6.667 12.892,6L12.819,5.891C12.256,5.046 12.051,4.676 12.006,4.383L12.005,4.376C11.993,4.319 11.936,4.047 12.569,3.414Z" fill="#9CA4AB"/>
<path d="M0,20C0,18.895 0.895,18 2,18L42,18C43.105,18 44,18.895 44,20C44,21.105 43.105,22 42,22L39.493,22L35.433,35.705C34.678,38.252 32.337,40 29.68,40L14.32,40C11.663,40 9.322,38.252 8.567,35.705L4.507,22L2,22C0.895,22 0,21.105 0,20ZM8.679,22L35.321,22L31.598,34.568C31.346,35.417 30.566,36 29.68,36L14.32,36C13.434,36 12.654,35.417 12.402,34.568L8.679,22Z" clip-rule="evenodd" fill-rule="evenodd" fill="#9CA4AB"/>
<path d="M22.569,0.586C23.35,1.367 23.35,2.633 22.569,3.414C21.936,4.047 21.993,4.319 22.005,4.376L22.006,4.383C22.051,4.676 22.256,5.046 22.819,5.891L22.892,6C23.339,6.667 24.062,7.747 24.256,9.008C24.501,10.596 23.904,12.079 22.569,13.414C21.788,14.195 20.522,14.195 19.74,13.414C18.959,12.633 18.959,11.367 19.74,10.586C20.373,9.953 20.316,9.681 20.304,9.624L20.303,9.617C20.258,9.324 20.054,8.954 19.491,8.109L19.418,8C18.97,7.333 18.247,6.253 18.053,4.992C17.809,3.404 18.405,1.921 19.74,0.586C20.522,-0.195 21.788,-0.195 22.569,0.586Z" fill="#9CA4AB"/>
<path d="M32.569,3.414C33.35,2.633 33.35,1.367 32.569,0.586C31.788,-0.195 30.522,-0.195 29.74,0.586C28.405,1.921 27.809,3.404 28.053,4.992C28.247,6.253 28.97,7.333 29.418,8L29.491,8.109C30.054,8.954 30.258,9.324 30.303,9.617L30.304,9.624C30.316,9.681 30.373,9.953 29.74,10.586C28.959,11.367 28.959,12.633 29.74,13.414C30.522,14.195 31.788,14.195 32.569,13.414C33.904,12.079 34.501,10.596 34.256,9.008C34.062,7.747 33.339,6.667 32.892,6L32.819,5.891C32.256,5.046 32.051,4.676 32.006,4.383L32.005,4.376C31.993,4.319 31.936,4.047 32.569,3.414Z" fill="#9CA4AB"/>
</svg>
