<svg width="40" height="40" viewBox="0 0 40 40" fill="none" xmlns="http://www.w3.org/2000/svg" xmlns:xlink="http://www.w3.org/1999/xlink">
<path d="M31.414,15.414C32.195,14.633 32.195,13.367 31.414,12.586C30.633,11.805 29.367,11.805 28.586,12.586L16,25.172L11.414,20.586C10.633,19.805 9.367,19.805 8.586,20.586C7.805,21.367 7.805,22.633 8.586,23.414L14.586,29.414C15.367,30.195 16.633,30.195 17.414,29.414L31.414,15.414Z" fill="#9CA4AB"/>
<path d="M20,0C8.954,0 0,8.954 0,20C0,31.046 8.954,40 20,40C31.046,40 40,31.046 40,20C40,8.954 31.046,0 20,0ZM4,20C4,11.163 11.163,4 20,4C28.837,4 36,11.163 36,20C36,28.837 28.837,36 20,36C11.163,36 4,28.837 4,20Z" clip-rule="evenodd" fill-rule="evenodd" fill="#9CA4AB"/>
</svg>
