<svg width="44" height="72" viewBox="0 0 44 72" fill="none" xmlns="http://www.w3.org/2000/svg" xmlns:xlink="http://www.w3.org/1999/xlink">
<path d="M17.6,1.367L17.6,17.6L14.667,17.6L14.667,1.467C14.667,1.078 14.512,0.705 14.237,0.43C13.962,0.155 13.589,0 13.2,0C12.811,0 12.438,0.155 12.163,0.43C11.888,0.705 11.733,1.078 11.733,1.467L11.733,17.6L8.8,17.6L8.8,1.414C8.8,-0.473 5.867,-0.409 5.867,1.366L5.867,17.6L2.933,17.6L2.933,1.482C2.933,-0.517 0,-0.444 0,1.403L0,22.628C0,25.689 2.933,27.707 5.867,27.707L5.867,66C5.867,71.867 14.667,71.867 14.667,66L14.667,27.709C17.6,27.709 20.533,25.271 20.533,22.976L20.533,1.414C20.533,-0.456 17.6,-0.384 17.6,1.367ZM30.8,5.867L30.8,42.534L33.733,42.534L33.733,66C33.733,71.867 44,71.867 44,66L44,5.867C44,-1.466 30.8,-1.466 30.8,5.867Z" fill="#E73C34"/>
</svg>
