<svg width="48" height="48" viewBox="0 0 48 48" fill="none" xmlns="http://www.w3.org/2000/svg" xmlns:xlink="http://www.w3.org/1999/xlink">
<path d="M47.359,43.923C43.673,37.52 37.885,33.027 31.161,31.121C34.43,29.451 37.044,26.722 38.582,23.375C40.12,20.029 40.492,16.259 39.637,12.674C38.783,9.089 36.752,5.897 33.872,3.614C30.993,1.331 27.432,0.09 23.764,0.09C20.097,0.09 16.536,1.331 13.656,3.614C10.777,5.897 8.746,9.089 7.891,12.674C7.037,16.259 7.409,20.029 8.946,23.375C10.484,26.722 13.099,29.451 16.368,31.121C9.643,33.024 3.856,37.517 0.17,43.923C0.068,44.083 0,44.262 -0.03,44.449C-0.061,44.636 -0.054,44.828 -0.009,45.012C0.036,45.196 0.118,45.369 0.231,45.521C0.344,45.673 0.487,45.8 0.65,45.895C0.813,45.99 0.994,46.05 1.182,46.073C1.369,46.096 1.559,46.081 1.74,46.028C1.921,45.975 2.09,45.886 2.236,45.766C2.382,45.646 2.502,45.497 2.59,45.329C7.069,37.55 14.983,32.907 23.764,32.907C32.546,32.907 40.46,37.55 44.939,45.329C45.026,45.497 45.147,45.646 45.293,45.766C45.439,45.886 45.607,45.975 45.789,46.028C45.97,46.081 46.16,46.096 46.347,46.073C46.534,46.05 46.715,45.99 46.879,45.895C47.042,45.8 47.185,45.673 47.298,45.521C47.411,45.369 47.492,45.196 47.537,45.012C47.582,44.828 47.59,44.636 47.559,44.449C47.528,44.262 47.46,44.083 47.359,43.923ZM10.24,16.501C10.24,13.812 11.033,11.184 12.519,8.949C14.006,6.713 16.118,4.971 18.589,3.942C21.06,2.913 23.779,2.644 26.403,3.168C29.026,3.693 31.436,4.988 33.327,6.889C35.219,8.79 36.507,11.212 37.029,13.849C37.55,16.486 37.283,19.219 36.259,21.703C35.235,24.187 33.502,26.31 31.278,27.804C29.054,29.297 26.439,30.095 23.764,30.095C20.179,30.09 16.741,28.657 14.206,26.108C11.671,23.56 10.245,20.105 10.24,16.501Z" fill="#E73C34"/>
</svg>
