<svg width="38" height="26" viewBox="0 0 38 26" fill="none" xmlns="http://www.w3.org/2000/svg" xmlns:xlink="http://www.w3.org/1999/xlink">
<path d="M36.642,11.494C36.587,11.37 35.264,8.434 32.322,5.492C28.402,1.572 23.45,-0.5 18,-0.5C12.55,-0.5 7.598,1.572 3.678,5.492C0.736,8.434 -0.594,11.375 -0.642,11.494C-0.713,11.654 -0.75,11.827 -0.75,12.002C-0.75,12.177 -0.713,12.35 -0.642,12.509C-0.588,12.633 0.736,15.567 3.678,18.509C7.598,22.428 12.55,24.5 18,24.5C23.45,24.5 28.402,22.428 32.322,18.509C35.264,15.567 36.587,12.633 36.642,12.509C36.713,12.35 36.75,12.177 36.75,12.002C36.75,11.827 36.713,11.654 36.642,11.494ZM18,22C13.191,22 8.989,20.252 5.511,16.805C4.084,15.385 2.87,13.767 1.906,12C2.869,10.233 4.084,8.614 5.511,7.195C8.989,3.748 13.191,2 18,2C22.809,2 27.011,3.748 30.489,7.195C31.919,8.614 33.136,10.232 34.102,12C32.975,14.103 28.067,22 18,22ZM18,4.5C16.517,4.5 15.067,4.94 13.833,5.764C12.6,6.588 11.639,7.759 11.071,9.13C10.503,10.5 10.355,12.008 10.644,13.463C10.933,14.918 11.648,16.254 12.697,17.303C13.746,18.352 15.082,19.066 16.537,19.356C17.992,19.645 19.5,19.497 20.87,18.929C22.241,18.361 23.412,17.4 24.236,16.167C25.06,14.933 25.5,13.483 25.5,12C25.498,10.012 24.707,8.105 23.301,6.699C21.895,5.293 19.988,4.502 18,4.5ZM18,17C17.011,17 16.044,16.707 15.222,16.157C14.4,15.608 13.759,14.827 13.381,13.913C13.002,13 12.903,11.994 13.096,11.025C13.289,10.055 13.765,9.164 14.464,8.464C15.164,7.765 16.055,7.289 17.025,7.096C17.994,6.903 19,7.002 19.913,7.381C20.827,7.759 21.608,8.4 22.157,9.222C22.707,10.044 23,11.011 23,12C23,13.326 22.473,14.598 21.536,15.536C20.598,16.473 19.326,17 18,17Z" fill="#000000" fill-opacity="0.7"/>
</svg>
