<svg width="24" height="52" viewBox="0 0 24 52" fill="none" xmlns="http://www.w3.org/2000/svg" xmlns:xlink="http://www.w3.org/1999/xlink">
<path d="M9.821,17.321C9.821,16.217 8.926,15.321 7.821,15.321C6.717,15.321 5.821,16.217 5.821,17.321L9.821,17.321ZM7.821,36.745L5.821,36.745L5.822,36.77L7.821,36.745ZM16.213,36.745L18.213,36.77L18.213,36.746L16.213,36.745ZM16.227,11.285L14.227,11.266L14.227,11.284L16.227,11.285ZM9.114,2L9.114,0L9.114,2ZM2.001,11.285L4.001,11.285L4.001,11.266L2.001,11.285ZM2.001,36.917L4.001,36.939L4.001,36.917L2.001,36.917ZM12,50L12,52L12,50ZM21.999,36.917L19.999,36.917L19.999,36.939L21.999,36.917ZM23.999,12.965C23.999,11.86 23.104,10.965 21.999,10.965C20.894,10.965 19.999,11.86 19.999,12.965L23.999,12.965ZM5.821,17.321L5.821,36.745L9.821,36.745L9.821,17.321L5.821,17.321ZM5.822,36.77C5.844,38.575 6.412,40.37 7.502,41.754L10.645,39.279C10.165,38.67 9.834,37.756 9.821,36.721L5.822,36.77ZM7.502,41.754C8.602,43.15 10.205,44.072 12.017,44.072L12.017,40.072C11.626,40.072 11.115,39.877 10.645,39.279L7.502,41.754ZM12.017,44.072C13.829,44.072 15.433,43.15 16.532,41.754L13.39,39.279C12.919,39.877 12.408,40.072 12.017,40.072L12.017,44.072ZM16.532,41.754C17.622,40.37 18.191,38.575 18.213,36.77L14.213,36.721C14.201,37.756 13.87,38.67 13.39,39.279L16.532,41.754ZM18.213,36.746L18.227,11.286L14.227,11.284L14.213,36.744L18.213,36.746ZM18.227,11.304C18.24,9.887 18.036,8.474 17.619,7.143L13.802,8.338C14.09,9.259 14.236,10.255 14.227,11.266L18.227,11.304ZM17.619,7.143C17.203,5.813 16.578,4.575 15.762,3.51L12.587,5.943C13.094,6.605 13.513,7.417 13.802,8.338L17.619,7.143ZM15.762,3.51C14.946,2.445 13.947,1.564 12.805,0.948L10.907,4.47C11.502,4.79 12.079,5.28 12.587,5.943L15.762,3.51ZM12.805,0.948C11.659,0.331 10.403,0 9.114,0L9.114,4C9.708,4 10.316,4.151 10.907,4.47L12.805,0.948ZM9.114,0C7.825,0 6.569,0.331 5.423,0.948L7.32,4.47C7.912,4.151 8.52,4 9.114,4L9.114,0ZM5.423,0.948C4.281,1.564 3.282,2.445 2.466,3.51L5.641,5.943C6.149,5.28 6.726,4.79 7.32,4.47L5.423,0.948ZM2.466,3.51C1.65,4.575 1.025,5.813 0.609,7.143L4.426,8.338C4.715,7.417 5.134,6.605 5.641,5.943L2.466,3.51ZM0.609,7.143C0.192,8.474 -0.012,9.887 0.001,11.304L4.001,11.266C3.991,10.255 4.138,9.259 4.426,8.338L0.609,7.143ZM0.001,11.285L0.001,36.917L4.001,36.917L4.001,11.285L0.001,11.285ZM0.001,36.894C-0.02,38.806 0.253,40.712 0.811,42.504L4.63,41.314C4.2,39.934 3.984,38.445 4.001,36.939L0.001,36.894ZM0.811,42.504C1.368,44.295 2.205,45.952 3.289,47.371L6.467,44.942C5.691,43.926 5.06,42.696 4.63,41.314L0.811,42.504ZM3.289,47.371C4.373,48.79 5.693,49.953 7.19,50.76L9.09,47.24C8.141,46.728 7.243,45.958 6.467,44.942L3.289,47.371ZM7.19,50.76C8.69,51.57 10.327,52 12,52L12,48C11.022,48 10.035,47.751 9.09,47.24L7.19,50.76ZM12,52C13.673,52 15.31,51.57 16.81,50.76L14.91,47.24C13.965,47.751 12.978,48 12,48L12,52ZM16.81,50.76C18.307,49.953 19.627,48.79 20.711,47.371L17.533,44.942C16.757,45.958 15.859,46.728 14.91,47.24L16.81,50.76ZM20.711,47.371C21.795,45.952 22.632,44.295 23.189,42.504L19.37,41.314C18.94,42.696 18.309,43.926 17.533,44.942L20.711,47.371ZM23.189,42.504C23.747,40.712 24.02,38.806 23.999,36.894L19.999,36.939C20.016,38.445 19.8,39.934 19.37,41.314L23.189,42.504ZM23.999,36.917L23.999,12.965L19.999,12.965L19.999,36.917L23.999,36.917Z" fill="#C4C4C4"/>
</svg>
