<svg width="36" height="18" viewBox="0 0 36 18" fill="none" xmlns="http://www.w3.org/2000/svg" xmlns:xlink="http://www.w3.org/1999/xlink">
<path d="M34.901,2.961C35.487,2.375 35.487,1.425 34.901,0.839C34.315,0.253 33.365,0.253 32.78,0.839L34.901,2.961ZM3.221,0.839C2.635,0.253 1.685,0.253 1.099,0.839C0.514,1.425 0.514,2.375 1.099,2.961L3.221,0.839ZM32.78,0.839L19.739,13.879L21.861,16.001L34.901,2.961L32.78,0.839ZM19.739,13.879C18.785,14.833 17.215,14.833 16.261,13.879L14.139,16.001C16.265,18.126 19.735,18.126 21.861,16.001L19.739,13.879ZM16.261,13.879L3.221,0.839L1.099,2.961L14.139,16.001L16.261,13.879Z" fill="#0C0507"/>
</svg>
