<svg width="40" height="48" viewBox="0 0 40 48" fill="none" xmlns="http://www.w3.org/2000/svg" xmlns:xlink="http://www.w3.org/1999/xlink">
<path d="M1.827,0.994C0.167,2.654 0.167,5.323 0.167,10.667L0.167,36.167C0.167,41.51 0.167,44.179 1.827,45.84C3.487,47.5 6.156,47.5 11.5,47.5L28.5,47.5C33.844,47.5 36.513,47.5 38.173,45.84C39.833,44.179 39.833,41.51 39.833,36.167L39.833,10.667C39.833,5.323 39.833,2.654 38.173,0.994C36.513,-0.667 33.844,-0.667 28.5,-0.667L11.5,-0.667C6.156,-0.667 3.487,-0.667 1.827,0.994ZM11.5,10.667C10.748,10.667 10.028,10.965 9.496,11.497C8.965,12.028 8.667,12.749 8.667,13.5C8.667,14.251 8.965,14.972 9.496,15.504C10.028,16.035 10.748,16.333 11.5,16.333L28.5,16.333C29.251,16.333 29.972,16.035 30.503,15.504C31.035,14.972 31.333,14.251 31.333,13.5C31.333,12.749 31.035,12.028 30.503,11.497C29.972,10.965 29.251,10.667 28.5,10.667L11.5,10.667ZM11.5,22C10.748,22 10.028,22.299 9.496,22.83C8.965,23.361 8.667,24.082 8.667,24.833C8.667,25.585 8.965,26.306 9.496,26.837C10.028,27.368 10.748,27.667 11.5,27.667L28.5,27.667C29.251,27.667 29.972,27.368 30.503,26.837C31.035,26.306 31.333,25.585 31.333,24.833C31.333,24.082 31.035,23.361 30.503,22.83C29.972,22.299 29.251,22 28.5,22L11.5,22ZM11.5,33.333C10.748,33.333 10.028,33.632 9.496,34.163C8.965,34.695 8.667,35.415 8.667,36.167C8.667,36.918 8.965,37.639 9.496,38.17C10.028,38.702 10.748,39 11.5,39L22.833,39C23.585,39 24.305,38.702 24.837,38.17C25.368,37.639 25.667,36.918 25.667,36.167C25.667,35.415 25.368,34.695 24.837,34.163C24.305,33.632 23.585,33.333 22.833,33.333L11.5,33.333Z" clip-rule="evenodd" fill-rule="evenodd" fill="#E73C34"/>
</svg>
