<svg width="20" height="10" viewBox="0 0 20 10" fill="none" xmlns="http://www.w3.org/2000/svg" xmlns:xlink="http://www.w3.org/1999/xlink">
<path d="M16.859,9.109C17.445,9.694 18.395,9.694 18.981,9.109C19.566,8.523 19.566,7.573 18.981,6.987L16.859,9.109ZM11.4,1.528L10.339,2.589L11.4,1.528ZM8.6,1.528L9.661,2.589L8.6,1.528ZM1.019,6.987C0.433,7.573 0.433,8.523 1.019,9.109C1.605,9.694 2.555,9.694 3.141,9.109L1.019,6.987ZM18.981,6.987L12.461,0.467L10.339,2.589L16.859,9.109L18.981,6.987ZM12.461,0.467C11.105,-0.889 8.895,-0.889 7.539,0.467L9.661,2.589C9.845,2.404 10.155,2.404 10.339,2.589L12.461,0.467ZM7.539,0.467L1.019,6.987L3.141,9.109L9.661,2.589L7.539,0.467Z" transform="rotate(-360 10 4.499)" fill="#434E58"/>
</svg>
