<svg width="44" height="40" viewBox="0 0 44 40" fill="none" xmlns="http://www.w3.org/2000/svg" xmlns:xlink="http://www.w3.org/1999/xlink">
<path d="M23.24,37.62L22.594,35.727L22.574,35.734L23.24,37.62ZM20.76,37.62L21.426,35.734L21.406,35.727L20.76,37.62ZM22,6.68L20.394,7.873C20.772,8.381 21.367,8.68 22,8.68C22.633,8.68 23.228,8.381 23.606,7.873L22,6.68ZM22.574,35.734C22.515,35.755 22.307,35.8 22,35.8C21.693,35.8 21.485,35.755 21.426,35.734L20.094,39.506C20.715,39.725 21.407,39.8 22,39.8C22.593,39.8 23.285,39.725 23.906,39.506L22.574,35.734ZM21.406,35.727C18.793,34.835 14.375,32.441 10.636,28.611C6.922,24.805 4,19.715 4,13.38L0,13.38C0,21.045 3.558,27.085 7.774,31.405C11.965,35.699 16.927,38.425 20.114,39.513L21.406,35.727ZM4,13.38C4,8.295 8.094,4.2 13.12,4.2L13.12,0.2C5.866,0.2 0,6.105 0,13.38L4,13.38ZM13.12,4.2C16.097,4.2 18.733,5.636 20.394,7.873L23.606,5.488C21.227,2.284 17.423,0.2 13.12,0.2L13.12,4.2ZM23.606,7.873C25.265,5.638 27.921,4.2 30.88,4.2L30.88,0.2C26.599,0.2 22.775,2.283 20.394,5.488L23.606,7.873ZM30.88,4.2C35.906,4.2 40,8.295 40,13.38L44,13.38C44,6.105 38.134,0.2 30.88,0.2L30.88,4.2ZM40,13.38C40,19.715 37.078,24.805 33.364,28.611C29.625,32.441 25.207,34.835 22.594,35.727L23.886,39.513C27.073,38.425 32.035,35.699 36.226,31.405C40.442,27.085 44,21.045 44,13.38L40,13.38Z" fill="#828282"/>
</svg>
