<svg width="52" height="76" viewBox="0 0 52 76" fill="none" xmlns="http://www.w3.org/2000/svg" xmlns:xlink="http://www.w3.org/1999/xlink">
<path d="M25.771,71.792L25.941,69.173C25.83,69.166 25.719,69.166 25.607,69.173L25.771,71.792ZM47.583,60.109L45.188,59.035L45.185,59.042L47.583,60.109ZM49.244,52.347L46.619,52.347L49.244,52.347ZM47.583,44.585L45.187,45.655L45.188,45.659L47.583,44.585ZM25.771,32.902L25.601,35.521C25.712,35.528 25.823,35.528 25.934,35.521L25.771,32.902ZM3.959,44.585L6.353,45.659L6.357,45.65L3.959,44.585ZM2.298,52.347L4.922,52.347L2.298,52.347ZM3.959,60.109L6.356,59.04L6.353,59.035L3.959,60.109ZM35.029,13.809C35.029,18.881 30.917,22.993 25.844,22.993L25.844,28.241C33.815,28.241 40.277,21.78 40.277,13.809L35.029,13.809ZM25.844,22.993C20.772,22.993 16.66,18.881 16.66,13.809L11.411,13.809C11.411,21.78 17.873,28.241 25.844,28.241L25.844,22.993ZM16.66,13.809C16.66,8.736 20.772,4.624 25.844,4.624L25.844,-0.624C17.873,-0.624 11.411,5.838 11.411,13.809L16.66,13.809ZM25.844,4.624C30.917,4.624 35.029,8.736 35.029,13.809L40.277,13.809C40.277,5.838 33.815,-0.624 25.844,-0.624L25.844,4.624ZM25.771,71.792C25.601,74.41 25.602,74.411 25.603,74.411C25.603,74.411 25.605,74.411 25.605,74.411C25.607,74.411 25.609,74.411 25.612,74.411C25.617,74.411 25.622,74.412 25.629,74.412C25.643,74.413 25.66,74.414 25.681,74.415C25.723,74.417 25.781,74.42 25.853,74.423C25.997,74.428 26.2,74.434 26.453,74.436C26.96,74.44 27.676,74.431 28.546,74.376C30.28,74.267 32.665,73.979 35.259,73.252C40.431,71.803 46.712,68.516 49.98,61.176L45.185,59.042C42.784,64.435 38.16,66.989 33.843,68.198C31.692,68.801 29.688,69.046 28.217,69.138C27.486,69.184 26.896,69.191 26.498,69.188C26.299,69.186 26.149,69.182 26.054,69.178C26.006,69.176 25.973,69.175 25.954,69.174C25.944,69.173 25.938,69.173 25.936,69.173C25.935,69.173 25.935,69.173 25.936,69.173C25.936,69.173 25.937,69.173 25.938,69.173C25.938,69.173 25.939,69.173 25.939,69.173C25.94,69.173 25.941,69.173 25.771,71.792ZM49.977,61.183C51.223,58.404 51.868,55.393 51.868,52.347L46.619,52.347C46.619,54.652 46.132,56.932 45.188,59.035L49.977,61.183ZM51.868,52.347C51.868,49.301 51.223,46.29 49.977,43.511L45.188,45.659C46.132,47.762 46.619,50.041 46.619,52.347L51.868,52.347ZM49.979,43.515C46.71,36.197 40.43,32.912 35.262,31.458C32.669,30.729 30.285,30.436 28.552,30.324C27.682,30.268 26.966,30.256 26.46,30.259C26.206,30.261 26.004,30.266 25.86,30.271C25.788,30.274 25.73,30.276 25.688,30.278C25.667,30.28 25.649,30.28 25.636,30.281C25.629,30.282 25.623,30.282 25.619,30.282C25.616,30.282 25.614,30.282 25.612,30.283C25.611,30.283 25.61,30.283 25.61,30.283C25.608,30.283 25.607,30.283 25.771,32.902C25.934,35.521 25.933,35.521 25.932,35.521C25.932,35.521 25.931,35.521 25.931,35.521C25.93,35.521 25.929,35.521 25.929,35.521C25.928,35.521 25.928,35.521 25.929,35.521C25.931,35.521 25.937,35.521 25.947,35.52C25.966,35.519 26,35.518 26.047,35.516C26.143,35.513 26.293,35.509 26.492,35.508C26.89,35.505 27.48,35.514 28.212,35.561C29.683,35.657 31.689,35.905 33.841,36.511C38.161,37.726 42.787,40.282 45.187,45.655L49.979,43.515ZM25.771,32.902C25.941,30.283 25.94,30.283 25.939,30.283C25.938,30.283 25.937,30.283 25.936,30.283C25.934,30.283 25.932,30.283 25.93,30.283C25.925,30.282 25.919,30.282 25.912,30.282C25.899,30.281 25.882,30.28 25.861,30.279C25.818,30.277 25.76,30.274 25.688,30.271C25.544,30.266 25.342,30.26 25.088,30.258C24.581,30.253 23.865,30.263 22.994,30.318C21.259,30.427 18.873,30.715 16.279,31.442C11.106,32.891 4.823,36.178 1.561,43.519L6.357,45.65C8.753,40.259 13.376,37.705 17.694,36.496C19.846,35.893 21.852,35.648 23.323,35.556C24.055,35.51 24.645,35.502 25.043,35.506C25.242,35.507 25.393,35.512 25.488,35.515C25.535,35.517 25.569,35.519 25.588,35.52C25.598,35.52 25.604,35.521 25.606,35.521C25.607,35.521 25.607,35.521 25.606,35.521C25.606,35.521 25.605,35.521 25.604,35.521C25.604,35.521 25.603,35.521 25.603,35.521C25.602,35.521 25.601,35.521 25.771,32.902ZM1.565,43.511C0.318,46.29 -0.326,49.301 -0.326,52.347L4.922,52.347C4.922,50.041 5.41,47.762 6.353,45.659L1.565,43.511ZM-0.326,52.347C-0.326,55.393 0.318,58.404 1.565,61.183L6.353,59.035C5.41,56.932 4.922,54.652 4.922,52.347L-0.326,52.347ZM1.562,61.178C4.825,68.496 11.107,71.782 16.276,73.236C18.869,73.965 21.255,74.257 22.989,74.37C23.859,74.426 24.575,74.438 25.082,74.434C25.335,74.433 25.538,74.428 25.682,74.423C25.754,74.42 25.812,74.417 25.854,74.415C25.875,74.414 25.892,74.413 25.906,74.413C25.912,74.412 25.918,74.412 25.923,74.412C25.925,74.411 25.927,74.411 25.929,74.411C25.93,74.411 25.931,74.411 25.932,74.411C25.933,74.411 25.934,74.411 25.771,71.792C25.607,69.173 25.608,69.173 25.609,69.173C25.61,69.173 25.61,69.173 25.611,69.173C25.612,69.173 25.612,69.172 25.613,69.172C25.614,69.172 25.614,69.172 25.612,69.172C25.61,69.173 25.604,69.173 25.595,69.173C25.576,69.174 25.542,69.176 25.494,69.178C25.399,69.181 25.249,69.185 25.05,69.186C24.651,69.189 24.06,69.18 23.328,69.132C21.856,69.037 19.849,68.788 17.697,68.183C13.374,66.968 8.75,64.412 6.356,59.04L1.562,61.178Z" fill="#E95322"/>
</svg>
