<svg width="126" height="134" viewBox="0 0 126 134" fill="none" xmlns="http://www.w3.org/2000/svg" xmlns:xlink="http://www.w3.org/1999/xlink">
<path d="M111.017,113.062L125.804,127.915L119.915,133.804L105.063,119.017L90.21,133.869L84.321,127.915L99.174,113.062L84.321,98.21L90.21,92.321L105.063,107.174L119.915,92.321L125.804,98.275L111.017,113.062ZM25.5,41.875L17.125,41.875L17.125,33.5L25.5,33.5L25.5,41.875ZM25.5,58.625L17.125,58.625L17.125,50.25L25.5,50.25L25.5,58.625ZM17.125,67L25.5,67L25.5,75.375L17.125,75.375L17.125,67ZM8.75,125.625L75.75,125.625L75.75,134L0.375,134L0.375,0L73.329,0L109.25,35.921L109.25,83.75L100.875,83.75L100.875,41.875L67.375,41.875L67.375,8.375L8.75,8.375L8.75,125.625ZM75.75,33.5L94.921,33.5L75.75,14.329L75.75,33.5ZM59,41.875L33.875,41.875L33.875,33.5L59,33.5L59,41.875ZM59,58.625L33.875,58.625L33.875,50.25L59,50.25L59,58.625ZM33.875,67L59,67L59,75.375L33.875,75.375L33.875,67Z" fill="#E73C34"/>
</svg>
