<svg width="18" height="18" viewBox="0 0 18 18" fill="none" xmlns="http://www.w3.org/2000/svg" xmlns:xlink="http://www.w3.org/1999/xlink">
<path d="M-0.133,14.009C-0.718,14.595 -0.719,15.544 -0.133,16.13C0.453,16.716 1.403,16.716 1.989,16.13L-0.133,14.009ZM16.133,1.99C16.718,1.405 16.719,0.455 16.133,-0.131C15.547,-0.717 14.597,-0.717 14.012,-0.131L16.133,1.99ZM1.989,-0.131C1.403,-0.717 0.453,-0.717 -0.133,-0.131C-0.719,0.455 -0.718,1.405 -0.133,1.99L1.989,-0.131ZM14.012,16.13C14.597,16.716 15.547,16.716 16.133,16.13C16.719,15.544 16.718,14.595 16.133,14.009L14.012,16.13ZM1.989,16.13L16.133,1.99L14.012,-0.131L-0.133,14.009L1.989,16.13ZM-0.133,1.99L14.012,16.13L16.133,14.009L1.989,-0.131L-0.133,1.99Z" fill="#979797"/>
</svg>
