<svg width="68" height="68" viewBox="0 0 68 68" fill="none" xmlns="http://www.w3.org/2000/svg" xmlns:xlink="http://www.w3.org/1999/xlink">
<path d="M47.583,57.5L59.167,46L55.667,42.5L47.583,50.417L44.333,47.167L40.833,50.75L47.583,57.5ZM10,20L50,20L50,13.333L10,13.333L10,20ZM50,66.667C45.389,66.667 41.459,65.041 38.21,61.79C34.961,58.539 33.336,54.609 33.333,50C33.331,45.391 34.957,41.461 38.21,38.21C41.463,34.959 45.393,33.333 50,33.333C54.607,33.333 58.538,34.959 61.793,38.21C65.049,41.461 66.673,45.391 66.667,50C66.66,54.609 65.034,58.54 61.79,61.793C58.546,65.047 54.616,66.671 50,66.667ZM0,63.333L0,6.667C0,4.833 0.653,3.264 1.96,1.96C3.267,0.656 4.836,0.002 6.667,0L53.333,0C55.167,0 56.737,0.653 58.043,1.96C59.35,3.267 60.002,4.836 60,6.667L60,28.917C58.444,28.139 56.819,27.569 55.123,27.207C53.428,26.844 51.72,26.664 50,26.667L10,26.667L10,33.333L33.667,33.333C32.722,34.278 31.848,35.306 31.043,36.417C30.239,37.528 29.53,38.722 28.917,40L10,40L10,46.667L26.917,46.667C26.806,47.222 26.737,47.764 26.71,48.293C26.683,48.822 26.669,49.391 26.667,50C26.667,52.333 26.987,54.57 27.627,56.71C28.267,58.85 29.224,60.891 30.5,62.833L30,63.333L25,58.333L20,63.333L15,58.333L10,63.333L5,58.333L0,63.333Z" fill="#E73C34"/>
</svg>
