<svg width="26" height="34" viewBox="0 0 26 34" fill="none" xmlns="http://www.w3.org/2000/svg" xmlns:xlink="http://www.w3.org/1999/xlink">
<path d="M13,34C9.413,34 6.349,33.453 3.809,32.359C1.269,31.265 -0.001,29.751 0,27.818C0,26.994 0.241,26.254 0.722,25.597C1.204,24.941 1.878,24.355 2.744,23.839L5.092,26.08C4.514,26.286 4.003,26.55 3.558,26.872C3.113,27.195 2.89,27.51 2.889,27.818C2.889,28.488 3.864,29.17 5.814,29.866C7.764,30.561 10.159,30.909 13,30.909C15.841,30.909 18.236,30.561 20.186,29.866C22.136,29.17 23.111,28.488 23.111,27.818C23.111,27.509 22.889,27.194 22.444,26.872C21.999,26.551 21.487,26.287 20.908,26.08L23.256,23.839C24.122,24.354 24.796,24.94 25.278,25.597C25.759,26.255 26,26.995 26,27.818C26,29.75 24.73,31.264 22.191,32.359C19.652,33.454 16.588,34.001 13,34ZM13,27.818C12.47,27.818 11.959,27.722 11.466,27.529C10.973,27.337 10.521,27.046 10.111,26.659L1.011,18.043C0.698,17.76 0.451,17.412 0.27,17C0.089,16.588 -0.001,16.163 0,15.725L0,12.634C0,12.196 0.078,11.771 0.235,11.359C0.392,10.947 0.627,10.599 0.939,10.316L10.039,1.236C10.448,0.824 10.906,0.515 11.411,0.309C11.917,0.103 12.446,0 13,0C13.554,0 14.083,0.103 14.589,0.309C15.094,0.515 15.552,0.824 15.961,1.236L25.061,10.316C25.374,10.599 25.609,10.947 25.766,11.359C25.923,11.771 26.001,12.196 26,12.634L26,15.725C26,16.163 25.91,16.588 25.73,17C25.55,17.412 25.303,17.76 24.989,18.043L15.889,26.659C15.48,27.045 15.028,27.335 14.535,27.529C14.042,27.723 13.531,27.819 13,27.818ZM8.667,14.295C9.172,14.295 9.6,14.108 9.949,13.734C10.299,13.36 10.473,12.904 10.472,12.364C10.471,11.824 10.296,11.366 9.948,10.991C9.599,10.616 9.172,10.43 8.667,10.432C8.161,10.434 7.734,10.621 7.384,10.993C7.034,11.365 6.86,11.822 6.861,12.364C6.862,12.906 7.037,13.363 7.385,13.736C7.734,14.109 8.161,14.295 8.667,14.295ZM10.472,16.382C11.507,16.923 12.597,17.097 13.741,16.904C14.885,16.712 15.89,16.203 16.756,15.377C17.574,14.63 18.11,13.69 18.363,12.557C18.616,11.423 18.49,10.355 17.983,9.35L10.472,16.382ZM13,9.659C13.506,9.659 13.933,9.472 14.283,9.098C14.632,8.724 14.807,8.267 14.806,7.727C14.805,7.187 14.63,6.73 14.281,6.355C13.933,5.98 13.506,5.793 13,5.795C12.494,5.798 12.067,5.985 11.717,6.356C11.368,6.728 11.193,7.185 11.194,7.727C11.195,8.269 11.37,8.727 11.719,9.1C12.067,9.473 12.494,9.659 13,9.659Z" fill="#E73C34"/>
</svg>
