<svg width="40" height="48" viewBox="0 0 40 48" fill="none" xmlns="http://www.w3.org/2000/svg" xmlns:xlink="http://www.w3.org/1999/xlink">
<path d="M1.827,0.993C0.167,2.654 0.167,5.323 0.167,10.666L0.167,36.166C0.167,41.51 0.167,44.179 1.827,45.839C3.488,47.5 6.157,47.5 11.5,47.5L28.5,47.5C33.844,47.5 36.513,47.5 38.173,45.839C39.834,44.179 39.834,41.51 39.834,36.166L39.834,10.666C39.834,5.323 39.834,2.654 38.173,0.993C36.513,-0.667 33.844,-0.667 28.5,-0.667L11.5,-0.667C6.157,-0.667 3.488,-0.667 1.827,0.993ZM11.5,10.666C10.749,10.666 10.028,10.965 9.497,11.496C8.966,12.028 8.667,12.748 8.667,13.5C8.667,14.251 8.966,14.972 9.497,15.503C10.028,16.034 10.749,16.333 11.5,16.333L28.5,16.333C29.252,16.333 29.972,16.034 30.504,15.503C31.035,14.972 31.334,14.251 31.334,13.5C31.334,12.748 31.035,12.028 30.504,11.496C29.972,10.965 29.252,10.666 28.5,10.666L11.5,10.666ZM11.5,22C10.749,22 10.028,22.298 9.497,22.83C8.966,23.361 8.667,24.082 8.667,24.833C8.667,25.584 8.966,26.305 9.497,26.836C10.028,27.368 10.749,27.666 11.5,27.666L28.5,27.666C29.252,27.666 29.972,27.368 30.504,26.836C31.035,26.305 31.334,25.584 31.334,24.833C31.334,24.082 31.035,23.361 30.504,22.83C29.972,22.298 29.252,22 28.5,22L11.5,22ZM11.5,33.333C10.749,33.333 10.028,33.632 9.497,34.163C8.966,34.694 8.667,35.415 8.667,36.166C8.667,36.918 8.966,37.638 9.497,38.17C10.028,38.701 10.749,39 11.5,39L22.834,39C23.585,39 24.306,38.701 24.837,38.17C25.368,37.638 25.667,36.918 25.667,36.166C25.667,35.415 25.368,34.694 24.837,34.163C24.306,33.632 23.585,33.333 22.834,33.333L11.5,33.333Z" clip-rule="evenodd" fill-rule="evenodd" fill="#D3D1D8"/>
</svg>
