<svg width="48" height="48" viewBox="0 0 48 48" fill="none" xmlns="http://www.w3.org/2000/svg" xmlns:xlink="http://www.w3.org/1999/xlink">
<path d="M47.717,43.923C44.011,37.52 38.194,33.027 31.434,31.121C34.721,29.451 37.349,26.722 38.894,23.375C40.44,20.029 40.814,16.259 39.955,12.674C39.096,9.089 37.055,5.897 34.16,3.614C31.266,1.331 27.687,0.09 24,0.09C20.314,0.09 16.735,1.331 13.84,3.614C10.946,5.897 8.904,9.089 8.045,12.674C7.186,16.259 7.56,20.029 9.106,23.375C10.652,26.722 13.279,29.451 16.566,31.121C9.806,33.024 3.989,37.517 0.284,43.923C0.182,44.083 0.114,44.262 0.083,44.449C0.052,44.636 0.059,44.828 0.105,45.012C0.15,45.196 0.232,45.369 0.345,45.521C0.459,45.673 0.603,45.8 0.767,45.895C0.931,45.99 1.113,46.05 1.301,46.073C1.489,46.096 1.68,46.081 1.862,46.028C2.044,45.975 2.214,45.886 2.361,45.766C2.508,45.646 2.629,45.497 2.717,45.329C7.219,37.55 15.174,32.907 24,32.907C32.827,32.907 40.781,37.55 45.284,45.329C45.372,45.497 45.493,45.646 45.639,45.766C45.786,45.886 45.956,45.975 46.138,46.028C46.32,46.081 46.511,46.096 46.699,46.073C46.888,46.05 47.069,45.99 47.234,45.895C47.398,45.8 47.541,45.673 47.655,45.521C47.769,45.369 47.851,45.196 47.896,45.012C47.941,44.828 47.948,44.636 47.917,44.449C47.887,44.262 47.818,44.083 47.717,43.923ZM10.406,16.501C10.406,13.812 11.204,11.184 12.697,8.949C14.191,6.713 16.314,4.971 18.798,3.942C21.282,2.913 24.015,2.644 26.652,3.168C29.289,3.693 31.711,4.988 33.612,6.889C35.513,8.79 36.808,11.212 37.333,13.849C37.857,16.486 37.588,19.219 36.559,21.703C35.53,24.187 33.788,26.31 31.552,27.804C29.317,29.297 26.689,30.095 24,30.095C20.396,30.09 16.941,28.657 14.393,26.108C11.844,23.56 10.411,20.105 10.406,16.501Z" fill="#E73C34"/>
</svg>
