<svg width="36" height="40" viewBox="0 0 36 40" fill="none" xmlns="http://www.w3.org/2000/svg" xmlns:xlink="http://www.w3.org/1999/xlink">
<path d="M33.92,13.92C32.58,12.44 30.56,11.58 27.76,11.28L27.76,9.76C27.76,7.02 26.6,4.38 24.56,2.54C22.5,0.66 19.82,-0.22 17.04,0.04C12.26,0.5 8.24,5.12 8.24,10.12L8.24,11.28C5.44,11.58 3.42,12.44 2.08,13.92C0.14,16.08 0.2,18.96 0.42,20.96L1.82,32.1C2.24,36 3.82,40 12.42,40L23.58,40C32.18,40 33.76,36 34.18,32.12L35.58,20.94C35.8,18.96 35.84,16.08 33.92,13.92ZM17.32,2.82C19.32,2.64 21.22,3.26 22.7,4.6C24.16,5.92 24.98,7.8 24.98,9.76L24.98,11.16L11.02,11.16L11.02,10.12C11.02,6.56 13.96,3.14 17.32,2.82ZM10.84,22.3L10.82,22.3C9.72,22.3 8.82,21.4 8.82,20.3C8.82,19.2 9.72,18.3 10.82,18.3C11.94,18.3 12.84,19.2 12.84,20.3C12.84,21.4 11.94,22.3 10.84,22.3ZM24.84,22.3L24.82,22.3C23.72,22.3 22.82,21.4 22.82,20.3C22.82,19.2 23.72,18.3 24.82,18.3C25.94,18.3 26.84,19.2 26.84,20.3C26.84,21.4 25.94,22.3 24.84,22.3Z" fill="#00C566"/>
</svg>
