<svg width="64" height="20" viewBox="0 0 64 20" fill="none" xmlns="http://www.w3.org/2000/svg" xmlns:xlink="http://www.w3.org/1999/xlink">
<path d="M26.745,19.667L21.522,19.667L24.786,0.345L30.009,0.345L26.745,19.667ZM17.129,0.345L12.15,13.635L11.561,10.773L11.562,10.774L9.805,2.085C9.805,2.085 9.592,0.345 7.327,0.345L-0.903,0.345L-1,0.672C-1,0.672 1.517,1.177 4.463,2.881L9,19.667L14.441,19.667L22.749,0.345L17.129,0.345L17.129,0.345ZM58.205,19.667L63,19.667L58.819,0.345L54.621,0.345C52.683,0.345 52.21,1.785 52.21,1.785L44.422,19.667L49.866,19.667L50.954,16.797L57.593,16.797L58.205,19.667ZM52.458,12.832L55.202,5.601L56.746,12.832L52.458,12.832ZM44.83,4.992L45.575,0.842C45.575,0.842 43.276,0 40.878,0C38.287,0 32.133,1.091 32.133,6.396C32.133,11.388 39.356,11.45 39.356,14.072C39.356,16.694 32.877,16.224 30.739,14.571L29.962,18.909C29.962,18.909 32.294,20 35.857,20C39.421,20 44.797,18.223 44.797,13.385C44.797,8.361 37.509,7.894 37.509,5.709C37.509,3.525 42.595,3.805 44.83,4.992L44.83,4.992Z" fill="#2566AF"/>
</svg>
