<svg width="44" height="44" viewBox="0 0 44 44" fill="none" xmlns="http://www.w3.org/2000/svg" xmlns:xlink="http://www.w3.org/1999/xlink">
<path d="M22,43.5C33.828,43.5 43.5,33.828 43.5,22L40.5,22C40.5,32.172 32.172,40.5 22,40.5L22,43.5ZM43.5,22C43.5,10.172 33.828,0.5 22,0.5L22,3.5C32.172,3.5 40.5,11.828 40.5,22L43.5,22ZM22,0.5C10.172,0.5 0.5,10.172 0.5,22L3.5,22C3.5,11.828 11.828,3.5 22,3.5L22,0.5ZM0.5,22C0.5,33.828 10.172,43.5 22,43.5L22,40.5C11.828,40.5 3.5,32.172 3.5,22L0.5,22Z" fill="#78828A"/>
</svg>
