<svg width="26" height="14" viewBox="0 0 26 14" fill="none" xmlns="http://www.w3.org/2000/svg" xmlns:xlink="http://www.w3.org/1999/xlink">
<path d="M22.164,11.792C22.75,12.378 23.7,12.378 24.285,11.792C24.871,11.207 24.871,10.257 24.285,9.671L22.164,11.792ZM14.531,2.038L13.471,3.099L14.531,2.038ZM10.798,2.038L11.859,3.099L10.798,2.038ZM1.044,9.671C0.458,10.257 0.458,11.207 1.044,11.792C1.63,12.378 2.58,12.378 3.165,11.792L1.044,9.671ZM24.285,9.671L15.592,0.978L13.471,3.099L22.164,11.792L24.285,9.671ZM15.592,0.978C13.98,-0.635 11.35,-0.635 9.737,0.978L11.859,3.099C12.3,2.658 13.03,2.658 13.471,3.099L15.592,0.978ZM9.737,0.978L1.044,9.671L3.165,11.792L11.859,3.099L9.737,0.978Z" transform="rotate(180 12.665 6)" fill="#0C0507"/>
</svg>
