<svg width="40" height="38" viewBox="0 0 40 38" fill="none" xmlns="http://www.w3.org/2000/svg" xmlns:xlink="http://www.w3.org/1999/xlink">
<path d="M38.973,35.937C36.008,30.815 31.355,27.221 25.947,25.696C28.576,24.36 30.679,22.177 31.915,19.5C33.152,16.822 33.451,13.806 32.764,10.938C32.076,8.07 30.443,5.517 28.128,3.691C25.812,1.864 22.949,0.871 20,0.871C17.051,0.871 14.187,1.864 11.872,3.691C9.556,5.517 7.923,8.07 7.236,10.938C6.549,13.806 6.848,16.822 8.084,19.5C9.321,22.177 11.423,24.36 14.052,25.696C8.645,27.219 3.991,30.813 1.027,35.937C0.945,36.065 0.891,36.209 0.866,36.358C0.841,36.508 0.847,36.661 0.883,36.809C0.919,36.956 0.985,37.094 1.076,37.216C1.167,37.337 1.282,37.439 1.413,37.515C1.544,37.591 1.69,37.639 1.84,37.658C1.991,37.676 2.144,37.664 2.29,37.621C2.435,37.579 2.571,37.508 2.688,37.412C2.806,37.316 2.903,37.197 2.973,37.062C6.575,30.839 12.939,27.125 20,27.125C27.061,27.125 33.425,30.839 37.027,37.062C37.097,37.197 37.194,37.316 37.311,37.412C37.429,37.508 37.564,37.579 37.71,37.621C37.856,37.664 38.008,37.676 38.159,37.658C38.31,37.639 38.455,37.591 38.586,37.515C38.718,37.439 38.832,37.337 38.923,37.216C39.015,37.094 39.08,36.956 39.116,36.809C39.152,36.661 39.158,36.508 39.134,36.358C39.109,36.209 39.054,36.065 38.973,35.937ZM9.125,14C9.125,11.849 9.763,9.747 10.958,7.958C12.153,6.17 13.851,4.776 15.838,3.953C17.825,3.13 20.012,2.914 22.121,3.334C24.231,3.754 26.169,4.789 27.69,6.31C29.21,7.831 30.246,9.769 30.666,11.878C31.085,13.988 30.87,16.174 30.047,18.162C29.224,20.149 27.83,21.847 26.042,23.042C24.253,24.237 22.151,24.875 20,24.875C17.117,24.871 14.353,23.725 12.314,21.686C10.275,19.647 9.128,16.883 9.125,14Z" fill="#E73C34"/>
</svg>
