<svg width="30" height="30" viewBox="0 0 30 30" fill="none" xmlns="http://www.w3.org/2000/svg" xmlns:xlink="http://www.w3.org/1999/xlink">
<path d="M15.169,28.886C13.187,28.886 11.324,28.51 9.58,27.757C7.836,27.005 6.32,25.985 5.03,24.697C3.74,23.408 2.719,21.893 1.967,20.149C1.216,18.406 0.839,16.544 0.838,14.563C0.837,12.583 1.214,10.721 1.967,8.977C2.721,7.234 3.742,5.718 5.03,4.43C6.318,3.142 7.835,2.121 9.58,1.369C11.326,0.616 13.189,0.24 15.169,0.24C17.15,0.24 19.013,0.616 20.758,1.369C22.504,2.121 24.02,3.142 25.308,4.43C26.596,5.718 27.618,7.234 28.372,8.977C29.127,10.721 29.503,12.583 29.5,14.563C29.497,16.544 29.121,18.406 28.371,20.149C27.621,21.893 26.6,23.408 25.308,24.697C24.017,25.985 22.5,27.005 20.758,27.759C19.017,28.512 17.153,28.888 15.169,28.886ZM15.169,26.021C16.459,26.021 17.701,25.813 18.895,25.396C20.089,24.978 21.188,24.375 22.191,23.587L6.141,7.545C5.352,8.548 4.749,9.646 4.331,10.839C3.912,12.033 3.703,13.274 3.704,14.563C3.704,17.762 4.815,20.471 7.036,22.691C9.258,24.911 11.969,26.021 15.169,26.021ZM24.198,21.581C24.986,20.579 25.589,19.481 26.008,18.287C26.426,17.094 26.635,15.852 26.634,14.563C26.634,11.364 25.523,8.655 23.302,6.435C21.081,4.215 18.37,3.105 15.169,3.105C13.879,3.105 12.637,3.313 11.443,3.731C10.249,4.148 9.15,4.751 8.147,5.54L24.198,21.581Z" fill="#FFFFFF"/>
</svg>
