<svg width="36" height="18" viewBox="0 0 36 18" fill="none" xmlns="http://www.w3.org/2000/svg" xmlns:xlink="http://www.w3.org/1999/xlink">
<path d="M32.779,17.155C33.365,17.741 34.315,17.741 34.9,17.155C35.486,16.57 35.486,15.62 34.9,15.034L32.779,17.155ZM20.8,3.055L19.739,4.115L20.8,3.055ZM15.2,3.055L16.261,4.115L15.2,3.055ZM1.099,15.034C0.513,15.62 0.513,16.57 1.099,17.155C1.685,17.741 2.635,17.741 3.221,17.155L1.099,15.034ZM34.9,15.034L21.861,1.994L19.739,4.115L32.779,17.155L34.9,15.034ZM21.861,1.994C19.735,-0.132 16.265,-0.132 14.139,1.994L16.261,4.115C17.215,3.161 18.785,3.161 19.739,4.115L21.861,1.994ZM14.139,1.994L1.099,15.034L3.221,17.155L16.261,4.115L14.139,1.994Z" transform="rotate(-360 18 8.997)" fill="#0C0507"/>
</svg>
