<svg width="64" height="20" viewBox="0 0 64 20" fill="none" xmlns="http://www.w3.org/2000/svg" xmlns:xlink="http://www.w3.org/1999/xlink">
<path d="M27.745,19.667L22.522,19.667L25.786,0.345L31.009,0.345L27.745,19.667ZM18.129,0.345L13.15,13.635L12.561,10.773L12.562,10.774L10.805,2.085C10.805,2.085 10.592,0.345 8.327,0.345L0.097,0.345L0,0.672C0,0.672 2.517,1.177 5.463,2.881L10,19.667L15.441,19.667L23.749,0.345L18.129,0.345L18.129,0.345ZM59.205,19.667L64,19.667L59.819,0.345L55.621,0.345C53.683,0.345 53.21,1.785 53.21,1.785L45.422,19.667L50.866,19.667L51.954,16.797L58.593,16.797L59.205,19.667ZM53.458,12.832L56.202,5.601L57.746,12.832L53.458,12.832ZM45.83,4.992L46.575,0.842C46.575,0.842 44.276,0 41.878,0C39.287,0 33.133,1.091 33.133,6.396C33.133,11.388 40.356,11.45 40.356,14.072C40.356,16.694 33.877,16.224 31.739,14.571L30.962,18.909C30.962,18.909 33.294,20 36.857,20C40.421,20 45.797,18.223 45.797,13.385C45.797,8.361 38.509,7.894 38.509,5.709C38.509,3.525 43.595,3.805 45.83,4.992L45.83,4.992Z" fill="#2566AF"/>
</svg>
