<svg width="44" height="44" viewBox="0 0 44 44" fill="none" xmlns="http://www.w3.org/2000/svg" xmlns:xlink="http://www.w3.org/1999/xlink">
<path d="M21,43.5C32.828,43.5 42.5,33.828 42.5,22L39.5,22C39.5,32.172 31.172,40.5 21,40.5L21,43.5ZM42.5,22C42.5,10.172 32.828,0.5 21,0.5L21,3.5C31.172,3.5 39.5,11.828 39.5,22L42.5,22ZM21,0.5C9.172,0.5 -0.5,10.172 -0.5,22L2.5,22C2.5,11.828 10.828,3.5 21,3.5L21,0.5ZM-0.5,22C-0.5,33.828 9.172,43.5 21,43.5L21,40.5C10.828,40.5 2.5,32.172 2.5,22L-0.5,22Z" fill="#78828A"/>
</svg>
