<svg width="42" height="30" viewBox="0 0 42 30" fill="none" xmlns="http://www.w3.org/2000/svg" xmlns:xlink="http://www.w3.org/1999/xlink">
<path d="M23.667,16.234C22.139,16.234 20.84,15.699 19.771,14.63C18.702,13.56 18.167,12.262 18.167,10.734C18.167,9.206 18.702,7.907 19.771,6.838C20.84,5.769 22.139,5.234 23.667,5.234C25.195,5.234 26.493,5.769 27.563,6.838C28.632,7.907 29.167,9.206 29.167,10.734C29.167,12.262 28.632,13.56 27.563,14.63C26.493,15.699 25.195,16.234 23.667,16.234ZM10.833,21.734C9.825,21.734 8.962,21.375 8.245,20.658C7.527,19.94 7.168,19.077 7.167,18.067L7.167,3.401C7.167,2.392 7.526,1.529 8.245,0.812C8.963,0.094 9.826,-0.265 10.833,-0.266L36.5,-0.266C37.508,-0.266 38.372,0.093 39.091,0.812C39.809,1.531 40.168,2.393 40.167,3.401L40.167,18.067C40.167,19.076 39.808,19.939 39.091,20.658C38.373,21.376 37.51,21.735 36.5,21.734L10.833,21.734ZM14.5,18.067L32.833,18.067C32.833,17.059 33.193,16.196 33.911,15.479C34.63,14.761 35.493,14.402 36.5,14.401L36.5,7.067C35.492,7.067 34.629,6.708 33.911,5.991C33.194,5.274 32.835,4.41 32.833,3.401L14.5,3.401C14.5,4.409 14.141,5.272 13.424,5.991C12.707,6.71 11.843,7.068 10.833,7.067L10.833,14.401C11.842,14.401 12.705,14.76 13.424,15.479C14.143,16.197 14.501,17.06 14.5,18.067ZM34.667,29.067L3.5,29.067C2.492,29.067 1.629,28.708 0.911,27.991C0.194,27.274 -0.165,26.41 -0.167,25.4L-0.167,5.234L3.5,5.234L3.5,25.4L34.667,25.4L34.667,29.067Z" fill="#E73C34"/>
</svg>
