<svg width="44" height="40" viewBox="0 0 44 40" fill="none" xmlns="http://www.w3.org/2000/svg" xmlns:xlink="http://www.w3.org/1999/xlink">
<path d="M6,2L6,0L6,2ZM18,2L20,2C20,0.895 19.105,0 18,0L18,2ZM18,38L18,40C19.105,40 20,39.105 20,38L18,38ZM2,34L0,34L2,34ZM26,2L26,0C24.895,0 24,0.895 24,2L26,2ZM38,2L38,0L38,2ZM42,16L42,18C43.105,18 44,17.105 44,16L42,16ZM26,16L24,16C24,17.105 24.895,18 26,18L26,16ZM26,24L26,22C24.895,22 24,22.895 24,24L26,24ZM42,24L44,24C44,22.895 43.105,22 42,22L42,24ZM26,38L24,38C24,39.105 24.895,40 26,40L26,38ZM4,6C4,5.47 4.211,4.961 4.586,4.586L1.757,1.757C0.632,2.883 0,4.409 0,6L4,6ZM4.586,4.586C4.961,4.211 5.47,4 6,4L6,0C4.409,0 2.883,0.632 1.757,1.757L4.586,4.586ZM6,4L18,4L18,0L6,0L6,4ZM16,2L16,38L20,38L20,2L16,2ZM18,36L6,36L6,40L18,40L18,36ZM6,36C5.47,36 4.961,35.789 4.586,35.414L1.757,38.243C2.883,39.368 4.409,40 6,40L6,36ZM4.586,35.414C4.211,35.039 4,34.53 4,34L0,34C0,35.591 0.632,37.117 1.757,38.243L4.586,35.414ZM4,34L4,6L0,6L0,34L4,34ZM26,4L38,4L38,0L26,0L26,4ZM38,4C38.53,4 39.039,4.211 39.414,4.586L42.243,1.757C41.117,0.632 39.591,0 38,0L38,4ZM39.414,4.586C39.789,4.961 40,5.47 40,6L44,6C44,4.409 43.368,2.883 42.243,1.757L39.414,4.586ZM40,6L40,16L44,16L44,6L40,6ZM42,14L26,14L26,18L42,18L42,14ZM28,16L28,2L24,2L24,16L28,16ZM26,26L42,26L42,22L26,22L26,26ZM40,24L40,34L44,34L44,24L40,24ZM40,34C40,34.53 39.789,35.039 39.414,35.414L42.243,38.243C43.368,37.117 44,35.591 44,34L40,34ZM39.414,35.414C39.039,35.789 38.53,36 38,36L38,40C39.591,40 41.117,39.368 42.243,38.243L39.414,35.414ZM38,36L26,36L26,40L38,40L38,36ZM28,38L28,24L24,24L24,38L28,38Z" fill="#E73C34"/>
</svg>
