<svg width="76" height="74" viewBox="0 0 76 74" fill="none" xmlns="http://www.w3.org/2000/svg" xmlns:xlink="http://www.w3.org/1999/xlink">
<path d="M26.727,33.828C25.278,33.828 24.103,35.003 24.103,36.452C24.103,37.901 25.278,39.076 26.727,39.076L26.727,33.828ZM61.461,39.076C62.91,39.076 64.085,37.901 64.085,36.452C64.085,35.003 62.91,33.828 61.461,33.828L61.461,39.076ZM50.208,36.452C50.208,35.003 49.033,33.828 47.584,33.828C46.135,33.828 44.96,35.003 44.96,36.452L50.208,36.452ZM44.96,43.264C44.96,44.713 46.135,45.888 47.584,45.888C49.033,45.888 50.208,44.713 50.208,43.264L44.96,43.264ZM59.319,36.452C59.319,35.003 58.144,33.828 56.695,33.828C55.246,33.828 54.071,35.003 54.071,36.452L59.319,36.452ZM54.071,46.959C54.071,48.408 55.246,49.583 56.695,49.583C58.144,49.583 59.319,48.408 59.319,46.959L54.071,46.959ZM37.318,70.87L37.511,68.253C37.383,68.244 37.254,68.244 37.126,68.253L37.318,70.87ZM70.141,50.202L72.595,51.134L72.598,51.124L70.141,50.202ZM70.141,22.701L72.598,21.779L72.595,21.77L70.141,22.701ZM37.318,2.034L37.126,4.651C37.254,4.66 37.383,4.66 37.511,4.651L37.318,2.034ZM4.495,22.701L2.042,21.77L2.039,21.779L4.495,22.701ZM4.495,50.202L2.039,51.124L2.042,51.134L4.495,50.202ZM20.66,27.498C22.568,27.498 24.114,29.044 24.114,30.952L29.362,30.952C29.362,26.146 25.466,22.25 20.66,22.25L20.66,27.498ZM24.114,30.952L24.114,41.952L29.362,41.952L29.362,30.952L24.114,30.952ZM24.114,41.952C24.114,43.859 22.568,45.405 20.66,45.405L20.66,50.654C25.466,50.654 29.362,46.758 29.362,41.952L24.114,41.952ZM20.66,45.405C18.753,45.405 17.207,43.859 17.207,41.952L11.959,41.952C11.959,46.758 15.855,50.654 20.66,50.654L20.66,45.405ZM17.207,41.952L17.207,30.952L11.959,30.952L11.959,41.952L17.207,41.952ZM17.207,30.952C17.207,29.044 18.753,27.498 20.66,27.498L20.66,22.25C15.855,22.25 11.959,26.146 11.959,30.952L17.207,30.952ZM26.727,39.076L61.461,39.076L61.461,33.828L26.727,33.828L26.727,39.076ZM44.96,36.452L44.96,43.264L50.208,43.264L50.208,36.452L44.96,36.452ZM54.071,36.452L54.071,46.959L59.319,46.959L59.319,36.452L54.071,36.452ZM37.318,70.87C37.126,73.487 37.127,73.487 37.129,73.487C37.129,73.487 37.131,73.487 37.132,73.488C37.134,73.488 37.137,73.488 37.14,73.488C37.147,73.489 37.154,73.489 37.163,73.49C37.182,73.491 37.206,73.492 37.236,73.494C37.296,73.498 37.378,73.502 37.483,73.506C37.692,73.515 37.987,73.524 38.36,73.527C39.105,73.532 40.161,73.513 41.447,73.415C44.014,73.219 47.537,72.71 51.357,71.447C59.041,68.907 67.983,63.281 72.595,51.134L67.688,49.271C63.776,59.576 56.307,64.283 49.71,66.464C46.39,67.562 43.305,68.01 41.049,68.181C39.925,68.267 39.015,68.283 38.398,68.279C38.09,68.277 37.855,68.269 37.704,68.263C37.628,68.26 37.573,68.257 37.541,68.255C37.524,68.254 37.514,68.253 37.509,68.253C37.506,68.253 37.505,68.253 37.505,68.253C37.505,68.253 37.506,68.253 37.507,68.253C37.507,68.253 37.508,68.253 37.508,68.253C37.509,68.253 37.511,68.253 37.318,70.87ZM72.598,51.124C76.148,41.665 76.148,31.239 72.598,21.779L67.684,23.623C70.789,31.894 70.789,41.01 67.684,49.28L72.598,51.124ZM72.595,21.77C67.983,9.623 59.041,3.996 51.357,1.456C47.537,0.193 44.014,-0.316 41.447,-0.511C40.161,-0.609 39.105,-0.629 38.36,-0.623C37.987,-0.621 37.692,-0.612 37.483,-0.603C37.378,-0.598 37.296,-0.594 37.236,-0.591C37.206,-0.589 37.182,-0.587 37.163,-0.586C37.154,-0.585 37.147,-0.585 37.14,-0.585C37.137,-0.584 37.134,-0.584 37.132,-0.584C37.131,-0.584 37.129,-0.584 37.129,-0.584C37.127,-0.584 37.126,-0.584 37.318,2.034C37.511,4.651 37.509,4.651 37.508,4.651C37.508,4.651 37.507,4.651 37.507,4.651C37.506,4.651 37.505,4.651 37.505,4.651C37.505,4.651 37.506,4.651 37.509,4.651C37.514,4.65 37.524,4.65 37.541,4.649C37.573,4.647 37.628,4.644 37.704,4.641C37.855,4.634 38.09,4.627 38.398,4.625C39.015,4.62 39.925,4.637 41.049,4.722C43.305,4.894 46.39,5.342 49.71,6.439C56.307,8.62 63.776,13.328 67.688,23.633L72.595,21.77ZM37.318,2.034C37.511,-0.584 37.509,-0.584 37.508,-0.584C37.507,-0.584 37.506,-0.584 37.505,-0.584C37.502,-0.584 37.499,-0.584 37.496,-0.585C37.49,-0.585 37.482,-0.585 37.473,-0.586C37.455,-0.587 37.431,-0.589 37.401,-0.591C37.341,-0.594 37.258,-0.598 37.154,-0.603C36.945,-0.612 36.649,-0.621 36.277,-0.623C35.532,-0.629 34.476,-0.609 33.189,-0.511C30.623,-0.316 27.1,0.193 23.279,1.456C15.596,3.996 6.654,9.623 2.042,21.77L6.949,23.633C10.861,13.328 18.33,8.62 24.927,6.439C28.247,5.342 31.332,4.894 33.588,4.722C34.712,4.637 35.621,4.62 36.239,4.625C36.547,4.627 36.782,4.634 36.933,4.641C37.009,4.644 37.063,4.647 37.096,4.649C37.112,4.65 37.123,4.65 37.128,4.651C37.131,4.651 37.132,4.651 37.131,4.651C37.131,4.651 37.131,4.651 37.13,4.651C37.129,4.651 37.129,4.651 37.128,4.651C37.127,4.651 37.126,4.651 37.318,2.034ZM2.039,21.779C-1.512,31.239 -1.512,41.665 2.039,51.124L6.952,49.28C3.848,41.01 3.848,31.894 6.952,23.623L2.039,21.779ZM2.042,51.134C6.654,63.281 15.596,68.907 23.279,71.447C27.1,72.71 30.623,73.219 33.189,73.415C34.476,73.513 35.532,73.532 36.277,73.527C36.649,73.524 36.945,73.515 37.154,73.506C37.258,73.502 37.341,73.498 37.401,73.494C37.431,73.492 37.455,73.491 37.473,73.49C37.482,73.489 37.49,73.489 37.496,73.488C37.499,73.488 37.502,73.488 37.505,73.488C37.506,73.487 37.507,73.487 37.508,73.487C37.509,73.487 37.511,73.487 37.318,70.87C37.126,68.253 37.127,68.253 37.128,68.253C37.129,68.253 37.129,68.253 37.13,68.253C37.131,68.253 37.131,68.253 37.131,68.253C37.132,68.253 37.131,68.253 37.128,68.253C37.123,68.253 37.112,68.254 37.096,68.255C37.063,68.257 37.009,68.26 36.933,68.263C36.782,68.269 36.547,68.277 36.239,68.279C35.621,68.283 34.712,68.267 33.588,68.181C31.332,68.01 28.247,67.562 24.927,66.464C18.33,64.283 10.861,59.576 6.949,49.271L2.042,51.134Z" fill="#E95322"/>
</svg>
