<svg width="60" height="60" viewBox="0 0 60 60" fill="none" xmlns="http://www.w3.org/2000/svg" xmlns:xlink="http://www.w3.org/1999/xlink">
<path d="M51.122,51.123L42.232,51.123L42.232,37.201C42.232,33.881 42.173,29.607 37.609,29.607C32.978,29.607 32.27,33.224 32.27,36.959L32.27,51.123L23.38,51.123L23.38,22.492L31.914,22.492L31.914,26.405L32.034,26.405C32.888,24.944 34.122,23.743 35.605,22.929C37.088,22.114 38.764,21.717 40.454,21.78C49.465,21.78 51.126,27.707 51.126,35.417L51.122,51.123ZM13.349,18.579C10.499,18.579 8.189,16.27 8.189,13.42C8.188,10.571 10.498,8.261 13.347,8.26C16.196,8.26 18.506,10.569 18.507,13.419C18.507,14.787 17.964,16.099 16.996,17.067C16.029,18.035 14.717,18.578 13.349,18.579ZM17.794,51.124L8.894,51.124L8.894,22.492L17.794,22.492L17.794,51.123L17.794,51.124ZM55.554,0.004L4.427,0.004C2.011,-0.023 0.029,1.913 0,4.329L0,55.67C0.028,58.087 2.01,60.025 4.427,59.999L55.554,59.999C57.977,60.029 59.966,58.092 60,55.67L60,4.325C59.965,1.904 57.976,-0.032 55.554,0Z" fill="#0A66C2"/>
</svg>
