<svg width="60" height="60" viewBox="0 0 60 60" fill="none" xmlns="http://www.w3.org/2000/svg" xmlns:xlink="http://www.w3.org/1999/xlink">
<path d="M30,0C32.754,0 35.41,0.352 37.969,1.055C40.527,1.758 42.92,2.764 45.146,4.072C47.373,5.381 49.395,6.943 51.211,8.76C53.027,10.576 54.59,12.607 55.898,14.854C57.207,17.1 58.213,19.492 58.916,22.031C59.619,24.57 59.98,27.227 60,30C60,32.754 59.648,35.41 58.945,37.969C58.242,40.527 57.236,42.92 55.928,45.146C54.619,47.373 53.057,49.395 51.24,51.211C49.424,53.027 47.393,54.59 45.146,55.898C42.9,57.207 40.508,58.213 37.969,58.916C35.43,59.619 32.773,59.98 30,60C27.246,60 24.59,59.648 22.031,58.945C19.473,58.242 17.08,57.236 14.854,55.928C12.627,54.619 10.605,53.057 8.789,51.24C6.973,49.424 5.41,47.393 4.102,45.146C2.793,42.9 1.787,40.518 1.084,37.998C0.381,35.479 0.02,32.812 0,30C0,27.246 0.352,24.59 1.055,22.031C1.758,19.473 2.764,17.08 4.072,14.854C5.381,12.627 6.943,10.605 8.76,8.789C10.576,6.973 12.607,5.41 14.854,4.102C17.1,2.793 19.482,1.787 22.002,1.084C24.521,0.381 27.188,0.02 30,0ZM30,56.25C32.402,56.25 34.717,55.938 36.943,55.312C39.17,54.688 41.26,53.809 43.213,52.676C45.166,51.543 46.943,50.166 48.545,48.545C50.146,46.924 51.514,45.156 52.646,43.242C53.779,41.328 54.668,39.238 55.312,36.973C55.957,34.707 56.27,32.383 56.25,30C56.25,27.598 55.938,25.283 55.312,23.057C54.688,20.83 53.809,18.74 52.676,16.787C51.543,14.834 50.166,13.057 48.545,11.455C46.924,9.854 45.156,8.486 43.242,7.354C41.328,6.221 39.238,5.332 36.973,4.688C34.707,4.043 32.383,3.73 30,3.75C27.598,3.75 25.283,4.063 23.057,4.688C20.83,5.313 18.74,6.191 16.787,7.324C14.834,8.457 13.057,9.834 11.455,11.455C9.854,13.076 8.486,14.844 7.354,16.758C6.221,18.672 5.332,20.762 4.688,23.027C4.043,25.293 3.73,27.617 3.75,30C3.75,32.402 4.063,34.717 4.688,36.943C5.313,39.17 6.191,41.26 7.324,43.213C8.457,45.166 9.834,46.943 11.455,48.545C13.076,50.146 14.844,51.514 16.758,52.646C18.672,53.779 20.762,54.668 23.027,55.312C25.293,55.957 27.617,56.27 30,56.25ZM47.49,30.469L48.896,26.25L51.094,26.25L48.604,33.75L46.406,33.75L45,29.531L43.594,33.75L41.396,33.75L38.906,26.25L41.104,26.25L42.51,30.469L43.916,26.25L46.084,26.25L47.49,30.469ZM33.896,26.25L36.094,26.25L33.604,33.75L31.406,33.75L30,29.531L28.594,33.75L26.396,33.75L23.906,26.25L26.104,26.25L27.51,30.469L28.916,26.25L31.084,26.25L32.49,30.469L33.896,26.25ZM18.896,26.25L21.094,26.25L18.604,33.75L16.406,33.75L15,29.531L13.594,33.75L11.396,33.75L8.906,26.25L11.104,26.25L12.51,30.469L13.916,26.25L16.084,26.25L17.49,30.469L18.896,26.25Z" fill="#E73C34"/>
</svg>
