<svg width="40" height="54" viewBox="0 0 40 54" fill="none" xmlns="http://www.w3.org/2000/svg" xmlns:xlink="http://www.w3.org/1999/xlink">
<path d="M20,40.5C18.674,40.5 17.402,39.973 16.464,39.036C15.527,38.098 15,36.826 15,35.5C15,32.725 17.225,30.5 20,30.5C21.326,30.5 22.598,31.027 23.536,31.964C24.473,32.902 25,34.174 25,35.5C25,36.826 24.473,38.098 23.536,39.036C22.598,39.973 21.326,40.5 20,40.5ZM35,48L35,23L5,23L5,48L35,48ZM35,18C36.326,18 37.598,18.527 38.536,19.464C39.473,20.402 40,21.674 40,23L40,48C40,49.326 39.473,50.598 38.536,51.536C37.598,52.473 36.326,53 35,53L5,53C3.674,53 2.402,52.473 1.464,51.536C0.527,50.598 0,49.326 0,48L0,23C0,20.225 2.225,18 5,18L7.5,18L7.5,13C7.5,9.685 8.817,6.505 11.161,4.161C13.505,1.817 16.685,0.5 20,0.5C21.642,0.5 23.267,0.823 24.784,1.452C26.3,2.08 27.678,3 28.839,4.161C30,5.322 30.92,6.7 31.548,8.216C32.177,9.733 32.5,11.358 32.5,13L32.5,18L35,18ZM20,5.5C18.011,5.5 16.103,6.29 14.697,7.697C13.29,9.103 12.5,11.011 12.5,13L12.5,18L27.5,18L27.5,13C27.5,11.011 26.71,9.103 25.303,7.697C23.897,6.29 21.989,5.5 20,5.5Z" fill="#E73C34"/>
</svg>
