<svg width="46" height="46" viewBox="0 0 46 46" fill="none" xmlns="http://www.w3.org/2000/svg" xmlns:xlink="http://www.w3.org/1999/xlink">
<path d="M22,-0.75C17.5,-0.75 13.102,0.584 9.361,3.084C5.62,5.584 2.704,9.137 0.982,13.294C-0.74,17.451 -1.191,22.025 -0.313,26.438C0.565,30.851 2.732,34.905 5.913,38.087C9.095,41.268 13.149,43.435 17.562,44.313C21.975,45.191 26.549,44.74 30.706,43.018C34.863,41.296 38.416,38.38 40.916,34.639C43.416,30.898 44.75,26.5 44.75,22C44.743,15.968 42.344,10.186 38.079,5.921C33.814,1.656 28.032,-0.743 22,-0.75L22,-0.75ZM30.237,27.763C30.4,27.925 30.529,28.118 30.617,28.33C30.706,28.543 30.751,28.77 30.751,29C30.751,29.23 30.706,29.458 30.618,29.671C30.53,29.883 30.401,30.076 30.239,30.239C30.076,30.401 29.883,30.53 29.671,30.618C29.458,30.706 29.23,30.751 29,30.751C28.77,30.751 28.543,30.706 28.33,30.617C28.118,30.529 27.925,30.4 27.763,30.237L22,24.475L16.237,30.237C15.909,30.565 15.464,30.749 15,30.748C14.537,30.748 14.092,30.564 13.764,30.236C13.436,29.908 13.252,29.463 13.252,29C13.251,28.536 13.435,28.091 13.763,27.763L19.525,22L13.763,16.237C13.435,15.909 13.251,15.464 13.252,15C13.252,14.537 13.436,14.092 13.764,13.764C14.092,13.436 14.537,13.252 15,13.252C15.464,13.251 15.909,13.435 16.237,13.763L22,19.525L27.763,13.763C28.091,13.435 28.536,13.251 29,13.252C29.463,13.252 29.908,13.436 30.236,13.764C30.564,14.092 30.748,14.537 30.749,15C30.749,15.464 30.565,15.909 30.237,16.237L24.475,22L30.237,27.763Z" fill="#E53935"/>
</svg>
