<svg width="48" height="48" viewBox="0 0 48 48" fill="none" xmlns="http://www.w3.org/2000/svg" xmlns:xlink="http://www.w3.org/1999/xlink">
<path d="M47.717,43.922C44.011,37.519 38.194,33.026 31.434,31.12C34.721,29.45 37.349,26.721 38.894,23.374C40.44,20.028 40.814,16.258 39.955,12.673C39.096,9.088 37.055,5.896 34.16,3.613C31.266,1.33 27.687,0.089 24,0.089C20.314,0.089 16.735,1.33 13.84,3.613C10.946,5.896 8.904,9.088 8.045,12.673C7.186,16.258 7.56,20.028 9.106,23.374C10.652,26.721 13.279,29.45 16.566,31.12C9.806,33.023 3.989,37.516 0.284,43.922C0.182,44.082 0.114,44.261 0.083,44.448C0.052,44.635 0.059,44.827 0.105,45.011C0.15,45.195 0.232,45.368 0.345,45.52C0.459,45.672 0.603,45.799 0.767,45.894C0.931,45.989 1.113,46.049 1.301,46.072C1.489,46.095 1.68,46.08 1.862,46.027C2.044,45.974 2.214,45.885 2.361,45.765C2.508,45.645 2.629,45.496 2.717,45.328C7.219,37.549 15.174,32.906 24,32.906C32.827,32.906 40.781,37.549 45.284,45.328C45.372,45.496 45.493,45.645 45.639,45.765C45.786,45.885 45.956,45.974 46.138,46.027C46.32,46.08 46.511,46.095 46.699,46.072C46.888,46.049 47.069,45.989 47.234,45.894C47.398,45.799 47.541,45.672 47.655,45.52C47.769,45.368 47.851,45.195 47.896,45.011C47.941,44.827 47.948,44.635 47.917,44.448C47.887,44.261 47.818,44.082 47.717,43.922ZM10.406,16.5C10.406,13.811 11.204,11.183 12.697,8.948C14.191,6.712 16.314,4.97 18.798,3.941C21.282,2.912 24.015,2.643 26.652,3.167C29.289,3.692 31.711,4.987 33.612,6.888C35.513,8.789 36.808,11.211 37.333,13.848C37.857,16.485 37.588,19.218 36.559,21.702C35.53,24.186 33.788,26.309 31.552,27.803C29.317,29.296 26.689,30.094 24,30.094C20.396,30.089 16.941,28.656 14.393,26.107C11.844,23.559 10.411,20.104 10.406,16.5Z" fill="#E73C34"/>
</svg>
