<svg width="30" height="30" viewBox="0 0 30 30" fill="none" xmlns="http://www.w3.org/2000/svg" xmlns:xlink="http://www.w3.org/1999/xlink">
<path d="M15.169,28.886C13.187,28.886 11.324,28.509 9.58,27.757C7.836,27.005 6.32,25.984 5.03,24.696C3.74,23.408 2.719,21.892 1.967,20.149C1.215,18.405 0.839,16.543 0.838,14.563C0.837,12.582 1.213,10.72 1.967,8.977C2.721,7.233 3.742,5.717 5.03,4.429C6.318,3.141 7.834,2.121 9.58,1.368C11.325,0.616 13.188,0.24 15.169,0.24C17.15,0.24 19.013,0.616 20.758,1.368C22.504,2.121 24.02,3.141 25.308,4.429C26.596,5.717 27.617,7.233 28.372,8.977C29.127,10.72 29.503,12.582 29.5,14.563C29.497,16.543 29.121,18.405 28.371,20.149C27.621,21.892 26.6,23.408 25.308,24.696C24.016,25.984 22.5,27.005 20.758,27.758C19.016,28.512 17.153,28.888 15.169,28.886ZM15.169,26.021C16.459,26.021 17.701,25.812 18.895,25.395C20.089,24.978 21.188,24.375 22.191,23.586L6.14,7.544C5.352,8.547 4.749,9.645 4.33,10.839C3.912,12.032 3.703,13.274 3.704,14.563C3.704,17.761 4.815,20.471 7.036,22.691C9.257,24.911 11.968,26.021 15.169,26.021ZM24.198,21.581C24.986,20.578 25.589,19.48 26.008,18.287C26.426,17.093 26.635,15.852 26.634,14.563C26.634,11.364 25.523,8.654 23.302,6.434C21.081,4.214 18.37,3.104 15.169,3.104C13.879,3.104 12.637,3.313 11.443,3.73C10.249,4.148 9.15,4.751 8.147,5.539L24.198,21.581Z" fill="#FFFFFF"/>
</svg>
