<svg width="10" height="10" viewBox="0 0 10 10" fill="none" xmlns="http://www.w3.org/2000/svg" xmlns:xlink="http://www.w3.org/1999/xlink">
<path d="M2.207,0.793C1.817,0.402 1.183,0.402 0.793,0.793C0.402,1.183 0.402,1.817 0.793,2.207L2.207,0.793ZM7.793,9.207C8.183,9.598 8.817,9.598 9.207,9.207C9.598,8.817 9.598,8.183 9.207,7.793L7.793,9.207ZM9.207,2.207C9.598,1.817 9.598,1.183 9.207,0.793C8.817,0.402 8.183,0.402 7.793,0.793L9.207,2.207ZM0.793,7.793C0.402,8.183 0.402,8.817 0.793,9.207C1.183,9.598 1.817,9.598 2.207,9.207L0.793,7.793ZM0.793,2.207L7.793,9.207L9.207,7.793L2.207,0.793L0.793,2.207ZM7.793,0.793L0.793,7.793L2.207,9.207L9.207,2.207L7.793,0.793Z" fill="#FFFFFF"/>
</svg>
