<svg width="40" height="54" viewBox="0 0 40 54" fill="none" xmlns="http://www.w3.org/2000/svg" xmlns:xlink="http://www.w3.org/1999/xlink">
<path d="M19.754,40.5C18.435,40.5 17.17,39.973 16.237,39.036C15.304,38.098 14.78,36.826 14.78,35.5C14.78,32.725 16.993,30.5 19.754,30.5C21.073,30.5 22.339,31.027 23.272,31.964C24.204,32.902 24.729,34.174 24.729,35.5C24.729,36.826 24.204,38.098 23.272,39.036C22.339,39.973 21.073,40.5 19.754,40.5ZM34.677,48L34.677,23L4.831,23L4.831,48L34.677,48ZM34.677,18C35.997,18 37.262,18.527 38.195,19.464C39.128,20.402 39.652,21.674 39.652,23L39.652,48C39.652,49.326 39.128,50.598 38.195,51.536C37.262,52.473 35.997,53 34.677,53L4.831,53C3.512,53 2.246,52.473 1.314,51.536C0.381,50.598 -0.143,49.326 -0.143,48L-0.143,23C-0.143,20.225 2.07,18 4.831,18L7.318,18L7.318,13C7.318,9.685 8.628,6.505 10.961,4.161C13.293,1.817 16.456,0.5 19.754,0.5C21.387,0.5 23.004,0.823 24.513,1.452C26.022,2.08 27.393,3 28.548,4.161C29.703,5.322 30.619,6.7 31.244,8.216C31.868,9.733 32.19,11.358 32.19,13L32.19,18L34.677,18ZM19.754,5.5C17.775,5.5 15.877,6.29 14.478,7.697C13.079,9.103 12.293,11.011 12.293,13L12.293,18L27.216,18L27.216,13C27.216,11.011 26.43,9.103 25.03,7.697C23.631,6.29 21.733,5.5 19.754,5.5Z" fill="#E73C34"/>
</svg>
