<svg width="20" height="36" viewBox="0 0 20 36" fill="none" xmlns="http://www.w3.org/2000/svg" xmlns:xlink="http://www.w3.org/1999/xlink">
<path d="M0.406,32.426C-0.375,33.207 -0.375,34.473 0.406,35.254C1.187,36.035 2.453,36.035 3.234,35.254L0.406,32.426ZM3.234,0.746C2.453,-0.035 1.187,-0.035 0.406,0.746C-0.375,1.527 -0.375,2.793 0.406,3.574L3.234,0.746ZM3.234,35.254L16.274,22.214L13.446,19.386L0.406,32.426L3.234,35.254ZM16.274,22.214C18.595,19.893 18.595,16.107 16.274,13.786L13.446,16.614C14.205,17.373 14.205,18.627 13.446,19.386L16.274,22.214ZM16.274,13.786L3.234,0.746L0.406,3.574L13.446,16.614L16.274,13.786Z" fill="#0C0507"/>
</svg>
