<svg width="48" height="48" viewBox="0 0 48 48" fill="none" xmlns="http://www.w3.org/2000/svg" xmlns:xlink="http://www.w3.org/1999/xlink">
<path d="M47.359,43.922C43.673,37.519 37.885,33.026 31.161,31.12C34.43,29.45 37.044,26.721 38.582,23.374C40.12,20.028 40.492,16.258 39.637,12.673C38.783,9.088 36.752,5.896 33.872,3.613C30.993,1.33 27.432,0.089 23.764,0.089C20.097,0.089 16.536,1.33 13.656,3.613C10.777,5.896 8.746,9.088 7.891,12.673C7.037,16.258 7.409,20.028 8.946,23.374C10.484,26.721 13.099,29.45 16.368,31.12C9.643,33.023 3.856,37.516 0.17,43.922C0.068,44.082 0,44.261 -0.03,44.448C-0.061,44.635 -0.054,44.827 -0.009,45.011C0.036,45.195 0.118,45.368 0.231,45.52C0.344,45.672 0.487,45.799 0.65,45.894C0.813,45.989 0.994,46.049 1.182,46.072C1.369,46.095 1.559,46.08 1.74,46.027C1.921,45.974 2.09,45.885 2.236,45.765C2.382,45.645 2.502,45.496 2.59,45.328C7.069,37.549 14.983,32.906 23.764,32.906C32.546,32.906 40.46,37.549 44.939,45.328C45.026,45.496 45.147,45.645 45.293,45.765C45.439,45.885 45.607,45.974 45.789,46.027C45.97,46.08 46.16,46.095 46.347,46.072C46.534,46.049 46.715,45.989 46.879,45.894C47.042,45.799 47.185,45.672 47.298,45.52C47.411,45.368 47.492,45.195 47.537,45.011C47.582,44.827 47.59,44.635 47.559,44.448C47.528,44.261 47.46,44.082 47.359,43.922ZM10.24,16.5C10.24,13.811 11.033,11.183 12.519,8.948C14.006,6.712 16.118,4.97 18.589,3.941C21.06,2.912 23.779,2.643 26.403,3.167C29.026,3.692 31.436,4.987 33.327,6.888C35.219,8.789 36.507,11.211 37.029,13.848C37.55,16.485 37.283,19.218 36.259,21.702C35.235,24.186 33.502,26.309 31.278,27.803C29.054,29.296 26.439,30.094 23.764,30.094C20.179,30.089 16.741,28.656 14.206,26.107C11.671,23.559 10.245,20.104 10.24,16.5Z" fill="#E73C34"/>
</svg>
