<svg width="30" height="48" viewBox="0 0 30 48" fill="none" xmlns="http://www.w3.org/2000/svg" xmlns:xlink="http://www.w3.org/1999/xlink">
<path d="M11.12,1.854L11.12,12.479L9.2,12.479L9.2,1.919C9.2,1.665 9.099,1.42 8.919,1.24C8.739,1.06 8.495,0.959 8.24,0.959C7.985,0.959 7.741,1.06 7.561,1.24C7.381,1.42 7.28,1.665 7.28,1.919L7.28,12.479L5.36,12.479L5.36,1.885C5.36,0.649 3.44,0.691 3.44,1.853L3.44,12.479L1.52,12.479L1.52,1.929C1.52,0.62 -0.4,0.668 -0.4,1.877L-0.4,15.77C-0.4,17.774 1.52,19.095 3.44,19.095L3.44,44.159C3.44,47.999 9.2,47.999 9.2,44.159L9.2,19.096C11.12,19.096 13.04,17.5 13.04,15.998L13.04,1.885C13.04,0.661 11.12,0.708 11.12,1.854ZM19.76,4.799L19.76,28.799L21.68,28.799L21.68,44.159C21.68,47.999 28.4,47.999 28.4,44.159L28.4,4.799C28.4,-0.001 19.76,-0.001 19.76,4.799Z" fill="#E73C34"/>
</svg>
