<svg width="34" height="76" viewBox="0 0 34 76" fill="none" xmlns="http://www.w3.org/2000/svg" xmlns:xlink="http://www.w3.org/1999/xlink">
<path d="M12.732,24.982C12.732,23.877 11.837,22.982 10.732,22.982C9.628,22.982 8.732,23.877 8.732,24.982L12.732,24.982ZM10.732,54.118L8.732,54.118L8.732,54.142L10.732,54.118ZM23.32,54.118L25.32,54.142L25.32,54.119L23.32,54.118ZM23.34,15.928L21.34,15.909L21.34,15.927L23.34,15.928ZM12.671,2L12.671,0L12.671,2ZM2.002,15.928L4.002,15.928L4.001,15.909L2.002,15.928ZM2.002,54.375L4.002,54.397L4.002,54.375L2.002,54.375ZM17,74L17,76L17,74ZM31.998,54.375L29.998,54.375L29.999,54.397L31.998,54.375ZM33.998,18.448C33.998,17.343 33.103,16.448 31.998,16.448C30.894,16.448 29.998,17.343 29.998,18.448L33.998,18.448ZM8.732,24.982L8.732,54.118L12.732,54.118L12.732,24.982L8.732,24.982ZM8.732,54.142C8.763,56.658 9.557,59.13 11.039,61.013L14.181,58.537C13.309,57.43 12.753,55.839 12.732,54.093L8.732,54.142ZM11.039,61.013C12.531,62.906 14.663,64.108 17.026,64.108L17.026,60.108C16.084,60.108 15.044,59.633 14.181,58.537L11.039,61.013ZM17.026,64.108C19.389,64.108 21.521,62.906 23.013,61.013L19.87,58.537C19.007,59.633 17.968,60.108 17.026,60.108L17.026,64.108ZM23.013,61.013C24.495,59.13 25.289,56.658 25.32,54.142L21.32,54.093C21.299,55.839 20.743,57.43 19.87,58.537L23.013,61.013ZM25.32,54.119L25.34,15.929L21.34,15.927L21.32,54.117L25.32,54.119ZM25.34,15.947C25.359,13.923 25.067,11.907 24.474,10.013L20.657,11.208C21.121,12.692 21.355,14.291 21.34,15.909L25.34,15.947ZM24.474,10.013C23.882,8.12 22.996,6.37 21.849,4.873L18.674,7.306C19.512,8.4 20.192,9.724 20.657,11.208L24.474,10.013ZM21.849,4.873C20.702,3.376 19.309,2.152 17.733,1.303L15.835,4.824C16.865,5.379 17.836,6.212 18.674,7.306L21.849,4.873ZM17.733,1.303C16.153,0.452 14.43,0 12.671,0L12.671,4C13.736,4 14.809,4.271 15.835,4.824L17.733,1.303ZM12.671,0C10.911,0 9.189,0.452 7.609,1.303L9.506,4.824C10.532,4.271 11.606,4 12.671,4L12.671,0ZM7.609,1.303C6.032,2.152 4.639,3.376 3.493,4.873L6.668,7.306C7.506,6.212 8.477,5.379 9.506,4.824L7.609,1.303ZM3.493,4.873C2.346,6.37 1.46,8.12 0.868,10.013L4.685,11.208C5.149,9.724 5.83,8.4 6.668,7.306L3.493,4.873ZM0.868,10.013C0.275,11.907 -0.017,13.923 0.002,15.947L4.001,15.909C3.986,14.291 4.221,12.692 4.685,11.208L0.868,10.013ZM0.002,15.928L0.002,54.375L4.002,54.375L4.002,15.928L0.002,15.928ZM0.002,54.353C-0.029,57.119 0.366,59.873 1.171,62.458L4.99,61.269C4.313,59.095 3.975,56.758 4.001,54.397L0.002,54.353ZM1.171,62.458C1.975,65.042 3.178,67.422 4.728,69.449L7.906,67.02C6.664,65.395 5.667,63.443 4.99,61.269L1.171,62.458ZM4.728,69.449C6.278,71.477 8.152,73.123 10.26,74.261L12.159,70.74C10.599,69.899 9.147,68.645 7.906,67.02L4.728,69.449ZM10.26,74.261C12.371,75.4 14.664,76 17,76L17,72C15.36,72 13.716,71.581 12.159,70.74L10.26,74.261ZM17,76C19.336,76 21.629,75.4 23.74,74.261L21.841,70.74C20.284,71.581 18.64,72 17,72L17,76ZM23.74,74.261C25.848,73.123 27.722,71.477 29.272,69.449L26.094,67.02C24.853,68.645 23.401,69.899 21.841,70.74L23.74,74.261ZM29.272,69.449C30.822,67.422 32.025,65.042 32.829,62.458L29.01,61.269C28.333,63.443 27.336,65.395 26.094,67.02L29.272,69.449ZM32.829,62.458C33.634,59.873 34.029,57.119 33.998,54.353L29.999,54.397C30.025,56.758 29.687,59.095 29.01,61.269L32.829,62.458ZM33.998,54.375L33.998,18.448L29.998,18.448L29.998,54.375L33.998,54.375Z" fill="#3D3D3D"/>
</svg>
