<svg width="36" height="44" viewBox="0 0 36 44" fill="none" xmlns="http://www.w3.org/2000/svg" xmlns:xlink="http://www.w3.org/1999/xlink">
<path d="M18,44C13.033,44 8.791,43.292 5.274,41.876C1.757,40.46 -0.001,38.501 0,36C0,34.933 0.333,33.975 1,33.126C1.667,32.277 2.6,31.518 3.8,30.85L7.05,33.75C6.25,34.017 5.542,34.359 4.926,34.776C4.31,35.193 4.001,35.601 4,36C4,36.867 5.35,37.75 8.05,38.65C10.75,39.55 14.067,40 18,40C21.933,40 25.25,39.55 27.95,38.65C30.65,37.75 32,36.867 32,36C32,35.6 31.692,35.192 31.076,34.776C30.46,34.36 29.751,34.018 28.95,33.75L32.2,30.85C33.4,31.517 34.333,32.275 35,33.126C35.667,33.977 36,34.935 36,36C36,38.5 34.242,40.459 30.726,41.876C27.21,43.293 22.968,44.001 18,44ZM18,36C17.267,36 16.559,35.875 15.876,35.626C15.193,35.377 14.568,35.001 14,34.5L1.4,23.35C0.967,22.983 0.625,22.533 0.374,22C0.123,21.467 -0.001,20.917 0,20.35L0,16.35C0,15.783 0.109,15.233 0.326,14.7C0.543,14.167 0.868,13.717 1.3,13.35L13.9,1.6C14.467,1.067 15.1,0.667 15.8,0.4C16.5,0.133 17.233,0 18,0C18.767,0 19.5,0.133 20.2,0.4C20.9,0.667 21.533,1.067 22.1,1.6L34.7,13.35C35.133,13.717 35.459,14.167 35.676,14.7C35.893,15.233 36.001,15.783 36,16.35L36,20.35C36,20.917 35.875,21.467 35.626,22C35.377,22.533 35.035,22.983 34.6,23.35L22,34.5C21.433,35 20.809,35.375 20.126,35.626C19.443,35.877 18.735,36.001 18,36ZM12,18.5C12.7,18.5 13.292,18.258 13.776,17.774C14.26,17.29 14.501,16.699 14.5,16C14.499,15.301 14.257,14.709 13.774,14.224C13.291,13.739 12.7,13.497 12,13.5C11.3,13.503 10.708,13.745 10.224,14.226C9.74,14.707 9.499,15.299 9.5,16C9.501,16.701 9.743,17.293 10.226,17.776C10.709,18.259 11.3,18.5 12,18.5ZM14.5,21.2C15.933,21.9 17.442,22.125 19.026,21.876C20.61,21.627 22.001,20.968 23.2,19.9C24.333,18.933 25.075,17.717 25.426,16.25C25.777,14.783 25.601,13.4 24.9,12.1L14.5,21.2ZM18,12.5C18.7,12.5 19.292,12.258 19.776,11.774C20.26,11.29 20.501,10.699 20.5,10C20.499,9.301 20.257,8.709 19.774,8.224C19.291,7.739 18.7,7.497 18,7.5C17.3,7.503 16.708,7.745 16.224,8.226C15.74,8.707 15.499,9.299 15.5,10C15.501,10.701 15.743,11.293 16.226,11.776C16.709,12.259 17.3,12.5 18,12.5Z" fill="#E73C34"/>
</svg>
