<svg width="42" height="48" viewBox="0 0 42 48" fill="none" xmlns="http://www.w3.org/2000/svg" xmlns:xlink="http://www.w3.org/1999/xlink">
<path d="M2.317,0.994C0.63,2.654 0.63,5.323 0.63,10.667L0.63,36.167C0.63,41.51 0.63,44.179 2.317,45.84C4.005,47.5 6.717,47.5 12.148,47.5L29.424,47.5C34.855,47.5 37.567,47.5 39.255,45.84C40.942,44.179 40.942,41.51 40.942,36.167L40.942,10.667C40.942,5.323 40.942,2.654 39.255,0.994C37.567,-0.667 34.855,-0.667 29.424,-0.667L12.148,-0.667C6.717,-0.667 4.005,-0.667 2.317,0.994ZM12.148,10.667C11.384,10.667 10.652,10.965 10.112,11.497C9.572,12.028 9.268,12.749 9.268,13.5C9.268,14.251 9.572,14.972 10.112,15.504C10.652,16.035 11.384,16.333 12.148,16.333L29.424,16.333C30.188,16.333 30.92,16.035 31.46,15.504C32,14.972 32.304,14.251 32.304,13.5C32.304,12.749 32,12.028 31.46,11.497C30.92,10.965 30.188,10.667 29.424,10.667L12.148,10.667ZM12.148,22C11.384,22 10.652,22.299 10.112,22.83C9.572,23.361 9.268,24.082 9.268,24.833C9.268,25.585 9.572,26.306 10.112,26.837C10.652,27.368 11.384,27.667 12.148,27.667L29.424,27.667C30.188,27.667 30.92,27.368 31.46,26.837C32,26.306 32.304,25.585 32.304,24.833C32.304,24.082 32,23.361 31.46,22.83C30.92,22.299 30.188,22 29.424,22L12.148,22ZM12.148,33.333C11.384,33.333 10.652,33.632 10.112,34.163C9.572,34.695 9.268,35.415 9.268,36.167C9.268,36.918 9.572,37.639 10.112,38.17C10.652,38.702 11.384,39 12.148,39L23.665,39C24.429,39 25.162,38.702 25.702,38.17C26.242,37.639 26.545,36.918 26.545,36.167C26.545,35.415 26.242,34.695 25.702,34.163C25.162,33.632 24.429,33.333 23.665,33.333L12.148,33.333Z" clip-rule="evenodd" fill-rule="evenodd" fill="#D3D1D8"/>
</svg>
