<svg width="46" height="82" viewBox="0 0 46 82" fill="none" xmlns="http://www.w3.org/2000/svg" xmlns:xlink="http://www.w3.org/1999/xlink">
<path d="M43.315,7.315C45.145,5.484 45.145,2.516 43.315,0.685C41.484,-1.145 38.516,-1.145 36.685,0.685L43.315,7.315ZM4,40L0.685,36.685C-1.145,38.516 -1.145,41.484 0.685,43.315L4,40ZM36.685,79.315C38.516,81.145 41.484,81.145 43.315,79.315C45.145,77.484 45.145,74.516 43.315,72.685L36.685,79.315ZM36.685,0.685L0.685,36.685L7.315,43.315L43.315,7.315L36.685,0.685ZM0.685,43.315L36.685,79.315L43.315,72.685L7.315,36.685L0.685,43.315Z" fill="#E73C34"/>
</svg>
