<svg width="48" height="48" viewBox="0 0 48 48" fill="none" xmlns="http://www.w3.org/2000/svg" xmlns:xlink="http://www.w3.org/1999/xlink">
<path d="M32,22L30,22C30,23.105 30.895,24 32,24L32,22ZM36.04,4L36.058,2L36.04,2L36.04,4ZM41.66,6.34L43.084,4.936L43.074,4.926L41.66,6.34ZM42,12L42,16.84L46,16.84L46,12L42,12ZM42,16.84C42,17.992 41.644,18.737 41.191,19.191C40.737,19.644 39.992,20 38.84,20L38.84,24C40.848,24 42.683,23.356 44.019,22.019C45.356,20.683 46,18.848 46,16.84L42,16.84ZM38.84,20L32,20L32,24L38.84,24L38.84,20ZM34,22L34,8.02L30,8.02L30,22L34,22ZM34,8.02C34,6.917 34.912,6 36.04,6L36.04,2C32.728,2 30,4.683 30,8.02L34,8.02ZM36.022,6C37.67,6.015 39.171,6.68 40.246,7.754L43.074,4.926C41.269,3.12 38.77,2.025 36.058,2L36.022,6ZM40.236,7.744C41.329,8.853 42,10.357 42,12L46,12C46,9.243 44.871,6.747 43.084,4.936L40.236,7.744Z" fill="#E73C34"/>
<path d="M7.2,43.6L6.001,41.999L5.992,42.006L7.2,43.6ZM10.62,41.04L11.819,42.641L11.82,42.64L10.62,41.04ZM13.26,41.24L14.678,39.83L14.674,39.826L13.26,41.24ZM16.58,44.58L15.162,45.99L15.166,45.994L16.58,44.58ZM25.38,41.04L24.16,42.625L24.181,42.641L25.38,41.04ZM28.8,43.6L27.601,45.201L27.608,45.206L28.8,43.6ZM36,6C37.105,6 38,5.105 38,4C38,2.895 37.105,2 36,2L36,6ZM2,14L2,42L6,42L6,14L2,14ZM2,42C2,45.298 5.759,47.201 8.408,45.194L5.992,42.006C5.98,42.015 5.976,42.016 5.98,42.014C5.985,42.013 5.991,42.011 5.997,42.011C6.008,42.01 6.007,42.013 5.999,42.009C5.992,42.005 5.992,42.002 5.996,42.009C5.999,42.013 6.001,42.017 6.001,42.019C6.002,42.023 6,42.017 6,42L2,42ZM8.399,45.201L11.819,42.641L9.421,39.439L6.002,41.999L8.399,45.201ZM11.82,42.64C11.823,42.638 11.822,42.639 11.82,42.639C11.819,42.64 11.82,42.639 11.821,42.639C11.823,42.64 11.826,42.64 11.829,42.642C11.831,42.643 11.837,42.645 11.846,42.654L14.674,39.826C13.259,38.41 11.026,38.236 9.42,39.44L11.82,42.64ZM11.842,42.65L15.162,45.99L17.998,43.17L14.678,39.83L11.842,42.65ZM15.166,45.994C16.727,47.555 19.273,47.555 20.834,45.994L18.006,43.166C18.005,43.166 18.006,43.166 18.007,43.165C18.008,43.164 18.009,43.164 18.009,43.164C18.009,43.164 18.008,43.164 18.007,43.164C18.005,43.165 18.003,43.165 18,43.165C17.997,43.165 17.995,43.165 17.993,43.164C17.992,43.164 17.991,43.164 17.991,43.164C17.991,43.164 17.992,43.164 17.993,43.165C17.994,43.166 17.995,43.166 17.994,43.166L15.166,45.994ZM20.834,45.994L24.194,42.634L21.366,39.806L18.006,43.166L20.834,45.994ZM24.194,42.634C24.193,42.635 24.191,42.637 24.189,42.638C24.188,42.638 24.189,42.638 24.189,42.638C24.19,42.638 24.188,42.638 24.182,42.636C24.175,42.634 24.167,42.63 24.161,42.625L26.599,39.455C25.009,38.232 22.764,38.408 21.366,39.806L24.194,42.634ZM24.181,42.641L27.601,45.201L29.999,41.999L26.579,39.439L24.181,42.641ZM27.608,45.206C30.236,47.157 34,45.298 34,42L30,42C30,42.012 29.998,42.014 30,42.007C30.002,42.002 30.005,41.996 30.008,41.991C30.011,41.987 30.012,41.986 30.011,41.987C30.009,41.989 30.006,41.991 30.001,41.994C29.995,41.996 29.991,41.998 29.988,41.998C29.986,41.999 29.986,41.998 29.99,41.998C29.994,41.999 29.998,42 30.002,42.001C30.007,42.003 30.003,42.002 29.992,41.994L27.608,45.206ZM34,42L34,8L30,8L30,42L34,42ZM34,8C34,6.905 34.905,6 36,6L36,2C32.695,2 30,4.695 30,8L34,8ZM36,2L14,2L14,6L36,6L36,2ZM14,2L12,2L12,6L14,6L14,2ZM12,2C8.591,2 5.966,3.033 4.236,5.035C2.554,6.983 2,9.529 2,12L6,12C6,10.051 6.446,8.597 7.264,7.65C8.034,6.757 9.409,6 12,6L12,2ZM2,12L2,14L6,14L6,12L2,12Z" fill="#E73C34"/>
<line x1="18" y1="24.02" x2="24" y2="24.02" stroke="#E73C34" stroke-width="2" stroke-miterlimit="3.999327" stroke-linecap="round" stroke-linejoin="round"/>
<line x1="18" y1="16.02" x2="24" y2="16.02" stroke="#E73C34" stroke-width="2" stroke-miterlimit="3.999327" stroke-linecap="round" stroke-linejoin="round"/>
<path d="M11.991,24C10.887,24 9.991,24.895 9.991,26C9.991,27.105 10.887,28 11.991,28L11.991,24ZM12.009,28C13.114,28 14.009,27.105 14.009,26C14.009,24.895 13.114,24 12.009,24L12.009,28ZM11.991,28L12.009,28L12.009,24L11.991,24L11.991,28Z" fill="#E73C34"/>
<path d="M11.991,16C10.887,16 9.991,16.895 9.991,18C9.991,19.105 10.887,20 11.991,20L11.991,16ZM12.009,20C13.114,20 14.009,19.105 14.009,18C14.009,16.895 13.114,16 12.009,16L12.009,20ZM11.991,20L12.009,20L12.009,16L11.991,16L11.991,20Z" fill="#E73C34"/>
</svg>
