<svg width="36" height="36" viewBox="0 0 36 36" fill="none" xmlns="http://www.w3.org/2000/svg" xmlns:xlink="http://www.w3.org/1999/xlink">
<path d="M8,28L12,28L12,18L8,18L8,28ZM24,28L28,28L28,8L24,8L24,28ZM16,28L20,28L20,22L16,22L16,28ZM16,18L20,18L20,14L16,14L16,18ZM4,36C2.9,36 1.959,35.609 1.176,34.826C0.393,34.043 0.001,33.101 0,32L0,4C0,2.9 0.392,1.959 1.176,1.176C1.96,0.393 2.901,0.001 4,0L32,0C33.1,0 34.042,0.392 34.826,1.176C35.61,1.96 36.001,2.901 36,4L36,32C36,33.1 35.609,34.042 34.826,34.826C34.043,35.61 33.101,36.001 32,36L4,36ZM4,32L32,32L32,4L4,4L4,32Z" fill="#E73C34"/>
</svg>
