<svg width="22" height="32" viewBox="0 0 22 32" fill="none" xmlns="http://www.w3.org/2000/svg" xmlns:xlink="http://www.w3.org/1999/xlink">
<path d="M18.94,8.065C20.77,6.234 20.77,3.266 18.94,1.435C17.109,-0.395 14.141,-0.395 12.31,1.435L18.94,8.065ZM4.375,16L1.06,12.685C-0.77,14.516 -0.77,17.484 1.06,19.315L4.375,16ZM12.31,30.565C14.141,32.395 17.109,32.395 18.94,30.565C20.77,28.734 20.77,25.766 18.94,23.935L12.31,30.565ZM12.31,1.435L1.06,12.685L7.69,19.315L18.94,8.065L12.31,1.435ZM1.06,19.315L12.31,30.565L18.94,23.935L7.69,12.685L1.06,19.315Z" fill="#E73C34"/>
</svg>
