<svg width="32" height="32" viewBox="0 0 32 32" fill="none" xmlns="http://www.w3.org/2000/svg" xmlns:xlink="http://www.w3.org/1999/xlink">
<path d="M8.5,10.227C8.5,11.055 9.172,11.727 10,11.727C10.828,11.727 11.5,11.055 11.5,10.227L8.5,10.227ZM15.413,2.707L15.553,4.2L15.558,4.2L15.413,2.707ZM20.5,10.52C20.5,11.348 21.172,12.02 22,12.02C22.828,12.02 23.5,11.348 23.5,10.52L20.5,10.52ZM11.5,10.227L11.5,8.933L8.5,8.933L8.5,10.227L11.5,10.227ZM11.5,8.933C11.5,6.618 13.41,4.4 15.553,4.2L15.274,1.213C11.417,1.573 8.5,5.248 8.5,8.933L11.5,8.933ZM15.558,4.2C18.238,3.94 20.5,6.047 20.5,8.68L23.5,8.68C23.5,4.3 19.736,0.78 15.269,1.214L15.558,4.2ZM20.5,8.68L20.5,10.52L23.5,10.52L23.5,8.68L20.5,8.68Z" fill="#434E58"/>
<path d="M26.6,24.574L25.111,24.388L25.108,24.414L26.6,24.574ZM27.6,16.574L29.088,16.76L29.091,16.739L27.6,16.574ZM4.4,16.574L2.909,16.739L2.911,16.76L4.4,16.574ZM5.4,24.574L6.891,24.414L6.888,24.388L5.4,24.574ZM12,30.834L20,30.834L20,27.834L12,27.834L12,30.834ZM20,30.834C22.833,30.834 24.867,30.274 26.216,29.041C27.58,27.796 27.941,26.136 28.091,24.733L25.108,24.414C24.979,25.624 24.72,26.345 24.193,26.826C23.653,27.32 22.526,27.834 20,27.834L20,30.834ZM28.088,24.76L29.088,16.76L26.111,16.388L25.111,24.388L28.088,24.76ZM29.091,16.739C29.284,14.994 29.191,12.988 27.884,11.435C26.564,9.864 24.356,9.167 21.333,9.167L21.333,12.167C24.004,12.167 25.109,12.796 25.588,13.366C26.082,13.953 26.276,14.9 26.109,16.409L29.091,16.739ZM21.333,9.167L10.666,9.167L10.666,12.167L21.333,12.167L21.333,9.167ZM10.666,9.167C7.644,9.167 5.436,9.864 4.115,11.435C2.809,12.988 2.716,14.994 2.909,16.739L5.891,16.409C5.724,14.9 5.918,13.953 6.411,13.366C6.89,12.796 7.996,12.167 10.666,12.167L10.666,9.167ZM2.911,16.76L3.911,24.76L6.888,24.388L5.888,16.388L2.911,16.76ZM3.908,24.733C4.059,26.136 4.42,27.796 5.783,29.041C7.133,30.274 9.166,30.834 12,30.834L12,27.834C9.473,27.834 8.347,27.32 7.806,26.826C7.28,26.345 7.021,25.624 6.891,24.414L3.908,24.733Z" fill="#434E58"/>
<path d="M20.661,14C19.556,14 18.661,14.895 18.661,16C18.661,17.104 19.556,18 20.661,18L20.661,14ZM20.673,18C21.777,18 22.673,17.104 22.673,16C22.673,14.895 21.777,14 20.673,14L20.673,18ZM20.661,18L20.673,18L20.673,14L20.661,14L20.661,18Z" fill="#434E58"/>
<path d="M11.326,14C10.221,14 9.326,14.895 9.326,16C9.326,17.104 10.221,18 11.326,18L11.326,14ZM11.338,18C12.442,18 13.338,17.104 13.338,16C13.338,14.895 12.442,14 11.338,14L11.338,18ZM11.326,18L11.338,18L11.338,14L11.326,14L11.326,18Z" fill="#434E58"/>
</svg>
