<svg width="136" height="96" viewBox="0 0 136 96" fill="none" xmlns="http://www.w3.org/2000/svg" xmlns:xlink="http://www.w3.org/1999/xlink">
<g opacity="0.8" filter="url(#filterI239_1654;542_28032)">
<path d="M1.827,14.816C0,19.226 0,24.817 0,36C0,47.183 0,52.774 1.827,57.184C4.263,63.065 8.935,67.737 14.816,70.173C19.226,72 24.817,72 36,72L28,72C61.15,76 71.875,96 71.875,96C71.875,96 77.725,76 106,72L100,72C111.183,72 116.774,72 121.184,70.173C127.065,67.737 131.737,63.065 134.173,57.184C136,52.774 136,47.183 136,36C136,24.817 136,19.226 134.173,14.816C131.737,8.935 127.065,4.263 121.184,1.827C116.774,0 111.183,0 100,0L36,0C24.817,0 19.226,0 14.816,1.827C8.935,4.263 4.263,8.935 1.827,14.816Z" clip-rule="evenodd" fill-rule="evenodd" fill="#FFFFFF"/>
</g>
<defs>
<filter id="filterI239_1654;542_28032" x="-35" y="-35" width="138" height="118" filterUnits="userSpaceOnUse" color-interpolation-filters="sRGB">
<feFlood flood-opacity="0" result="BackgroundImageFix"/>
<feColorMatrix in="SourceAlpha" type="matrix" values="0 0 0 0 0 0 0 0 0 0 0 0 0 0 0 0 0 0 127 0" result="hardAlpha"/>
<feMorphology radius="0" operator="dilate" in="SourceAlpha" result="0dropshadow"/>
<feOffset dx="0" dy="0"/>
<feGaussianBlur stdDeviation="17.5"/>
<feComposite in2="hardAlpha" operator="out"/>
<feColorMatrix type="matrix" values="0 0 0 0 0.14902 0 0 0 0 0.211765 0 0 0 0 0.305882 0 0 0 0.06 0"/>
<feBlend mode="normal" in2="BackgroundImageFix" result="0dropshadow"/>
<feBlend mode="normal" in="SourceGraphic" in2="0dropshadow" result="shape"/>
</filter>
</defs>
</svg>
