<svg width="780" height="144" viewBox="0 0 780 144" fill="none" xmlns="http://www.w3.org/2000/svg" xmlns:xlink="http://www.w3.org/1999/xlink">
<rect  x="0" y="0" width="780" height="144" rx="20" fill="#FFDBDB"/>
<path d="M83.333,105.333L83.333,107.333L85.333,107.333L85.333,105.333L83.333,105.333ZM83.333,69.766L82.648,67.887L81.333,68.366L81.333,69.766L83.333,69.766ZM76.4,50.999L74.44,51.397L74.905,53.695L77.101,52.872L76.4,50.999ZM43.6,50.999L42.907,52.875L45.096,53.684L45.56,51.397L43.6,50.999ZM36.666,69.766L38.666,69.766L38.666,68.373L37.36,67.89L36.666,69.766ZM36.666,105.333L34.666,105.333L34.666,107.333L36.666,107.333L36.666,105.333ZM83.333,89.999L36.666,89.999L36.666,93.999L83.333,93.999L83.333,89.999ZM62,91.999L62,71.999L58,71.999L58,91.999L62,91.999ZM72,91.999L72,78.666L68,78.666L68,91.999L72,91.999ZM52,91.999L52,78.666L48,78.666L48,91.999L52,91.999ZM85.333,105.333L85.333,69.766L81.333,69.766L81.333,105.333L85.333,105.333ZM84.018,71.645C85.503,71.104 86.867,70.275 88.031,69.205L85.324,66.26C84.548,66.973 83.639,67.526 82.648,67.887L84.018,71.645ZM88.031,69.205C89.194,68.135 90.136,66.846 90.8,65.412L87.17,63.731C86.727,64.687 86.1,65.547 85.324,66.26L88.031,69.205ZM90.8,65.412C91.464,63.977 91.839,62.426 91.902,60.846L87.905,60.687C87.863,61.74 87.613,62.774 87.17,63.731L90.8,65.412ZM91.902,60.846C91.965,59.267 91.715,57.69 91.167,56.208L87.415,57.594C87.78,58.582 87.947,59.634 87.905,60.687L91.902,60.846ZM91.167,56.208C90.62,54.725 89.784,53.365 88.709,52.206L85.776,54.925C86.493,55.698 87.05,56.605 87.415,57.594L91.167,56.208ZM88.709,52.206C87.635,51.047 86.341,50.111 84.904,49.453L83.239,53.09C84.197,53.529 85.06,54.153 85.776,54.925L88.709,52.206ZM84.904,49.453C83.467,48.795 81.914,48.428 80.334,48.372L80.192,52.369C81.245,52.406 82.281,52.652 83.239,53.09L84.904,49.453ZM80.334,48.372C78.754,48.315 77.179,48.572 75.698,49.126L77.101,52.872C78.088,52.503 79.138,52.332 80.192,52.369L80.334,48.372ZM78.36,50.602C77.631,47.003 75.264,43.535 72.057,40.985C68.83,38.419 64.609,36.666 60,36.666L60,40.666C63.59,40.666 66.953,42.036 69.567,44.116C72.202,46.211 73.935,48.909 74.44,51.397L78.36,50.602ZM60,36.666C55.39,36.666 51.169,38.419 47.943,40.985C44.736,43.535 42.369,47.003 41.64,50.602L45.56,51.397C46.064,48.909 47.797,46.211 50.432,44.116C53.047,42.036 56.409,40.666 60,40.666L60,36.666ZM44.293,49.123C41.307,48.02 38.005,48.148 35.113,49.48L36.786,53.113C38.714,52.225 40.916,52.14 42.907,52.875L44.293,49.123ZM35.113,49.48C32.221,50.811 29.977,53.237 28.874,56.223L32.626,57.609C33.361,55.618 34.858,54.001 36.786,53.113L35.113,49.48ZM28.874,56.223C27.77,59.209 27.899,62.511 29.23,65.403L32.863,63.73C31.976,61.802 31.89,59.6 32.626,57.609L28.874,56.223ZM29.23,65.403C30.562,68.295 32.987,70.539 35.973,71.642L37.36,67.89C35.369,67.154 33.751,65.658 32.863,63.73L29.23,65.403ZM34.666,69.766L34.666,105.333L38.666,105.333L38.666,69.766L34.666,69.766ZM36.666,107.333L83.333,107.333L83.333,103.333L36.666,103.333L36.666,107.333Z" fill="#E73C34"/>
</svg>
