<svg width="780" height="144" viewBox="0 0 780 144" fill="none" xmlns="http://www.w3.org/2000/svg" xmlns:xlink="http://www.w3.org/1999/xlink">
<rect  x="0" y="0" width="780" height="144" rx="20" fill="#FFDBDB"/>
<path d="M73.583,99.5L85.167,88L81.667,84.5L73.583,92.417L70.333,89.167L66.833,92.75L73.583,99.5ZM36,62L76,62L76,55.333L36,55.333L36,62ZM76,108.667C71.389,108.667 67.459,107.041 64.21,103.79C60.961,100.539 59.336,96.609 59.333,92C59.331,87.391 60.957,83.461 64.21,80.21C67.463,76.959 71.393,75.333 76,75.333C80.607,75.333 84.538,76.959 87.793,80.21C91.049,83.461 92.673,87.391 92.667,92C92.66,96.609 91.034,100.54 87.79,103.793C84.546,107.047 80.616,108.671 76,108.667ZM26,105.333L26,48.667C26,46.833 26.653,45.264 27.96,43.96C29.267,42.656 30.836,42.002 32.667,42L79.333,42C81.167,42 82.737,42.653 84.043,43.96C85.35,45.267 86.002,46.836 86,48.667L86,70.917C84.444,70.139 82.819,69.569 81.123,69.207C79.428,68.844 77.72,68.664 76,68.667L36,68.667L36,75.333L59.667,75.333C58.722,76.278 57.848,77.306 57.043,78.417C56.239,79.528 55.53,80.722 54.917,82L36,82L36,88.667L52.917,88.667C52.806,89.222 52.737,89.764 52.71,90.293C52.683,90.822 52.669,91.391 52.667,92C52.667,94.333 52.987,96.57 53.627,98.71C54.267,100.85 55.224,102.891 56.5,104.833L56,105.333L51,100.333L46,105.333L41,100.333L36,105.333L31,100.333L26,105.333Z" fill="#E73C34"/>
</svg>
