<svg width="776" height="144" viewBox="0 0 776 144" fill="none" xmlns="http://www.w3.org/2000/svg" xmlns:xlink="http://www.w3.org/1999/xlink">
<rect  x="0" y="0" width="776" height="144" rx="20" fill="#FFDBDB"/>
<path d="M83.333,109.333L83.333,111.333L85.333,111.333L85.333,109.333L83.333,109.333ZM83.333,73.766L82.648,71.887L81.333,72.366L81.333,73.766L83.333,73.766ZM76.4,54.999L74.44,55.397L74.905,57.695L77.101,56.872L76.4,54.999ZM43.6,54.999L42.907,56.875L45.096,57.684L45.56,55.397L43.6,54.999ZM36.666,73.766L38.666,73.766L38.666,72.373L37.36,71.89L36.666,73.766ZM36.666,109.333L34.666,109.333L34.666,111.333L36.666,111.333L36.666,109.333ZM83.333,93.999L36.666,93.999L36.666,97.999L83.333,97.999L83.333,93.999ZM62,95.999L62,75.999L58,75.999L58,95.999L62,95.999ZM72,95.999L72,82.666L68,82.666L68,95.999L72,95.999ZM52,95.999L52,82.666L48,82.666L48,95.999L52,95.999ZM85.333,109.333L85.333,73.766L81.333,73.766L81.333,109.333L85.333,109.333ZM84.018,75.645C85.503,75.104 86.867,74.275 88.031,73.205L85.324,70.26C84.548,70.973 83.639,71.526 82.648,71.887L84.018,75.645ZM88.031,73.205C89.194,72.135 90.136,70.846 90.8,69.412L87.17,67.731C86.727,68.687 86.1,69.547 85.324,70.26L88.031,73.205ZM90.8,69.412C91.464,67.977 91.839,66.426 91.902,64.846L87.905,64.687C87.863,65.74 87.613,66.774 87.17,67.731L90.8,69.412ZM91.902,64.846C91.965,63.267 91.715,61.69 91.167,60.208L87.415,61.594C87.78,62.582 87.947,63.634 87.905,64.687L91.902,64.846ZM91.167,60.208C90.62,58.725 89.784,57.365 88.709,56.206L85.776,58.925C86.493,59.698 87.05,60.605 87.415,61.594L91.167,60.208ZM88.709,56.206C87.635,55.047 86.341,54.111 84.904,53.453L83.239,57.09C84.197,57.529 85.06,58.153 85.776,58.925L88.709,56.206ZM84.904,53.453C83.467,52.795 81.914,52.428 80.334,52.372L80.192,56.369C81.245,56.406 82.281,56.652 83.239,57.09L84.904,53.453ZM80.334,52.372C78.754,52.315 77.179,52.572 75.698,53.126L77.101,56.872C78.088,56.503 79.138,56.332 80.192,56.369L80.334,52.372ZM78.36,54.602C77.631,51.003 75.264,47.535 72.057,44.985C68.83,42.419 64.609,40.666 60,40.666L60,44.666C63.59,44.666 66.953,46.036 69.567,48.116C72.202,50.211 73.935,52.909 74.44,55.397L78.36,54.602ZM60,40.666C55.39,40.666 51.169,42.419 47.943,44.985C44.736,47.535 42.369,51.003 41.64,54.602L45.56,55.397C46.064,52.909 47.797,50.211 50.432,48.116C53.047,46.036 56.409,44.666 60,44.666L60,40.666ZM44.293,53.123C41.307,52.02 38.005,52.148 35.113,53.48L36.786,57.113C38.714,56.225 40.916,56.14 42.907,56.875L44.293,53.123ZM35.113,53.48C32.221,54.811 29.977,57.237 28.874,60.223L32.626,61.609C33.361,59.618 34.858,58.001 36.786,57.113L35.113,53.48ZM28.874,60.223C27.77,63.209 27.899,66.511 29.23,69.403L32.863,67.73C31.976,65.802 31.89,63.6 32.626,61.609L28.874,60.223ZM29.23,69.403C30.562,72.295 32.987,74.539 35.973,75.642L37.36,71.89C35.369,71.154 33.751,69.658 32.863,67.73L29.23,69.403ZM34.666,73.766L34.666,109.333L38.666,109.333L38.666,73.766L34.666,73.766ZM36.666,111.333L83.333,111.333L83.333,107.333L36.666,107.333L36.666,111.333Z" fill="#E73C34"/>
</svg>
