<svg width="46" height="46" viewBox="0 0 46 46" fill="none" xmlns="http://www.w3.org/2000/svg" xmlns:xlink="http://www.w3.org/1999/xlink">
<path d="M23,3C34.046,3 43,11.954 43,23L46,23C46,10.297 35.703,0 23,0L23,3ZM43,23C43,34.046 34.046,43 23,43L23,46C35.703,46 46,35.703 46,23L43,23ZM23,43C11.954,43 3,34.046 3,23L0,23C0,35.703 10.297,46 23,46L23,43ZM3,23C3,11.954 11.954,3 23,3L23,0C10.297,0 0,10.297 0,23L3,23Z" fill="#E73C34"/>
<g filter="url(#filter239_1564)">
<path d="M36,23C36,15.82 30.18,10 23,10C15.82,10 10,15.82 10,23C10,30.18 15.82,36 23,36C30.18,36 36,30.18 36,23Z" fill="#E73C34"/>
</g>
<defs>
<filter id="filter239_1564" x="6" y="6" width="21" height="21" filterUnits="userSpaceOnUse" color-interpolation-filters="sRGB">
<feFlood flood-opacity="0" result="BackgroundImageFix"/>
<feColorMatrix in="SourceAlpha" type="matrix" values="0 0 0 0 0 0 0 0 0 0 0 0 0 0 0 0 0 0 127 0" result="hardAlpha"/>
<feMorphology radius="0" operator="dilate" in="SourceAlpha" result="0dropshadow"/>
<feOffset dx="0" dy="4"/>
<feGaussianBlur stdDeviation="2"/>
<feComposite in2="hardAlpha" operator="out"/>
<feColorMatrix type="matrix" values="0 0 0 0 0.996078 0 0 0 0 0.447059 0 0 0 0 0.298039 0 0 0 0.4 0"/>
<feBlend mode="normal" in2="BackgroundImageFix" result="0dropshadow"/>
<feBlend mode="normal" in="SourceGraphic" in2="0dropshadow" result="shape"/>
</filter>
</defs>
</svg>
