<svg width="60" height="60" viewBox="0 0 60 60" fill="none" xmlns="http://www.w3.org/2000/svg" xmlns:xlink="http://www.w3.org/1999/xlink">
<path d="M24,42L36,42C36.85,42 37.563,41.712 38.139,41.136C38.715,40.56 39.002,39.848 39,39L39,33L33,33L33,36L27,36L27,24L33,24L33,27L39,27L39,21C39,20.15 38.712,19.438 38.136,18.864C37.56,18.29 36.848,18.002 36,18L24,18C23.15,18 22.438,18.288 21.864,18.864C21.29,19.44 21.002,20.152 21,21L21,39C21,39.85 21.288,40.563 21.864,41.139C22.44,41.715 23.152,42.002 24,42ZM30,60C25.85,60 21.95,59.212 18.3,57.636C14.65,56.06 11.475,53.923 8.775,51.225C6.075,48.527 3.938,45.352 2.364,41.7C0.79,38.048 0.002,34.148 0,30C-0.002,25.852 0.786,21.952 2.364,18.3C3.942,14.648 6.079,11.473 8.775,8.775C11.471,6.077 14.646,3.94 18.3,2.364C21.954,0.788 25.854,0 30,0C34.146,0 38.046,0.788 41.7,2.364C45.354,3.94 48.529,6.077 51.225,8.775C53.921,11.473 56.059,14.648 57.639,18.3C59.219,21.952 60.006,25.852 60,30C59.994,34.148 59.206,38.048 57.636,41.7C56.066,45.352 53.929,48.527 51.225,51.225C48.521,53.923 45.346,56.061 41.7,57.639C38.054,59.217 34.154,60.004 30,60ZM30,54C36.7,54 42.375,51.675 47.025,47.025C51.675,42.375 54,36.7 54,30C54,23.3 51.675,17.625 47.025,12.975C42.375,8.325 36.7,6 30,6C23.3,6 17.625,8.325 12.975,12.975C8.325,17.625 6,23.3 6,30C6,36.7 8.325,42.375 12.975,47.025C17.625,51.675 23.3,54 30,54Z" fill="#E73C34"/>
</svg>
