<svg width="26" height="14" viewBox="0 0 26 14" fill="none" xmlns="http://www.w3.org/2000/svg" xmlns:xlink="http://www.w3.org/1999/xlink">
<path d="M22.164,11.793C22.75,12.379 23.7,12.379 24.286,11.793C24.871,11.207 24.871,10.257 24.286,9.671L22.164,11.793ZM14.532,2.039L13.471,3.099L14.532,2.039ZM10.798,2.039L11.859,3.099L10.798,2.039ZM1.044,9.671C0.459,10.257 0.459,11.207 1.044,11.793C1.63,12.379 2.58,12.379 3.166,11.793L1.044,9.671ZM24.286,9.671L15.592,0.978L13.471,3.099L22.164,11.793L24.286,9.671ZM15.592,0.978C13.98,-0.634 11.35,-0.634 9.738,0.978L11.859,3.099C12.3,2.659 13.03,2.659 13.471,3.099L15.592,0.978ZM9.738,0.978L1.044,9.671L3.166,11.793L11.859,3.099L9.738,0.978Z" transform="rotate(180 12.665 6)" fill="#0C0507"/>
</svg>
