<svg width="113" height="111" viewBox="0 0 113 111" fill="none" xmlns="http://www.w3.org/2000/svg">
<g filter="url(#filter0_d_234_6429)">
<rect x="30.957" y="15" width="61.0431" height="51" rx="14" fill="white"/>
</g>
<path d="M58.7473 47.123L52.0001 47.123" stroke="#E73C34" stroke-width="2" stroke-linecap="round"/>
<path d="M70.8921 47.123L58.7473 47.123" stroke="#E73C34" stroke-opacity="0.46" stroke-width="2" stroke-linecap="round"/>
<path d="M61.6595 47C61.6595 45.3431 60.2715 44 58.5593 44C56.847 44 55.459 45.3431 55.459 47C55.459 48.6569 56.847 50 58.5593 50C60.2715 50 61.6595 48.6569 61.6595 47Z" fill="#E73C34" stroke="#E73C34" stroke-width="1.5"/>
<path d="M64.1448 34.877L70.892 34.877" stroke="#E73C34" stroke-width="2" stroke-linecap="round"/>
<path d="M52 34.877L64.1448 34.877" stroke="#E73C34" stroke-opacity="0.46" stroke-width="2" stroke-linecap="round"/>
<path d="M61.2325 35C61.2325 36.6569 62.6206 38 64.3328 38C66.0451 38 67.4331 36.6569 67.4331 35C67.4331 33.3431 66.0451 32 64.3328 32C62.6206 32 61.2325 33.3431 61.2325 35Z" fill="#E73C34" stroke="#E73C34" stroke-width="1.5"/>
<defs>
<filter id="filter0_d_234_6429" x="0.957031" y="0" width="121.043" height="111" filterUnits="userSpaceOnUse" color-interpolation-filters="sRGB">
<feFlood flood-opacity="0" result="BackgroundImageFix"/>
<feColorMatrix in="SourceAlpha" type="matrix" values="0 0 0 0 0 0 0 0 0 0 0 0 0 0 0 0 0 0 127 0" result="hardAlpha"/>
<feOffset dy="15"/>
<feGaussianBlur stdDeviation="15"/>
<feColorMatrix type="matrix" values="0 0 0 0 0.913725 0 0 0 0 0.929412 0 0 0 0 0.94902 0 0 0 0.5 0"/>
<feBlend mode="normal" in2="BackgroundImageFix" result="effect1_dropShadow_234_6429"/>
<feBlend mode="normal" in="SourceGraphic" in2="effect1_dropShadow_234_6429" result="shape"/>
</filter>
</defs>
</svg>
