<svg width="346" height="324" viewBox="0 0 346 324" fill="none" xmlns="http://www.w3.org/2000/svg" xmlns:xlink="http://www.w3.org/1999/xlink">
<g opacity="0.463" style="isolation:isolate">
<path d="M172.081,322.004C266.381,322.004 344.845,250.994 344.845,161L314.845,161C314.845,232.278 252.043,292.004 172.081,292.004L172.081,322.004ZM344.845,161C344.845,71.007 266.381,-0.004 172.081,-0.004L172.081,29.996C252.043,29.996 314.845,89.722 314.845,161L344.845,161ZM172.081,-0.004C77.78,-0.004 -0.685,71.007 -0.685,161L29.315,161C29.315,89.722 92.118,29.996 172.081,29.996L172.081,-0.004ZM-0.685,161C-0.685,250.994 77.78,322.004 172.081,322.004L172.081,292.004C92.118,292.004 29.315,232.278 29.315,161L-0.685,161Z" fill="#C0D2F0"/>
</g>
</svg>
