<svg width="56" height="56" viewBox="0 0 56 56" fill="none" xmlns="http://www.w3.org/2000/svg" xmlns:xlink="http://www.w3.org/1999/xlink">
<g filter="url(#filter234_8422)">
<path d="M27.786,56C43.131,56 55.571,43.464 55.571,28C55.571,12.536 43.131,0 27.786,0C12.44,0 0,12.536 0,28C0,43.464 12.44,56 27.786,56Z" fill="#E73C34"/>
</g>
<path d="M33.849,16C32.43,16 31.037,16.381 29.812,17.103C28.587,17.826 27.576,18.863 26.881,20.11C26.185,18.863 25.173,17.825 23.948,17.103C22.723,16.381 21.33,16 19.91,16C17.737,16.118 15.692,17.077 14.201,18.675C12.711,20.274 11.89,22.39 11.908,24.584C11.908,35.77 26.881,43.574 26.881,43.574C26.881,43.574 41.853,35.774 41.853,24.584C41.872,22.39 41.05,20.274 39.559,18.675C38.068,17.076 36.023,16.118 33.849,16L33.849,16Z" fill="#FFFFFF"/>
<defs>
<filter id="filter234_8422" x="-15" y="-15" width="57.785715" height="58" filterUnits="userSpaceOnUse" color-interpolation-filters="sRGB">
<feFlood flood-opacity="0" result="BackgroundImageFix"/>
<feColorMatrix in="SourceAlpha" type="matrix" values="0 0 0 0 0 0 0 0 0 0 0 0 0 0 0 0 0 0 127 0" result="hardAlpha"/>
<feMorphology radius="0" operator="dilate" in="SourceAlpha" result="0dropshadow"/>
<feOffset dx="0" dy="7"/>
<feGaussianBlur stdDeviation="7.5"/>
<feComposite in2="hardAlpha" operator="out"/>
<feColorMatrix type="matrix" values="0 0 0 0 0.996078 0 0 0 0 0.447059 0 0 0 0 0.298039 0 0 0 0.4 0"/>
<feBlend mode="normal" in2="BackgroundImageFix" result="0dropshadow"/>
<feBlend mode="normal" in="SourceGraphic" in2="0dropshadow" result="shape"/>
</filter>
</defs>
</svg>
