<svg width="56" height="58" viewBox="0 0 56 58" fill="none" xmlns="http://www.w3.org/2000/svg" xmlns:xlink="http://www.w3.org/1999/xlink">
<g filter="url(#filter234_6601)">
<path d="M27.552,56.71C43.16,56.71 55.813,44.057 55.813,28.448C55.813,12.84 43.16,0.187 27.552,0.187C11.943,0.187 -0.71,12.84 -0.71,28.448C-0.71,44.057 11.943,56.71 27.552,56.71Z" fill="#E73C34"/>
</g>
<path d="M33.719,16.336C32.275,16.336 30.858,16.721 29.613,17.45C28.367,18.179 27.338,19.226 26.631,20.484C25.924,19.226 24.895,18.178 23.649,17.449C22.403,16.72 20.985,16.336 19.542,16.336C17.331,16.455 15.251,17.423 13.735,19.036C12.219,20.65 11.383,22.786 11.402,25C11.402,36.291 26.631,44.168 26.631,44.168C26.631,44.168 41.86,36.295 41.86,25C41.879,22.786 41.043,20.649 39.527,19.036C38.01,17.422 35.93,16.455 33.719,16.336L33.719,16.336Z" fill="#FFFFFF"/>
<defs>
<filter id="filter234_6601" x="-15.709961" y="-14.813477" width="58.261683" height="58.261683" filterUnits="userSpaceOnUse" color-interpolation-filters="sRGB">
<feFlood flood-opacity="0" result="BackgroundImageFix"/>
<feColorMatrix in="SourceAlpha" type="matrix" values="0 0 0 0 0 0 0 0 0 0 0 0 0 0 0 0 0 0 127 0" result="hardAlpha"/>
<feMorphology radius="0" operator="dilate" in="SourceAlpha" result="0dropshadow"/>
<feOffset dx="0" dy="7"/>
<feGaussianBlur stdDeviation="7.5"/>
<feComposite in2="hardAlpha" operator="out"/>
<feColorMatrix type="matrix" values="0 0 0 0 0.996078 0 0 0 0 0.447059 0 0 0 0 0.298039 0 0 0 0.4 0"/>
<feBlend mode="normal" in2="BackgroundImageFix" result="0dropshadow"/>
<feBlend mode="normal" in="SourceGraphic" in2="0dropshadow" result="shape"/>
</filter>
</defs>
</svg>
