<svg width="24" height="30" viewBox="0 0 24 30" fill="none" xmlns="http://www.w3.org/2000/svg" xmlns:xlink="http://www.w3.org/1999/xlink">
<path d="M9.319,28.175C8.659,28.175 8,28.112 7.353,27.987C6.106,27.745 4.921,27.273 3.867,26.597C2.299,25.594 1.071,24.182 0.333,22.531C0.084,21.973 -0.107,21.392 -0.235,20.797C-0.5,19.568 -0.5,18.302 -0.235,17.073C0.02,15.891 0.519,14.769 1.232,13.769C2.29,12.284 3.781,11.121 5.523,10.422C6.113,10.185 6.726,10.005 7.353,9.883C8.65,9.633 9.987,9.633 11.284,9.883C12.532,10.125 13.717,10.597 14.771,11.273C16.339,12.276 17.567,13.688 18.305,15.339C18.554,15.898 18.745,16.478 18.873,17.073C19.133,18.282 19.137,19.528 18.885,20.739C18.669,21.78 18.263,22.778 17.685,23.687C16.819,25.057 15.593,26.19 14.127,26.977C12.661,27.763 11.004,28.176 9.319,28.175L9.319,28.175ZM12.678,14.607C12.52,14.607 12.364,14.636 12.218,14.693C12.072,14.751 11.939,14.835 11.828,14.941L8.419,18.166C8.193,18.38 8.066,18.671 8.066,18.974C8.067,19.277 8.194,19.567 8.42,19.781C8.646,19.995 8.953,20.115 9.273,20.115C9.592,20.114 9.899,19.994 10.125,19.779L11.828,18.166L13.53,16.554C13.701,16.395 13.817,16.192 13.865,15.97C13.912,15.748 13.889,15.518 13.797,15.309C13.706,15.1 13.551,14.921 13.352,14.796C13.153,14.671 12.919,14.605 12.68,14.607L12.678,14.607Z" fill="#E73C34"/>
<path d="M9.646,0.106C9.967,0.106 10.274,0.241 10.501,0.48C10.727,0.719 10.854,1.044 10.854,1.382L10.854,9.034C10.854,9.372 10.727,9.696 10.501,9.935C10.274,10.175 9.967,10.309 9.646,10.309C9.326,10.309 9.018,10.175 8.792,9.935C8.565,9.696 8.438,9.372 8.438,9.034L8.438,1.382C8.438,1.044 8.565,0.719 8.792,0.48C9.018,0.241 9.326,0.106 9.646,0.106L9.646,0.106Z" transform="rotate(-180 9.646 5.208)" fill="#E73C34"/>
<path d="M19.407,6.703C19.748,6.703 20.074,6.838 20.315,7.078C20.555,7.319 20.691,7.645 20.691,7.986L20.691,10.304C20.691,10.644 20.555,10.97 20.315,11.211C20.074,11.452 19.748,11.587 19.407,11.587C19.067,11.587 18.741,11.452 18.5,11.211C18.259,10.97 18.124,10.644 18.124,10.304L18.124,7.986C18.124,7.645 18.259,7.319 18.5,7.078C18.741,6.838 19.067,6.703 19.407,6.703L19.407,6.703Z" transform="rotate(-86.907 19.407 9.145)" fill="#E73C34"/>
</svg>
