<svg width="84" height="82" viewBox="0 0 84 82" fill="none" xmlns="http://www.w3.org/2000/svg" xmlns:xlink="http://www.w3.org/1999/xlink">
<g filter="url(#filter234_8901)">
<path d="M41.624,80.039C64.297,80.039 82.676,62.219 82.676,40.236C82.676,18.252 64.297,0.432 41.624,0.432C18.951,0.432 0.571,18.252 0.571,40.236C0.571,62.219 18.951,80.039 41.624,80.039Z" fill="#E73C34"/>
</g>
<path d="M50.582,23.178C48.486,23.178 46.427,23.719 44.618,24.746C42.809,25.773 41.314,27.248 40.287,29.02C39.26,27.248 37.765,25.772 35.955,24.746C34.145,23.719 32.086,23.178 29.989,23.178C26.777,23.346 23.756,24.708 21.554,26.981C19.352,29.254 18.138,32.262 18.165,35.38C18.165,51.282 40.287,62.376 40.287,62.376C40.287,62.376 62.408,51.288 62.408,35.38C62.436,32.262 61.222,29.253 59.019,26.98C56.816,24.707 53.794,23.345 50.582,23.178L50.582,23.178Z" fill="#FFFFFF"/>
<defs>
<filter id="filter234_8901" x="-17.642998" y="-17.782646" width="77.481209" height="76.232494" filterUnits="userSpaceOnUse" color-interpolation-filters="sRGB">
<feFlood flood-opacity="0" result="BackgroundImageFix"/>
<feColorMatrix in="SourceAlpha" type="matrix" values="0 0 0 0 0 0 0 0 0 0 0 0 0 0 0 0 0 0 127 0" result="hardAlpha"/>
<feMorphology radius="0" operator="dilate" in="SourceAlpha" result="0dropshadow"/>
<feOffset dx="0" dy="8.5"/>
<feGaussianBlur stdDeviation="9.107143"/>
<feComposite in2="hardAlpha" operator="out"/>
<feColorMatrix type="matrix" values="0 0 0 0 0.996078 0 0 0 0 0.447059 0 0 0 0 0.298039 0 0 0 0.4 0"/>
<feBlend mode="normal" in2="BackgroundImageFix" result="0dropshadow"/>
<feBlend mode="normal" in="SourceGraphic" in2="0dropshadow" result="shape"/>
</filter>
</defs>
</svg>
