<svg width="32" height="36" viewBox="0 0 32 36" fill="none" xmlns="http://www.w3.org/2000/svg" xmlns:xlink="http://www.w3.org/1999/xlink">
<path d="M-0.714,18.244C-0.65,13.716 0.908,9.835 3.97,6.62C4.057,6.529 4.139,6.425 4.227,6.327C5.293,5.123 7.078,4.903 8.36,5.826C9.672,6.767 10.123,8.521 9.385,9.982C9.209,10.336 8.946,10.66 8.671,10.935C5.978,13.661 4.924,16.93 5.872,20.75C6.78,24.399 9.086,26.788 12.517,27.876C15.848,28.927 18.957,28.267 21.662,25.994C23.98,24.05 25.168,21.447 25.209,18.336C25.244,15.879 24.425,13.71 22.897,11.839C22.704,11.601 22.44,11.424 22.235,11.198C21.375,10.269 21.141,9.163 21.509,7.952C21.89,6.73 22.745,5.997 23.951,5.752C24.893,5.563 25.742,5.82 26.503,6.431C27.838,7.494 28.745,8.912 29.547,10.409C30.941,13.013 31.567,15.824 31.468,18.801C31.351,22.431 30.197,25.67 28.025,28.506C25.97,31.183 23.383,33.083 20.239,34.043C14.929,35.668 9.976,34.813 5.527,31.329C2.635,29.068 0.738,26.061 -0.199,22.419C-0.556,21.056 -0.708,19.662 -0.714,18.244Z" transform="rotate(360 15.382 20.046)" fill="#E73C34" stroke="#FFFFFF" stroke-width="0.8" stroke-miterlimit="3.999327"/>
<path d="M12.226,8.295C12.226,6.046 12.22,5.261 12.226,3.011C12.231,1.728 12.805,0.756 13.871,0.145C14.913,-0.454 16.002,-0.429 17.02,0.212C17.998,0.824 18.542,1.759 18.542,2.963C18.554,7.485 18.554,9.074 18.542,13.597C18.537,15.278 17.313,16.671 15.721,16.83C14.07,17.001 12.594,15.889 12.267,14.214C12.22,13.976 12.214,13.732 12.214,13.487C12.226,11.269 12.226,10.514 12.226,8.295Z" transform="rotate(360 15.383 8.28)" fill="#E73C34" stroke="#FFFFFF" stroke-width="0.8" stroke-miterlimit="3.999327"/>
</svg>
