<svg width="56" height="58" viewBox="0 0 56 58" fill="none" xmlns="http://www.w3.org/2000/svg" xmlns:xlink="http://www.w3.org/1999/xlink">
<g filter="url(#filter239_861)">
<path d="M27.552,56.71C43.16,56.71 55.814,44.057 55.814,28.448C55.814,12.84 43.16,0.187 27.552,0.187C11.943,0.187 -0.71,12.84 -0.71,28.448C-0.71,44.057 11.943,56.71 27.552,56.71Z" fill="#E73C34"/>
</g>
<path d="M33.719,16.337C32.276,16.337 30.858,16.721 29.613,17.45C28.367,18.18 27.338,19.227 26.631,20.485C25.924,19.227 24.895,18.179 23.649,17.45C22.403,16.721 20.985,16.337 19.542,16.337C17.331,16.456 15.251,17.423 13.735,19.037C12.219,20.651 11.383,22.787 11.402,25.001C11.402,36.292 26.631,44.168 26.631,44.168C26.631,44.168 41.86,36.296 41.86,25.001C41.879,22.787 41.043,20.65 39.527,19.036C38.011,17.423 35.93,16.456 33.719,16.337L33.719,16.337Z" fill="#FFFFFF"/>
<defs>
<filter id="filter239_861" x="-15.709839" y="-14.81311" width="58.261683" height="58.261683" filterUnits="userSpaceOnUse" color-interpolation-filters="sRGB">
<feFlood flood-opacity="0" result="BackgroundImageFix"/>
<feColorMatrix in="SourceAlpha" type="matrix" values="0 0 0 0 0 0 0 0 0 0 0 0 0 0 0 0 0 0 127 0" result="hardAlpha"/>
<feMorphology radius="0" operator="dilate" in="SourceAlpha" result="0dropshadow"/>
<feOffset dx="0" dy="7"/>
<feGaussianBlur stdDeviation="7.5"/>
<feComposite in2="hardAlpha" operator="out"/>
<feColorMatrix type="matrix" values="0 0 0 0 0.996078 0 0 0 0 0.447059 0 0 0 0 0.298039 0 0 0 0.4 0"/>
<feBlend mode="normal" in2="BackgroundImageFix" result="0dropshadow"/>
<feBlend mode="normal" in="SourceGraphic" in2="0dropshadow" result="shape"/>
</filter>
</defs>
</svg>
