<svg width="42" height="48" viewBox="0 0 42 48" fill="none" xmlns="http://www.w3.org/2000/svg" xmlns:xlink="http://www.w3.org/1999/xlink">
<path d="M39.876,22.946C38.85,21.743 38.022,20.384 37.422,18.92C36.972,17.781 36.744,16.566 36.752,15.34L36.752,14.898C36.752,10.689 35.08,6.652 32.104,3.675C29.127,0.698 25.09,-0.974 20.88,-0.974C16.67,-0.974 12.632,0.699 9.655,3.676C6.677,6.654 5.004,10.692 5.004,14.902L5.004,15.348C5.013,16.567 4.787,17.775 4.338,18.908C3.739,20.376 2.909,21.738 1.88,22.944C1.271,23.962 0.868,25.09 0.695,26.264C0.522,27.437 0.582,28.634 0.872,29.784C1.162,30.934 1.676,32.016 2.385,32.968C3.094,33.919 3.983,34.721 5.002,35.328C5.014,35.338 5.027,35.345 5.041,35.35L5.148,35.412C5.412,35.55 5.685,35.671 5.964,35.772C6.072,35.814 6.194,35.858 6.326,35.904C6.706,36.045 7.094,36.164 7.489,36.258C7.565,36.274 7.638,36.296 7.714,36.306L7.73,36.306L8.185,36.414C8.503,36.486 8.846,36.556 9.22,36.628L9.804,36.732C10.204,36.8 10.646,36.868 11.116,36.932C11.586,36.996 12.088,37.058 12.626,37.114C15.368,37.387 18.121,37.52 20.876,37.514C22.476,37.514 23.92,37.49 25.23,37.434C27.52,37.334 29.384,37.154 30.894,36.938C31.54,36.846 32.124,36.738 32.644,36.644C34.083,36.465 35.476,36.018 36.75,35.326C37.77,34.72 38.659,33.918 39.368,32.967C40.077,32.016 40.591,30.935 40.882,29.785C41.172,28.635 41.233,27.439 41.06,26.265C40.888,25.092 40.485,23.964 39.876,22.946Z" fill="#D3D1D8"/>
<path d="M27.082,40.88C25.104,40.137 22.991,39.819 20.882,39.948C18.773,39.819 16.66,40.137 14.682,40.88C14.369,41.065 14.121,41.341 13.97,41.671C13.819,42.002 13.774,42.371 13.84,42.728C14.171,43.745 14.776,44.65 15.587,45.346C16.398,46.043 17.385,46.503 18.44,46.676C20.043,47.111 21.733,47.111 23.336,46.676C24.391,46.503 25.378,46.043 26.189,45.347C27.001,44.651 27.605,43.745 27.936,42.728C28.001,42.37 27.954,42 27.801,41.669C27.648,41.338 27.397,41.063 27.082,40.88L27.082,40.88Z" fill="#D3D1D8"/>
</svg>
