<svg width="852" height="1186" viewBox="0 0 852 1186" fill="none" xmlns="http://www.w3.org/2000/svg" xmlns:xlink="http://www.w3.org/1999/xlink">
<rect  x="0" y="0" width="852" height="1186" fill="url(#pattern_0_234_9312)"/>
<rect  x="0" y="0" width="852" height="1186" fill="url(#pattern_1_234_9312)"/>
<path d="M330.576,808L333.707,810.49C334.054,810.052 334.307,809.548 334.447,809.008L330.576,808ZM364.656,677L368.527,678.008C368.656,677.512 368.689,676.996 368.623,676.488L364.656,677ZM358.976,633L355.578,630.89C355.092,631.672 354.891,632.598 355.009,633.512L358.976,633ZM452.128,483L449.508,479.978C449.204,480.24 448.942,480.548 448.73,480.89L452.128,483ZM527.104,418L529.724,421.022C530.118,420.68 530.442,420.264 530.676,419.798L527.104,418ZM606.624,260L610.196,261.798C610.714,260.77 610.764,259.568 610.332,258.5C609.9,257.433 609.03,256.603 607.942,256.223L606.624,260ZM540.736,237L537.042,235.465C536.62,236.482 536.634,237.628 537.084,238.633C537.534,239.638 538.378,240.414 539.418,240.777L540.736,237ZM325.755,820.49L333.707,810.49L327.445,805.51L319.493,815.51L325.755,820.49ZM334.447,809.008L368.527,678.008L360.785,675.992L326.705,806.992L334.447,809.008ZM368.623,676.488L362.943,632.488L355.009,633.512L360.689,677.512L368.623,676.488ZM362.374,635.11L455.526,485.11L448.73,480.89L355.578,630.89L362.374,635.11ZM454.748,486.022L529.724,421.022L524.484,414.978L449.508,479.978L454.748,486.022ZM530.676,419.798L610.196,261.798L603.052,258.202L523.532,416.202L530.676,419.798ZM607.942,256.223L542.054,233.223L539.418,240.777L605.306,263.777L607.942,256.223ZM544.43,238.535L561.47,197.535L554.082,194.465L537.042,235.465L544.43,238.535Z" fill="#171725"/>
<path d="M307.632,797.456C307.632,787.515 315.691,779.456 325.632,779.456L325.632,779.456C335.573,779.456 343.632,787.515 343.632,797.456L343.632,813.456C343.632,814.56 342.737,815.456 341.632,815.456L325.632,815.456C315.691,815.456 307.632,807.397 307.632,797.456L307.632,797.456Z" transform="rotate(90 325.632 797.456)" fill="#E73C34"/>
<circle cx="321.632" cy="797.456" r="8" transform="rotate(-270 321.632 797.456)" fill="#FFFFFF"/>
<rect  x="515.744" y="138" width="90.88" height="80" rx="40" fill="#E73C34"/>
<g style="isolation:isolate">
<path d="M552.916,162C554.478,160.438 557.01,160.438 558.572,162L564.744,168.171L564.744,166C564.744,164.895 565.639,164 566.744,164C567.849,164 568.744,164.895 568.744,166L568.744,172.171L573.158,176.585C573.939,177.367 573.939,178.633 573.158,179.414C572.377,180.195 571.111,180.195 570.33,179.414L570.188,179.273L570.188,190C570.188,193.313 567.502,196 564.188,196L547.3,196C543.986,196 541.3,193.313 541.3,190L541.3,179.273L541.158,179.414C540.377,180.195 539.111,180.195 538.33,179.414C537.549,178.633 537.549,177.367 538.33,176.585L552.916,162ZM545.3,175.273L545.3,190C545.3,191.104 546.195,192 547.3,192L553.744,192L553.744,184C553.744,182.895 554.639,182 555.744,182C556.849,182 557.744,182.895 557.744,184L557.744,192L564.188,192C565.293,192 566.188,191.104 566.188,190L566.188,175.273L555.744,164.828L545.3,175.273Z" clip-rule="evenodd" fill-rule="evenodd" fill="#FFFFFF"/>
</g>
</svg>
