<svg width="58" height="58" viewBox="0 0 58 58" fill="none" xmlns="http://www.w3.org/2000/svg" xmlns:xlink="http://www.w3.org/1999/xlink">
<path d="M28.411,56.71C44.02,56.71 56.673,44.057 56.673,28.448C56.673,12.84 44.02,0.187 28.411,0.187C12.803,0.187 0.15,12.84 0.15,28.448C0.15,44.057 12.803,56.71 28.411,56.71Z" fill="#FFFFFF" fill-opacity="0.2"/>
<path d="M34.579,16.337C33.135,16.337 31.718,16.721 30.473,17.45C29.227,18.179 28.198,19.227 27.491,20.485C26.784,19.227 25.755,18.179 24.509,17.45C23.263,16.721 21.845,16.337 20.401,16.337C18.191,16.456 16.111,17.423 14.595,19.037C13.079,20.651 12.243,22.787 12.262,25.001C12.262,36.291 27.491,44.168 27.491,44.168C27.491,44.168 42.72,36.295 42.72,25.001C42.739,22.787 41.903,20.65 40.387,19.036C38.87,17.423 36.79,16.456 34.579,16.337L34.579,16.337Z" fill="#FFFFFF"/>
</svg>
