<svg width="334" height="106" viewBox="0 0 334 106" fill="none" xmlns="http://www.w3.org/2000/svg" xmlns:xlink="http://www.w3.org/1999/xlink">
<g filter="url(#filter239_1597)">
<rect  x="0" y="0" width="334" height="106" rx="57" fill="#E73C34"/>
</g>
<rect  x="12" y="12" width="80" height="80" rx="40" fill="#FFFFFF"/>
<path d="M66.505,48.194C66.348,46.833 65.697,45.571 64.669,44.632C63.641,43.692 62.303,43.137 60.892,43.063L60.892,42.663C60.893,41.525 60.662,40.399 60.213,39.348C59.763,38.296 59.103,37.342 58.272,36.538C57.442,35.732 56.456,35.093 55.37,34.658C54.285,34.222 53.121,33.999 51.946,34C49.574,34.001 47.3,34.914 45.623,36.539C43.946,38.164 43.003,40.367 43.002,42.665L43.002,43.069C41.61,43.165 40.296,43.731 39.289,44.667C38.283,45.604 37.647,46.853 37.492,48.197L36,61.364C36.007,63.13 36.738,64.82 38.03,66.064C39.323,67.308 41.073,68.005 42.896,68L61.105,68C62.927,68.005 64.677,67.308 65.97,66.064C67.262,64.82 67.993,63.13 68,61.364L66.505,48.194ZM45.629,42.679C45.628,41.876 45.792,41.08 46.109,40.337C46.426,39.595 46.892,38.92 47.478,38.352C48.065,37.783 48.761,37.332 49.527,37.025C50.293,36.717 51.115,36.559 51.944,36.559C52.774,36.558 53.596,36.716 54.362,37.024C55.129,37.331 55.825,37.782 56.412,38.351C56.999,38.919 57.465,39.594 57.783,40.336C58.101,41.079 58.264,41.875 58.263,42.679L58.263,43.05L45.629,43.05L45.629,42.679ZM46.875,51.681C46.666,51.681 46.46,51.641 46.267,51.564C46.075,51.487 45.9,51.374 45.752,51.231C45.605,51.088 45.488,50.918 45.408,50.732C45.329,50.545 45.288,50.345 45.288,50.143C45.288,49.941 45.329,49.741 45.408,49.555C45.488,49.368 45.605,49.199 45.752,49.056C45.9,48.913 46.075,48.8 46.267,48.723C46.46,48.646 46.666,48.606 46.875,48.606C47.084,48.606 47.29,48.645 47.483,48.722C47.676,48.799 47.852,48.912 47.999,49.055C48.147,49.198 48.265,49.367 48.345,49.554C48.425,49.741 48.466,49.941 48.466,50.143C48.466,50.346 48.425,50.546 48.345,50.732C48.265,50.919 48.147,51.089 47.999,51.232C47.852,51.374 47.676,51.487 47.483,51.564C47.29,51.641 47.084,51.681 46.875,51.681L46.875,51.681ZM57.129,51.681C56.92,51.681 56.713,51.641 56.52,51.564C56.327,51.487 56.152,51.374 56.004,51.232C55.856,51.089 55.739,50.919 55.659,50.732C55.579,50.546 55.537,50.346 55.537,50.143C55.537,49.941 55.579,49.741 55.659,49.554C55.739,49.367 55.856,49.198 56.004,49.055C56.152,48.912 56.327,48.799 56.52,48.722C56.713,48.645 56.92,48.606 57.129,48.606C57.337,48.606 57.543,48.646 57.736,48.723C57.929,48.8 58.104,48.913 58.251,49.056C58.399,49.199 58.516,49.368 58.595,49.555C58.675,49.741 58.716,49.941 58.716,50.143C58.716,50.345 58.675,50.545 58.595,50.732C58.516,50.918 58.399,51.088 58.251,51.231C58.104,51.374 57.929,51.487 57.736,51.564C57.543,51.641 57.337,51.681 57.129,51.681L57.129,51.681Z" fill="#E73C34"/>
<defs>
<filter id="filter239_1597" x="-30" y="-30" width="227" height="113" filterUnits="userSpaceOnUse" color-interpolation-filters="sRGB">
<feFlood flood-opacity="0" result="BackgroundImageFix"/>
<feColorMatrix in="SourceAlpha" type="matrix" values="0 0 0 0 0 0 0 0 0 0 0 0 0 0 0 0 0 0 127 0" result="hardAlpha"/>
<feMorphology radius="0" operator="dilate" in="SourceAlpha" result="0dropshadow"/>
<feOffset dx="0" dy="10"/>
<feGaussianBlur stdDeviation="15"/>
<feComposite in2="hardAlpha" operator="out"/>
<feColorMatrix type="matrix" values="0 0 0 0 0.996078 0 0 0 0 0.447059 0 0 0 0 0.298039 0 0 0 0.2 0"/>
<feBlend mode="normal" in2="BackgroundImageFix" result="0dropshadow"/>
<feBlend mode="normal" in="SourceGraphic" in2="0dropshadow" result="shape"/>
</filter>
</defs>
</svg>
