<svg width="34" height="34" viewBox="0 0 34 34" fill="none" xmlns="http://www.w3.org/2000/svg" xmlns:xlink="http://www.w3.org/1999/xlink">
<path d="M17.569,4.481C17.569,3.929 17.122,3.481 16.569,3.481C16.017,3.481 15.569,3.929 15.569,4.481L17.569,4.481ZM15.569,28.197C15.569,28.75 16.017,29.197 16.569,29.197C17.122,29.197 17.569,28.75 17.569,28.197L15.569,28.197ZM15.569,4.481L15.569,28.197L17.569,28.197L17.569,4.481L15.569,4.481Z" transform="rotate(-90 16.569 16.339)" fill="#E73C34"/>
<path d="M4.714,15.34C4.162,15.34 3.714,15.787 3.714,16.34C3.714,16.892 4.162,17.34 4.714,17.34L4.714,15.34ZM28.431,17.34C28.983,17.34 29.431,16.892 29.431,16.34C29.431,15.787 28.983,15.34 28.431,15.34L28.431,17.34ZM4.714,17.34L28.431,17.34L28.431,15.34L4.714,15.34L4.714,17.34Z" transform="rotate(-90 16.573 16.34)" fill="#E73C34"/>
</svg>
