<svg width="52" height="64" viewBox="0 0 52 64" fill="none" xmlns="http://www.w3.org/2000/svg" xmlns:xlink="http://www.w3.org/1999/xlink">
<path d="M8.857,4L43.143,4L43.143,0L8.857,0L8.857,4ZM43.143,4C45.825,4 48,6.175 48,8.857L52,8.857C52,3.965 48.035,0 43.143,0L43.143,4ZM48,8.857L48,53.429L52,53.429L52,8.857L48,8.857ZM48,53.429C48,56.111 45.825,58.286 43.143,58.286L43.143,62.286C48.035,62.286 52,58.32 52,53.429L48,53.429ZM43.143,58.286L8.857,58.286L8.857,62.286L43.143,62.286L43.143,58.286ZM8.857,58.286C6.175,58.286 4,56.111 4,53.429L0,53.429C0,58.32 3.965,62.286 8.857,62.286L8.857,58.286ZM4,53.429L4,8.857L0,8.857L0,53.429L4,53.429ZM4,8.857C4,6.175 6.175,4 8.857,4L8.857,0C3.965,0 0,3.965 0,8.857L4,8.857Z" fill="#E73C34"/>
<path d="M15.714,17.143C14.609,17.143 13.714,18.038 13.714,19.143C13.714,20.247 14.609,21.143 15.714,21.143L15.714,17.143ZM36.285,21.143C37.39,21.143 38.285,20.247 38.285,19.143C38.285,18.038 37.39,17.143 36.285,17.143L36.285,21.143ZM15.714,30.857C14.609,30.857 13.714,31.752 13.714,32.857C13.714,33.961 14.609,34.857 15.714,34.857L15.714,30.857ZM36.285,34.857C37.39,34.857 38.285,33.961 38.285,32.857C38.285,31.752 37.39,30.857 36.285,30.857L36.285,34.857ZM15.714,44.571C14.609,44.571 13.714,45.467 13.714,46.571C13.714,47.676 14.609,48.571 15.714,48.571L15.714,44.571ZM29.428,48.571C30.533,48.571 31.428,47.676 31.428,46.571C31.428,45.467 30.533,44.571 29.428,44.571L29.428,48.571ZM15.714,21.143L36.285,21.143L36.285,17.143L15.714,17.143L15.714,21.143ZM15.714,34.857L36.285,34.857L36.285,30.857L15.714,30.857L15.714,34.857ZM15.714,48.571L29.428,48.571L29.428,44.571L15.714,44.571L15.714,48.571Z" fill="#E73C34"/>
</svg>
