<svg width="32" height="36" viewBox="0 0 32 36" fill="none" xmlns="http://www.w3.org/2000/svg" xmlns:xlink="http://www.w3.org/1999/xlink">
<path d="M-0.714,17.96C-0.649,13.432 0.908,9.551 3.97,6.336C4.057,6.244 4.139,6.141 4.227,6.043C5.293,4.839 7.078,4.619 8.36,5.542C9.672,6.483 10.123,8.237 9.385,9.698C9.209,10.052 8.946,10.376 8.671,10.651C5.978,13.377 4.924,16.646 5.872,20.466C6.78,24.115 9.086,26.504 12.517,27.592C15.848,28.643 18.957,27.983 21.662,25.71C23.98,23.766 25.169,21.163 25.21,18.052C25.245,15.595 24.425,13.426 22.897,11.555C22.704,11.317 22.44,11.14 22.236,10.914C21.375,9.985 21.141,8.879 21.51,7.668C21.89,6.446 22.745,5.713 23.951,5.468C24.893,5.279 25.742,5.536 26.503,6.147C27.838,7.21 28.746,8.628 29.548,10.125C30.941,12.729 31.567,15.54 31.468,18.517C31.351,22.147 30.198,25.386 28.026,28.222C25.971,30.899 23.383,32.799 20.239,33.759C14.929,35.384 9.976,34.529 5.527,31.045C2.635,28.784 0.738,25.777 -0.199,22.135C-0.556,20.772 -0.708,19.378 -0.714,17.96Z" transform="rotate(360 15.382 19.762)" fill="#E73C34" stroke="#FFFFFF" stroke-width="0.8" stroke-miterlimit="3.999327"/>
<path d="M12.226,8.011C12.226,5.762 12.22,4.976 12.226,2.727C12.232,1.444 12.805,0.472 13.871,-0.139C14.913,-0.738 16.002,-0.714 17.021,-0.072C17.998,0.539 18.543,1.474 18.543,2.678C18.554,7.201 18.554,8.79 18.543,13.313C18.537,14.993 17.313,16.387 15.721,16.546C14.07,16.717 12.595,15.604 12.267,13.93C12.22,13.692 12.214,13.447 12.214,13.203C12.226,10.984 12.226,10.229 12.226,8.011Z" transform="rotate(360 15.383 7.996)" fill="#E73C34" stroke="#FFFFFF" stroke-width="0.8" stroke-miterlimit="3.999327"/>
</svg>
