<svg width="40" height="40" viewBox="0 0 40 40" fill="none" xmlns="http://www.w3.org/2000/svg" xmlns:xlink="http://www.w3.org/1999/xlink">
<path d="M14.27,37.547L14.27,31.431C14.27,29.87 15.544,28.605 17.117,28.605L22.865,28.605C23.62,28.605 24.345,28.902 24.879,29.433C25.413,29.963 25.713,30.682 25.713,31.431L25.713,37.547C25.708,38.196 25.964,38.82 26.425,39.28C26.885,39.741 27.512,40 28.166,40L32.088,40C33.919,40.005 35.678,39.286 36.974,38.002C38.271,36.718 39,34.974 39,33.156L39,15.734C39,14.265 38.344,12.872 37.209,11.929L23.868,1.352C21.547,-0.503 18.222,-0.443 15.971,1.494L2.934,11.929C1.745,12.844 1.035,14.241 1,15.734L1,33.138C1,36.928 4.095,40 7.912,40L11.745,40C13.102,40 14.206,38.912 14.216,37.564L14.27,37.547Z" fill="#041F4A"/>
</svg>
