<svg width="124" height="120" viewBox="0 0 124 120" fill="none" xmlns="http://www.w3.org/2000/svg" xmlns:xlink="http://www.w3.org/1999/xlink">
<g opacity="0.21" style="isolation:isolate">
<path d="M0,60L0,74C0,99.405 20.595,120 46,120L61.257,120L76.513,120C101.918,120 122.513,99.405 122.513,74L122.513,60L122.513,46C122.513,20.595 101.918,0 76.513,0L61.257,0L46,0C20.595,0 0,20.595 0,46L0,60Z" clip-rule="evenodd" fill-rule="evenodd" fill="#27AE60"/>
</g>
<g opacity="0.588" style="isolation:isolate">
<path d="M42.199,46.667C42.199,52.558 47.075,57.333 53.089,57.333C59.103,57.333 63.979,52.558 63.979,46.667C63.979,40.776 59.103,36 53.089,36C47.075,36 42.199,40.776 42.199,46.667ZM69.424,57.333C69.424,61.752 73.081,65.333 77.592,65.333C82.102,65.333 85.759,61.752 85.759,57.333C85.759,52.915 82.102,49.333 77.592,49.333C73.081,49.333 69.424,52.915 69.424,57.333Z" clip-rule="evenodd" fill-rule="evenodd" fill="#27AE60"/>
</g>
</svg>
