<svg width="120" height="120" viewBox="0 0 120 120" fill="none" xmlns="http://www.w3.org/2000/svg" xmlns:xlink="http://www.w3.org/1999/xlink">
<g opacity="0.21" style="isolation:isolate">
<path d="M0,60L0,74C0,99.405 20.595,120 46,120L60,120L74,120C99.405,120 120,99.405 120,74L120,60L120,46C120,20.595 99.405,0 74,0L60,0L46,0C20.595,0 0,20.595 0,46L0,60Z" clip-rule="evenodd" fill-rule="evenodd" fill="#4AD991"/>
</g>
<path d="M38.222,81.778L84.889,81.778C86.607,81.778 88,83.171 88,84.889C88,86.607 86.607,88 84.889,88L35.111,88C33.393,88 32,86.607 32,84.889L32,35.111C32,33.393 33.393,32 35.111,32C36.829,32 38.222,33.393 38.222,35.111L38.222,81.778Z" fill="#4AD991"/>
<g opacity="0.5" style="isolation:isolate">
<path d="M49.825,68.35C48.65,69.603 46.681,69.667 45.428,68.492C44.174,67.317 44.111,65.348 45.286,64.094L56.952,51.65C58.089,50.438 59.978,50.332 61.242,51.411L70.45,59.269L82.447,44.072C83.512,42.724 85.468,42.493 86.817,43.558C88.165,44.623 88.395,46.579 87.331,47.928L73.331,65.661C72.237,67.046 70.212,67.245 68.869,66.1L59.461,58.072L49.825,68.35Z" fill="#4AD991"/>
</g>
</svg>
