<svg width="52" height="38" viewBox="0 0 52 38" fill="none" xmlns="http://www.w3.org/2000/svg" xmlns:xlink="http://www.w3.org/1999/xlink">
<path d="M37.604,-0.188C33.136,-0.188 28.323,0.729 25,3.25C21.677,0.729 16.865,-0.188 12.396,-0.188C9.073,-0.188 5.544,0.317 2.588,1.623C0.915,2.379 -0.208,4.006 -0.208,5.862L-0.208,31.713C-0.208,34.692 2.588,36.892 5.475,36.158C7.721,35.586 10.104,35.333 12.396,35.333C15.971,35.333 19.775,35.929 22.846,37.442C24.221,38.129 25.779,38.129 27.131,37.442C30.202,35.906 34.006,35.333 37.581,35.333C39.873,35.333 42.256,35.586 44.502,36.158C47.39,36.914 50.186,34.714 50.186,31.713L50.186,5.862C50.186,4.006 49.063,2.379 47.39,1.623C44.456,0.317 40.927,-0.188 37.604,-0.188ZM45.625,28.985C45.625,30.429 44.296,31.483 42.875,31.231C41.156,30.911 39.369,30.773 37.604,30.773C33.708,30.773 28.094,32.263 25,34.211L25,7.833C28.094,5.885 33.708,4.396 37.604,4.396C39.713,4.396 41.798,4.602 43.792,5.037C44.846,5.267 45.625,6.206 45.625,7.283L45.625,28.985Z" fill="#E73C34"/>
</svg>
