<svg width="40" height="40" viewBox="0 0 40 40" fill="none" xmlns="http://www.w3.org/2000/svg" xmlns:xlink="http://www.w3.org/1999/xlink">
<path d="M20,23.617C16.45,23.617 13.55,20.733 13.55,17.167C13.55,13.6 16.45,10.733 20,10.733C23.55,10.733 26.45,13.617 26.45,17.183C26.45,20.75 23.55,23.617 20,23.617ZM20,13.233C17.833,13.233 16.05,15 16.05,17.183C16.05,19.367 17.816,21.133 20,21.133C22.183,21.133 23.95,19.367 23.95,17.183C23.95,15 22.166,13.233 20,13.233Z" fill="#828282"/>
<path d="M20,37.933C17.533,37.933 15.05,37 13.116,35.15C8.2,30.416 2.766,22.866 4.816,13.883C6.666,5.733 13.783,2.083 20,2.083C20,2.083 20,2.083 20.016,2.083C26.233,2.083 33.35,5.733 35.2,13.9C37.233,22.883 31.8,30.416 26.883,35.15C24.95,37 22.466,37.933 20,37.933ZM20,4.583C15.15,4.583 8.916,7.166 7.266,14.433C5.466,22.283 10.4,29.05 14.866,33.333C17.75,36.116 22.266,36.116 25.15,33.333C29.6,29.05 34.533,22.283 32.766,14.433C31.1,7.166 24.85,4.583 20,4.583Z" fill="#828282"/>
</svg>
