<svg width="32" height="30" viewBox="0 0 32 30" fill="none" xmlns="http://www.w3.org/2000/svg" xmlns:xlink="http://www.w3.org/1999/xlink">
<path d="M29.424,8.513C29.139,6.459 28.178,4.558 26.694,3.109C25.209,1.661 23.285,0.748 21.224,0.513C17.333,-0.184 13.348,-0.171 9.462,0.553C4.382,1.591 2.17,4.329 1.312,9.589C1.045,11.217 0.916,12.864 0.924,14.513L0.924,14.513C0.942,16.528 1.149,18.537 1.542,20.513C1.828,22.567 2.788,24.469 4.273,25.917C5.757,27.365 7.681,28.279 9.742,28.513C13.633,29.21 17.618,29.197 21.504,28.473C26.584,27.435 28.796,24.697 29.654,19.435C29.917,17.808 30.043,16.161 30.03,14.513L30.03,14.513C30.016,12.499 29.813,10.49 29.424,8.513L29.424,8.513Z" fill="#E73C34" fill-opacity="0.46"/>
</svg>
