<svg width="30" height="30" viewBox="0 0 30 30" fill="none" xmlns="http://www.w3.org/2000/svg" xmlns:xlink="http://www.w3.org/1999/xlink">
<path d="M28.508,8.525C28.225,6.469 27.266,4.566 25.781,3.115C24.296,1.664 22.371,0.749 20.308,0.513C16.416,-0.184 12.43,-0.171 8.542,0.553C3.46,1.591 1.248,4.331 0.388,9.593C0.121,11.224 -0.009,12.874 0,14.525L0,14.525C0.018,16.54 0.225,18.549 0.618,20.526C0.902,22.582 1.862,24.485 3.346,25.936C4.831,27.386 6.756,28.302 8.818,28.538C12.711,29.235 16.697,29.222 20.584,28.498C25.666,27.46 27.878,24.72 28.738,19.458C29.001,17.83 29.127,16.182 29.114,14.533L29.114,14.533C29.101,12.516 28.898,10.505 28.508,8.525L28.508,8.525Z" fill="#E73C34" fill-opacity="0.46"/>
</svg>
