<svg width="48" height="48" viewBox="0 0 48 48" fill="none" xmlns="http://www.w3.org/2000/svg" xmlns:xlink="http://www.w3.org/1999/xlink">
<path d="M24,22C25.657,22 27,20.657 27,19C27,17.343 25.657,16 24,16C22.343,16 21,17.343 21,19C21,20.657 22.343,22 24,22Z" fill="#F44849"/>
<path d="M24,4C19.784,4 15.739,5.664 12.742,8.63C9.746,11.596 8.042,15.624 8,19.84C8,30.8 22.1,43 22.7,43.52C23.062,43.83 23.523,44 24,44C24.477,44 24.938,43.83 25.3,43.52C26,43 40,30.8 40,19.84C39.958,15.624 38.254,11.596 35.258,8.63C32.261,5.664 28.216,4 24,4ZM24,26C22.616,26 21.262,25.589 20.111,24.82C18.96,24.051 18.063,22.958 17.533,21.679C17.003,20.4 16.864,18.992 17.135,17.634C17.405,16.276 18.071,15.029 19.05,14.05C20.029,13.071 21.277,12.405 22.634,12.135C23.992,11.864 25.4,12.003 26.679,12.533C27.958,13.063 29.051,13.96 29.82,15.111C30.589,16.262 31,17.616 31,19C31,20.857 30.263,22.637 28.95,23.95C27.637,25.263 25.857,26 24,26L24,26Z" fill="#F44849"/>
</svg>
