<svg width="64" height="72" viewBox="0 0 64 72" fill="none" xmlns="http://www.w3.org/2000/svg" xmlns:xlink="http://www.w3.org/1999/xlink">
<path d="M55.333,69.333L55.333,71.333L57.333,71.333L57.333,69.333L55.333,69.333ZM55.333,33.766L54.648,31.887L53.333,32.366L53.333,33.766L55.333,33.766ZM48.4,14.999L46.44,15.397L46.905,17.695L49.101,16.872L48.4,14.999ZM15.6,14.999L14.907,16.875L17.096,17.684L17.56,15.397L15.6,14.999ZM8.666,33.766L10.666,33.766L10.666,32.373L9.36,31.89L8.666,33.766ZM8.666,69.333L6.666,69.333L6.666,71.333L8.666,71.333L8.666,69.333ZM55.333,53.999L8.666,53.999L8.666,57.999L55.333,57.999L55.333,53.999ZM34,55.999L34,35.999L30,35.999L30,55.999L34,55.999ZM44,55.999L44,42.666L40,42.666L40,55.999L44,55.999ZM24,55.999L24,42.666L20,42.666L20,55.999L24,55.999ZM57.333,69.333L57.333,33.766L53.333,33.766L53.333,69.333L57.333,69.333ZM56.018,35.645C57.503,35.104 58.867,34.275 60.031,33.205L57.324,30.26C56.548,30.973 55.639,31.526 54.648,31.887L56.018,35.645ZM60.031,33.205C61.194,32.135 62.136,30.846 62.8,29.412L59.17,27.731C58.727,28.687 58.1,29.547 57.324,30.26L60.031,33.205ZM62.8,29.412C63.464,27.977 63.839,26.426 63.902,24.846L59.905,24.687C59.863,25.74 59.613,26.774 59.17,27.731L62.8,29.412ZM63.902,24.846C63.965,23.267 63.715,21.69 63.167,20.208L59.415,21.594C59.78,22.582 59.947,23.634 59.905,24.687L63.902,24.846ZM63.167,20.208C62.62,18.725 61.784,17.365 60.709,16.206L57.776,18.925C58.493,19.698 59.05,20.605 59.415,21.594L63.167,20.208ZM60.709,16.206C59.635,15.047 58.341,14.111 56.904,13.453L55.239,17.09C56.197,17.529 57.06,18.153 57.776,18.925L60.709,16.206ZM56.904,13.453C55.467,12.795 53.914,12.428 52.334,12.372L52.192,16.369C53.245,16.406 54.281,16.652 55.239,17.09L56.904,13.453ZM52.334,12.372C50.754,12.315 49.179,12.572 47.698,13.126L49.101,16.872C50.088,16.503 51.138,16.332 52.192,16.369L52.334,12.372ZM50.36,14.602C49.631,11.003 47.264,7.535 44.057,4.985C40.83,2.419 36.609,0.666 32,0.666L32,4.666C35.59,4.666 38.953,6.036 41.567,8.116C44.202,10.211 45.935,12.909 46.44,15.397L50.36,14.602ZM32,0.666C27.39,0.666 23.169,2.419 19.943,4.985C16.736,7.535 14.369,11.003 13.64,14.602L17.56,15.397C18.064,12.909 19.797,10.211 22.432,8.116C25.047,6.036 28.409,4.666 32,4.666L32,0.666ZM16.293,13.123C13.307,12.02 10.005,12.148 7.113,13.48L8.786,17.113C10.714,16.225 12.916,16.14 14.907,16.875L16.293,13.123ZM7.113,13.48C4.221,14.811 1.977,17.237 0.874,20.223L4.626,21.609C5.361,19.618 6.858,18.001 8.786,17.113L7.113,13.48ZM0.874,20.223C-0.23,23.209 -0.101,26.511 1.23,29.403L4.863,27.73C3.976,25.802 3.89,23.6 4.626,21.609L0.874,20.223ZM1.23,29.403C2.562,32.295 4.987,34.539 7.973,35.642L9.36,31.89C7.369,31.154 5.751,29.658 4.863,27.73L1.23,29.403ZM6.666,33.766L6.666,69.333L10.666,69.333L10.666,33.766L6.666,33.766ZM8.666,71.333L55.333,71.333L55.333,67.333L8.666,67.333L8.666,71.333Z" fill="#E73C34"/>
</svg>
