<svg width="44" height="40" viewBox="0 0 44 40" fill="none" xmlns="http://www.w3.org/2000/svg" xmlns:xlink="http://www.w3.org/1999/xlink">
<path d="M36,8C38.209,8 40,6.209 40,4C40,1.791 38.209,0 36,0C33.791,0 32,1.791 32,4C32,6.209 33.791,8 36,8Z" fill="#9CA4AB"/>
<path d="M24,8C23.605,8 23.219,8.117 22.891,8.336L16.891,12.336C15.972,12.949 15.723,14.19 16.336,15.109C16.949,16.028 18.19,16.277 19.109,15.664L24.606,12L28.114,12L10.373,36.838C9.731,37.736 9.939,38.985 10.838,39.627C11.736,40.269 12.985,40.061 13.627,39.162L23.553,25.267L29.287,30.284L24.4,36.8C23.737,37.684 23.916,38.937 24.8,39.6C25.684,40.263 26.937,40.084 27.6,39.2L33.6,31.2C34.228,30.363 34.104,29.184 33.317,28.495L25.889,21.996L31.697,13.866L34.211,18.894C34.55,19.572 35.242,20 36,20L42,20C43.105,20 44,19.105 44,18C44,16.895 43.105,16 42,16L37.236,16L33.789,9.106C33.45,8.428 32.758,8 32,8L24,8Z" fill="#9CA4AB"/>
<path d="M10,18C8.895,18 8,18.895 8,20C8,21.105 8.895,22 10,22L16,22C17.105,22 18,21.105 18,20C18,18.895 17.105,18 16,18L10,18Z" fill="#9CA4AB"/>
<path d="M4,26C4,24.895 4.895,24 6,24L12,24C13.105,24 14,24.895 14,26C14,27.105 13.105,28 12,28L6,28C4.895,28 4,27.105 4,26Z" fill="#9CA4AB"/>
<path d="M2,30C0.895,30 0,30.895 0,32C0,33.105 0.895,34 2,34L8,34C9.105,34 10,33.105 10,32C10,30.895 9.105,30 8,30L2,30Z" fill="#9CA4AB"/>
</svg>
