<svg width="44" height="44" viewBox="0 0 44 44" fill="none" xmlns="http://www.w3.org/2000/svg" xmlns:xlink="http://www.w3.org/1999/xlink">
<path d="M16,43.5L28,43.5L28,40.5L16,40.5L16,43.5ZM28,43.5C33.148,43.5 37.142,42.48 39.811,39.811C42.48,37.142 43.5,33.148 43.5,28L40.5,28C40.5,32.852 39.52,35.858 37.689,37.689C35.858,39.52 32.852,40.5 28,40.5L28,43.5ZM43.5,28L43.5,16L40.5,16L40.5,28L43.5,28ZM43.5,16C43.5,10.852 42.48,6.858 39.811,4.189C37.142,1.52 33.148,0.5 28,0.5L28,3.5C32.852,3.5 35.858,4.48 37.689,6.311C39.52,8.142 40.5,11.148 40.5,16L43.5,16ZM28,0.5L16,0.5L16,3.5L28,3.5L28,0.5ZM16,0.5C10.852,0.5 6.858,1.52 4.189,4.189C1.52,6.858 0.5,10.852 0.5,16L3.5,16C3.5,11.148 4.48,8.142 6.311,6.311C8.142,4.48 11.148,3.5 16,3.5L16,0.5ZM0.5,16L0.5,28L3.5,28L3.5,16L0.5,16ZM0.5,28C0.5,33.148 1.52,37.142 4.189,39.811C6.858,42.48 10.852,43.5 16,43.5L16,40.5C11.148,40.5 8.142,39.52 6.311,37.689C4.48,35.858 3.5,32.852 3.5,28L0.5,28Z" fill="#BFC6CC"/>
</svg>
